<?xml version="1.0" encoding="UTF-8"?>
<svg version="1.1" xmlns="http://www.w3.org/2000/svg" width="32" height="32">
<path d="M0 0 C3.92061103 2.19278684 6.97809862 4.95619724 9 9 C10.34009135 20.6039728 10.34009135 20.6039728 7.5078125 25.66796875 C4.31531972 29.30423128 1.94759708 31.77508065 -2.9765625 32.34375 C-14.03729021 32.81744284 -14.03729021 32.81744284 -18.8125 28.625 C-23.61624433 23.64713274 -23.50615879 19.37124985 -23.4921875 12.57421875 C-22.75174943 7.19722801 -20.18398445 4.28471177 -16 1 C-11.26503433 -1.36748284 -5.10642777 -0.70318022 0 0 Z " fill="#090000" transform="translate(23,0)"/>
<path d="M0 0 C0.66 0 1.32 0 2 0 C2.66 2.97 3.32 5.94 4 9 C5.65 7.68 7.3 6.36 9 5 C10.30042194 9.62372246 9.85486376 13.33710678 9 18 C8.34 18.33 7.68 18.66 7 19 C6.67 17.68 6.34 16.36 6 15 C5.34 16.32 4.68 17.64 4 19 C3.34 17.35 2.68 15.7 2 14 C1.67 17.3 1.34 20.6 1 24 C0.34 24 -0.32 24 -1 24 C-1.18451025 7.1070615 -1.18451025 7.1070615 0 0 Z " fill="#D30000" transform="translate(16,5)"/>
<path d="M0 0 C1.32 0 2.64 0 4 0 C4 1.32 4 2.64 4 4 C2.68 4.33 1.36 4.66 0 5 C0 5.99 0 6.98 0 8 C0.66 8.4125 1.32 8.825 2 9.25 C4 11 4 11 4.3125 14.5 C4 18 4 18 3 21 C1.1875 20.8125 1.1875 20.8125 -1 20 C-2.8125 17.5625 -2.8125 17.5625 -4 15 C-3.67 14.34 -3.34 13.68 -3 13 C-1.68 13.99 -0.36 14.98 1 16 C-0.75454385 12.81765895 -0.75454385 12.81765895 -3 10 C-2.62056512 5.90210331 -2.30694043 3.46041065 0 0 Z " fill="#CF0001" transform="translate(10,6)"/>
<path d="M0 0 C0.66 0.33 1.32 0.66 2 1 C1.67 3.97 1.34 6.94 1 10 C-0.5625 8.3125 -0.5625 8.3125 -2 6 C-1.58974359 1.58974359 -1.58974359 1.58974359 0 0 Z " fill="#E80000" transform="translate(24,10)"/>
<path d="M0 0 C0.33 0 0.66 0 1 0 C1 2.64 1 5.28 1 8 C-0.32 7.67 -1.64 7.34 -3 7 C-3 6.01 -3 5.02 -3 4 C-2.01 4 -1.02 4 0 4 C0 2.68 0 1.36 0 0 Z " fill="#E90000" transform="translate(12,19)"/>
</svg>
