<?xml version="1.0" encoding="UTF-8"?>
<svg version="1.1" xmlns="http://www.w3.org/2000/svg" width="348" height="404">
<path d="M0 0 C114.84 0 229.68 0 348 0 C348 133.32 348 266.64 348 404 C233.16 404 118.32 404 0 404 C0 270.68 0 137.36 0 0 Z " fill="#2D3236" transform="translate(0,0)"/>
<path d="M0 0 C114.84 0 229.68 0 348 0 C348 133.32 348 266.64 348 404 C233.16 404 118.32 404 0 404 C0 270.68 0 137.36 0 0 Z M136.0703125 27.41796875 C126.45030048 39.41575733 123.54835709 51.89126645 123.68100548 66.90236282 C123.69965453 69.21817761 123.69662895 71.53310318 123.6879425 73.84896851 C123.66633827 80.42631162 123.67677437 87.00330366 123.71508789 93.58056641 C123.73714116 97.62542794 123.72940538 101.66941276 123.7046299 105.71424484 C123.70108761 107.23613393 123.70841579 108.75809654 123.72788048 110.27986526 C123.87114367 121.70541603 121.58472065 130.55607275 117 141 C116.39558529 142.47906533 115.79133449 143.9581977 115.1875 145.4375 C106.57387239 164.03033034 95.47245291 181.21821694 84.25 198.3125 C71.77733486 217.34502838 60.11632063 236.61222307 59.625 259.9375 C59.46601282 266.23141267 59.28091122 270.60746614 54.66015625 275.3046875 C52.73009268 277.275623 51.60312483 279.35215486 50.25 281.75 C44.83316254 289.86829368 34.45457545 290.78051789 25.515625 292.875 C20.42463516 294.50411675 16.97878504 296.53182243 14 301 C12.86855481 305.05854073 12.92580846 308.90740864 13.0078125 313.1015625 C13.02534735 314.49348206 13.04225382 315.88540965 13.05859375 317.27734375 C13.08932644 319.44277906 13.1246285 321.60779763 13.17138672 323.77294922 C13.33488154 331.78419547 13.14633692 339.03331187 10.69433594 346.76074219 C8.9296396 352.45194991 9.13362674 358.01456129 11.5 363.4375 C17.47809141 369.56504369 25.62305882 371.17027061 33.6875 373.0625 C34.75605225 373.32144043 35.82460449 373.58038086 36.92553711 373.84716797 C42.29609107 375.14309977 47.67628575 376.39597605 53.0625 377.625 C65.11812986 380.3936814 76.5933344 383.77669525 88.14819336 388.18237305 C100.42518895 392.80924694 111.9203564 395.4101804 124.5 390.24609375 C132.50958078 386.25381833 136.72317923 379.6958611 141 372 C141.33 371.01 141.66 370.02 142 369 C150.7019016 365.24458682 160.45069025 365.51625368 169.75 365.625 C170.45721191 365.62965271 171.16442383 365.63430542 171.89306641 365.63909912 C182.18195157 365.71855334 192.05474962 366.04872189 202 369 C202.70592285 369.19867676 203.4118457 369.39735352 204.13916016 369.60205078 C206.38158353 370.25016405 208.5963521 370.95490142 210.8125 371.6875 C211.48990234 371.89455566 212.16730469 372.10161133 212.86523438 372.31494141 C215.61101229 373.3196145 217.5988246 374.27636261 219.04272461 376.88085938 C219.828125 379.01171875 219.828125 379.01171875 220.40722656 381.0612793 C221.86333936 385.82363173 224.69758823 388.22866876 228.81640625 390.66796875 C239.11003389 395.98529051 247.87851951 397.50966417 259.25 394.75 C266.26624887 392.41945652 270.83302083 388.33376034 276.16137695 383.41772461 C279.74440616 380.17494525 283.4750786 377.21418079 287.3515625 374.33203125 C288.3801664 373.56406975 288.3801664 373.56406975 289.42955017 372.78059387 C298.01017612 366.43427279 306.91767992 360.57028419 315.82446289 354.69555664 C318.03482144 353.2349831 320.23837844 351.76456791 322.44140625 350.29296875 C323.42748619 349.64898384 323.42748619 349.64898384 324.43348694 348.99198914 C329.4788212 345.61082336 335.22968702 341.54062595 338 336 C338.70331396 332.14775763 338.88103397 328.57557169 336.9296875 325.0859375 C334.08253996 321.72372809 330.82458747 318.83506848 327.55859375 315.890625 C326.94387207 315.33213867 326.32915039 314.77365234 325.69580078 314.19824219 C324.46823459 313.09130021 323.22873236 311.99741037 321.97607422 310.91894531 C315.61016653 305.25059913 312.93714138 299.32397635 311.5 290.9375 C310.22209227 284.48579285 308.83514724 279.93291094 304.1875 275.125 C301.19334818 273.58515049 298.32559844 273.31976908 295 273 C295.32484375 271.92298828 295.32484375 271.92298828 295.65625 270.82421875 C302.79240991 244.29488351 294.07304047 219.98331706 281.04443359 196.87597656 C276.41598645 188.84410679 271.43518003 181.03544312 266.42871094 173.23583984 C263.89599014 169.27229626 261.42079935 165.27304372 258.93847656 161.27783203 C256.4846862 157.34142133 253.99401183 153.43120879 251.4765625 149.53515625 C237.99039783 128.63638335 232.13533942 113.59534067 231.82421875 88.5078125 C231.80626503 87.24622566 231.80626503 87.24622566 231.78794861 85.95915222 C231.73949273 82.47519739 231.69194529 78.99158922 231.67407227 75.50732422 C231.55642155 56.19450703 228.58030881 37.68037251 214.8125 23 C203.12454542 12.15714992 188.56864358 8.2168002 172.8359375 8.58984375 C158.57011625 10.1152116 145.89440491 17.08330523 136.0703125 27.41796875 Z " fill="#FBFBFB" transform="translate(0,0)"/>
<path d="M0 0 C0.1451001 0.71841064 0.2902002 1.43682129 0.43969727 2.17700195 C3.38314552 16.55483511 6.65734888 30.37384607 12.18603516 43.98535156 C12.96619372 45.91632591 13.71428317 47.8561109 14.44921875 49.8046875 C17.41062865 57.64842182 20.30842595 65.1780293 24.875 72.25 C34.90178836 88.27230531 41.24822695 106.90227809 41.0625 125.875 C41.05798828 126.75414062 41.05347656 127.63328125 41.04882812 128.5390625 C41.03712337 130.69273803 41.01919069 132.84637817 41 135 C42.65 135 44.3 135 46 135 C46.268125 134.175 46.53625 133.35 46.8125 132.5 C48 129 48 129 49.625 125.625 C53.49090188 115.40096507 51.6808022 100.95191078 47.84765625 91.01171875 C44.79135912 84.34882167 40.93819729 79.22245549 35.85546875 73.9609375 C34 72 34 72 33 70 C43.8351646 74.81562871 49.86690825 86.46061604 54 97 C54.34933594 97.70382813 54.69867188 98.40765625 55.05859375 99.1328125 C56.37271989 103.13517178 56.33935432 106.87529233 56.3125 111.0625 C56.31048584 111.90288818 56.30847168 112.74327637 56.30639648 113.60913086 C56.18844627 120.97784101 55.33796347 128.32407307 52 135 C53.19625 134.938125 54.3925 134.87625 55.625 134.8125 C62.21207676 134.8019943 68.68935792 136.17301464 75 138 C75.66 138.66 76.32 139.32 77 140 C75.741875 139.835 74.48375 139.67 73.1875 139.5 C54.59582548 137.44752864 54.59582548 137.44752864 37 142 C35.67941883 143.57966072 35.67941883 143.57966072 34.8125 145.4375 C32.86054685 149.27409756 32.62774451 149.42954322 28.9375 150.875 C26.63116444 151.8905771 25.29422503 152.51152453 23.97900391 154.69506836 C21.67301315 161.65465616 21.52071972 168.39983043 21.4375 175.6875 C21.40290972 178.06654283 21.36021903 180.44548461 21.30859375 182.82421875 C21.29626709 183.86666748 21.28394043 184.90911621 21.27124023 185.9831543 C20.59590095 193.49455627 17.3647121 198.00745913 12 203 C-6.06694691 217.23456423 -26.27270285 222.28826998 -49.05664062 219.77294922 C-60.80284761 218.13896998 -71.67984993 214.41375574 -81 207 C-80.2575 206.29875 -79.515 205.5975 -78.75 204.875 C-74.98822039 200.94223041 -72.28496528 197.99475695 -71.5 192.5 C-72.77740997 183.55813022 -80.22473306 179.16966982 -87 174 C-88.8489829 172.6594874 -90.70303077 171.32592835 -92.5625 170 C-105.65829316 160.58447967 -117.26654082 150.11707323 -121 134 C-121.42103751 130.28027752 -121.47714549 126.615948 -121.4375 122.875 C-121.43065186 121.87380127 -121.42380371 120.87260254 -121.41674805 119.84106445 C-121.0628604 103.29317209 -116.23815697 88.42708038 -105 76 C-104.01 75.505 -104.01 75.505 -103 75 C-104.44322159 78.01014789 -106.0991124 80.80014252 -107.875 83.625 C-117.48330519 99.63103035 -119.10412024 116.87596536 -115 135 C-114.67 135.66 -114.34 136.32 -114 137 C-113.92523438 136.02804687 -113.85046875 135.05609375 -113.7734375 134.0546875 C-111.77210087 111.79290597 -105.30054223 88.30595033 -91.5546875 70.34765625 C-89.04419892 66.55669234 -87.69134028 62.39028665 -86.17578125 58.125 C-85.14918832 55.39651381 -83.98672728 53.03195962 -82.5625 50.5 C-75.15309229 36.07728499 -72.72374411 18.81373784 -70 3 C-66.16260811 6.17048148 -62.60924803 9.22277075 -59.5625 13.1875 C-55.23295256 18.18607243 -51.50082982 19.64128981 -44.98828125 20.30859375 C-31.69278487 20.82782615 -23.22799354 15.97582666 -13 8 C-10.98571846 6.49121332 -8.96504295 4.99091815 -6.9375 3.5 C-6.03902344 2.8296875 -5.14054687 2.159375 -4.21484375 1.46875 C-2 0 -2 0 0 0 Z " fill="#F4F4F4" transform="translate(204,124)"/>
<path d="M0 0 C0.72703125 0.03222656 1.4540625 0.06445312 2.203125 0.09765625 C8.92515428 2.31427633 13.11128277 8.35151313 16.8125 14.0625 C17.76574949 15.4903702 18.72023551 16.91741545 19.67578125 18.34375 C20.17416504 19.09269531 20.67254883 19.84164063 21.18603516 20.61328125 C23.8953807 24.63965802 26.70324642 28.59658608 29.5 32.5625 C33.25002024 37.88839819 36.96370841 43.23330627 40.58984375 48.64453125 C46.80894519 57.91534412 52.97885189 66.89839786 60.48046875 75.18359375 C66.35649165 82.31370759 67.99091896 88.71374564 67.75 97.9375 C66.75151443 105.45856015 61.16678811 111.0241954 55.75 115.9375 C48.7868468 121.08073816 40.0625629 121.04571049 31.75 119.9375 C23.31685195 118.26986129 15.32861165 115.18986118 7.375 112 C-1.97027543 108.28842668 -11.76471368 106.46887173 -21.5703125 104.37890625 C-27.39099043 103.13754912 -33.17420752 101.79738099 -38.9375 100.3125 C-39.67202393 100.13066162 -40.40654785 99.94882324 -41.16333008 99.76147461 C-47.4233997 98.11907124 -53.98455964 96.09088597 -58 90.75 C-60.06963373 85.81677823 -58.31236921 81.5724436 -56.88012695 76.70654297 C-54.50638298 67.74876782 -55.0216496 58.62801765 -55.31152344 49.44677734 C-55.62226411 36.5710874 -55.62226411 36.5710874 -52.25 30.9375 C-46.57766437 26.51902243 -38.90538711 25.41760682 -32.05273438 23.87109375 C-25.65038623 22.323048 -21.95732504 20.49848756 -18.1875 14.84375 C-17.548125 13.7196875 -16.90875 12.595625 -16.25 11.4375 C-12.37437041 4.62389314 -8.40114414 -0.57280528 0 0 Z " fill="#FBC523" transform="translate(71.25,269.0625)"/>
<path d="M0 0 C0.17015625 1.134375 0.3403125 2.26875 0.515625 3.4375 C2.09825386 14.80801577 2.09825386 14.80801577 7 25 C11.32530887 28.07577519 14.77241022 28.59988735 20 28 C29.09540046 25.90106143 37.03106577 21.25402627 42.13134766 13.21728516 C42.87176995 11.93534537 43.60799664 10.65097348 44.34008789 9.36425781 C48.86475711 1.42016671 48.86475711 1.42016671 52.796875 -0.03515625 C58.48333886 -0.21189769 62.76136821 1.0792656 67 5 C69.86306454 9.01119702 70.86637874 13.07070614 71.875 17.8125 C74.78012515 30.17565371 81.35447817 37.80195987 91.3125 45.6875 C95.12943361 48.97183822 97.56536402 51.95721089 98.625 56.9375 C97.36701359 63.10163343 92.39112348 66.91799765 87.3828125 70.359375 C85.63671453 71.49960923 83.88378762 72.62943838 82.125 73.75 C80.23908013 74.98100026 78.35366809 76.21277885 76.46875 77.4453125 C75.540625 78.04762695 74.6125 78.64994141 73.65625 79.27050781 C60.799892 87.64132032 48.58662891 96.63105132 36.93359375 106.6171875 C28.27720819 113.96126982 20.64728449 118.40702876 9 118 C0.49810035 116.71629733 -5.72958271 114.41907262 -11.75 108.125 C-16.57145109 101.42854016 -17.74421002 93.05264585 -16.54931641 84.94018555 C-15.80109215 81.51262343 -14.99815549 78.10082226 -14.1875 74.6875 C-10.61088025 58.72974782 -10.04059273 42.79527073 -9.6706543 26.48901367 C-9.64466156 25.52295197 -9.61866882 24.55689026 -9.59188843 23.56155396 C-9.54521824 21.75062854 -9.5108694 19.93932345 -9.49160767 18.12789917 C-9.34911234 12.46702428 -8.39412501 8.15831303 -6 3 C-2.0625 0 -2.0625 0 0 0 Z " fill="#FBC523" transform="translate(237,275)"/>
<path d="M0 0 C4.95 0 9.9 0 15 0 C16 10.625 16 10.625 16 14 C22.93 14.495 22.93 14.495 30 15 C31.28571429 25.71428571 31.28571429 25.71428571 30 30 C25.36297289 31.5456757 20.87528349 31.05735628 16 31 C16 35.29 16 39.58 16 44 C22.93 44.495 22.93 44.495 30 45 C31.28571429 55.71428571 31.28571429 55.71428571 30 60 C25.36297289 61.5456757 20.87528349 61.05735628 16 61 C16 65.29 16 69.58 16 74 C22.93 74.495 22.93 74.495 30 75 C31.28571429 85.71428571 31.28571429 85.71428571 30 90 C25.36297289 91.5456757 20.87528349 91.05735628 16 91 C16 95.29 16 99.58 16 104 C22.93 104.495 22.93 104.495 30 105 C31.28571429 115.71428571 31.28571429 115.71428571 30 120 C25.36297289 121.5456757 20.87528349 121.05735628 16 121 C16 125.29 16 129.58 16 134 C20.62 134.33 25.24 134.66 30 135 C31.28571429 145.71428571 31.28571429 145.71428571 30 150 C25.36297289 151.5456757 20.87528349 151.05735628 16 151 C16 155.29 16 159.58 16 164 C20.62 164.33 25.24 164.66 30 165 C31.28571429 175.71428571 31.28571429 175.71428571 30 180 C25.36297289 181.5456757 20.87528349 181.05735628 16 181 C16 185.29 16 189.58 16 194 C22.25586848 194.63942151 22.25586848 194.63942151 27.5625 192 C28.2740625 191.01 28.2740625 191.01 29 190 C27.74438275 193.32669341 26.32527594 196.31038644 24.4609375 199.3359375 C23.96625977 200.14643555 23.47158203 200.95693359 22.96191406 201.79199219 C22.43823242 202.64438477 21.91455078 203.49677734 21.375 204.375 C16.27187059 212.76729188 11.49733472 221.26987967 7 230 C6.67 229.01 6.34 228.02 6 227 C2.49705129 225.28432339 2.49705129 225.28432339 -1 224 C-1.02736707 222.60427948 -1.04655989 221.20839779 -1.0625 219.8125 C-1.07410156 219.03519531 -1.08570313 218.25789062 -1.09765625 217.45703125 C-1 215 -1 215 0 210 C4.95 210 9.9 210 15 210 C14.67 205.38 14.34 200.76 14 196 C11.89625 196.061875 9.7925 196.12375 7.625 196.1875 C4.0390625 196.29296875 4.0390625 196.29296875 1 196 C-1.47729413 192.28405881 -1.33842541 189.29721562 -1 185 C-0.67 183.35 -0.34 181.7 0 180 C4.62 179.67 9.24 179.34 14 179 C14 174.71 14 170.42 14 166 C11.89625 166.061875 9.7925 166.12375 7.625 166.1875 C4.0390625 166.29296875 4.0390625 166.29296875 1 166 C-1.47729413 162.28405881 -1.33842541 159.29721562 -1 155 C-0.67 153.35 -0.34 151.7 0 150 C4.62 149.67 9.24 149.34 14 149 C14 144.71 14 140.42 14 136 C11.89625 136.061875 9.7925 136.12375 7.625 136.1875 C4.0390625 136.29296875 4.0390625 136.29296875 1 136 C-1.47729413 132.28405881 -1.33842541 129.29721562 -1 125 C-0.67 123.35 -0.34 121.7 0 120 C4.62 119.67 9.24 119.34 14 119 C14 114.71 14 110.42 14 106 C11.89625 106.061875 9.7925 106.12375 7.625 106.1875 C4.0390625 106.29296875 4.0390625 106.29296875 1 106 C-1.47729413 102.28405881 -1.33842541 99.29721562 -1 95 C-0.67 93.35 -0.34 91.7 0 90 C4.62 89.67 9.24 89.34 14 89 C14 84.71 14 80.42 14 76 C11.89625 76.061875 9.7925 76.12375 7.625 76.1875 C4.0390625 76.29296875 4.0390625 76.29296875 1 76 C-1.47729413 72.28405881 -1.33842541 69.29721562 -1 65 C-0.67 63.35 -0.34 61.7 0 60 C4.62 59.67 9.24 59.34 14 59 C14 54.71 14 50.42 14 46 C11.89625 46.061875 9.7925 46.12375 7.625 46.1875 C4.0390625 46.29296875 4.0390625 46.29296875 1 46 C-1.47729413 42.28405881 -1.33842541 39.29721562 -1 35 C-0.67 33.35 -0.34 31.7 0 30 C4.62 29.67 9.24 29.34 14 29 C14 24.71 14 20.42 14 16 C11.89625 16.061875 9.7925 16.12375 7.625 16.1875 C4.0390625 16.29296875 4.0390625 16.29296875 1 16 C-1.47729413 12.28405881 -1.33842541 9.29721562 -1 5 C-0.67 3.35 -0.34 1.7 0 0 Z " fill="#FBFBFB" transform="translate(60,0)"/>
<path d="M0 0 C0.33 0 0.66 0 1 0 C1.71495432 17.6740374 1.19296856 34.0009766 -3.04150391 51.22875977 C-5.30062465 60.93589871 -6.31793714 71.34938661 -1.06298828 80.29882812 C1.76266855 83.99859939 4.80043491 86.30691795 8.8125 88.625 C9.534375 89.07875 10.25625 89.5325 11 90 C11 90.66 11 91.32 11 92 C5.02127185 91.70106359 1.21056639 89.02203357 -3 85 C-5.06885604 82.24942922 -6.88452196 79.49255362 -7.15625 75.98046875 C-7.90657429 73.64119854 -7.90657429 73.64119854 -11.03515625 72.40234375 C-12.36938057 71.89201988 -13.71276785 71.40526929 -15.0625 70.9375 C-15.79146484 70.68145996 -16.52042969 70.42541992 -17.27148438 70.16162109 C-30.28781312 65.75078148 -42.62783318 64.71461952 -56.25 64.625 C-56.93723145 64.6169635 -57.62446289 64.608927 -58.33251953 64.60064697 C-71.4973162 64.41256542 -71.4973162 64.41256542 -84 68 C-85.7728054 70.42372747 -86.83412015 72.64712654 -87.94140625 75.43359375 C-90.79680104 82.35608224 -96.45341361 86.71387036 -103 90 C-116.94958477 95.52719397 -131.36822879 89.9752033 -144.4375 84.5625 C-154.42621745 80.45284375 -164.72855752 78.58696421 -175.29443359 76.54541016 C-181.28069424 75.33865088 -187.13861885 73.70795212 -193 72 C-194.03688965 71.70609375 -194.03688965 71.70609375 -195.09472656 71.40625 C-197.27589768 70.78499966 -199.45089349 70.14549975 -201.625 69.5 C-202.28886719 69.31050781 -202.95273438 69.12101562 -203.63671875 68.92578125 C-208.59638411 67.4083477 -212.36507086 65.44498466 -215.29296875 61.06640625 C-216.13962665 58.59191989 -216.30093989 56.55393759 -216.3125 53.9375 C-216.32925781 53.08027344 -216.34601563 52.22304688 -216.36328125 51.33984375 C-216.0364127 48.33476194 -215.39797103 46.01879724 -214.48828125 43.16015625 C-212.35355836 35.67373566 -212.70987689 28.19995113 -212.875 20.5 C-212.91018718 18.32225087 -212.9409041 16.14455958 -212.96633911 13.9666748 C-212.99085884 12.01216036 -213.02802641 10.05781657 -213.06591797 8.10351562 C-213 5 -213 5 -212 2 C-211.01 2 -210.02 2 -209 2 C-208.89920933 6.67319828 -208.82765352 11.3457299 -208.78027344 16.01977539 C-208.76047084 17.60126801 -208.73342109 19.1826907 -208.69824219 20.76391602 C-208.49004422 30.38082496 -208.94002029 39.04831697 -211.85345459 48.2842865 C-212.90388816 51.88640806 -213.18095598 54.38241188 -211.83349609 57.8449707 C-208.5008815 63.57964159 -203.23654869 64.7253687 -197.1015625 66.4921875 C-195.27855186 66.96295486 -193.45284961 67.42338566 -191.625 67.875 C-190.13528687 68.25615967 -190.13528687 68.25615967 -188.61547852 68.64501953 C-183.25814213 69.99926873 -177.88720825 71.26019916 -172.48828125 72.4375 C-159.80389508 75.21232769 -147.78931032 78.55769423 -135.6796875 83.265625 C-125.91124732 86.99349979 -115.3521906 89.09644692 -105.0546875 86.16015625 C-97.84159474 82.88448568 -92.38041963 77.49778657 -89 70.3125 C-86.92131446 63.60281884 -87.45458096 56.28983725 -90.42578125 49.96484375 C-93.78017811 44.55764527 -97.72019612 39.69734573 -102 35 C-101.505 34.01 -101.505 34.01 -101 33 C-97.2033797 33.61677947 -94.1088102 34.76483562 -90.625 36.375 C-72.89687861 43.83378278 -50.13809828 44.95696623 -31.88085938 38.21777344 C-21.09952778 33.72306317 -9.46497606 26.98874323 -3 17 C-2.29838638 14.26909844 -2.03707877 11.55597299 -1.8125 8.75 C-1.09110787 1.09110787 -1.09110787 1.09110787 0 0 Z " fill="#2D3236" transform="translate(226,301)"/>
<path d="M0 0 C0.76965088 0.26594971 1.53930176 0.53189941 2.33227539 0.8059082 C4.7907524 1.66541627 7.24011185 2.54693063 9.6875 3.4375 C10.94481934 3.89431152 10.94481934 3.89431152 12.22753906 4.36035156 C14.69905025 5.26749442 17.16331424 6.19155124 19.625 7.125 C20.3878833 7.40996338 21.1507666 7.69492676 21.93676758 7.98852539 C25.48997292 9.36766383 28.21475785 10.51213913 30.6875 13.4375 C31.37799241 16.83242101 31.24332021 20.02553433 30.6875 23.4375 C28.875 26.0625 28.875 26.0625 25.6875 28.4375 C24.88570313 29.04078125 24.08390625 29.6440625 23.2578125 30.265625 C20.42936433 32.36492647 17.56102025 34.40047621 14.6875 36.4375 C13.83414063 37.07429688 12.98078125 37.71109375 12.1015625 38.3671875 C2.47953751 45.43952764 -6.16852563 49.07168914 -18.3125 47.4375 C-27.59539869 44.9738568 -33.47545877 37.60932743 -39.3125 30.4375 C-39.6425 29.7775 -39.9725 29.1175 -40.3125 28.4375 C-36.30259223 29.98972236 -32.40201146 31.74127723 -28.49609375 33.53515625 C-18.41307039 37.7018439 -7.48749322 35.89007291 2.36328125 31.99609375 C7.4730524 29.60032561 12.0501999 26.63337872 16.6875 23.4375 C18.24460008 22.44976879 19.8065634 21.46962893 21.375 20.5 C23.0146875 19.4790625 23.0146875 19.4790625 24.6875 18.4375 C24.0275 18.1075 23.3675 17.7775 22.6875 17.4375 C21.88828125 18.01757812 21.0890625 18.59765625 20.265625 19.1953125 C10.66872779 26.06307365 0.69244923 33.02774449 -11.3125 34.4375 C-12.00472656 34.52 -12.69695312 34.6025 -13.41015625 34.6875 C-25.19912561 35.37215884 -35.69642823 29.60564694 -45.3125 23.4375 C-45.19141037 17.62519781 -43.51041044 14.6386317 -39.54296875 10.42578125 C-27.76530556 -0.07304636 -15.19799187 -5.39630322 0 0 Z " fill="#F8C523" transform="translate(174.3125,95.5625)"/>
<path d="M0 0 C4.95 0 9.9 0 15 0 C15 4.62 15 9.24 15 14 C18.28519475 15.09506492 20.73663415 15.09960608 24.1875 15.0625 C25.27417969 15.05347656 26.36085937 15.04445313 27.48046875 15.03515625 C28.31191406 15.02355469 29.14335937 15.01195312 30 15 C29.98839844 15.74765625 29.97679687 16.4953125 29.96484375 17.265625 C29.95582031 18.25046875 29.94679687 19.2353125 29.9375 20.25 C29.92589844 21.22453125 29.91429687 22.1990625 29.90234375 23.203125 C29.91085339 26.2342623 29.91085339 26.2342623 31 30 C35.62 30 40.24 30 45 30 C45 34.62 45 39.24 45 44 C48.28519475 45.09506492 50.73663415 45.09960608 54.1875 45.0625 C55.27417969 45.05347656 56.36085937 45.04445312 57.48046875 45.03515625 C58.72763672 45.01775391 58.72763672 45.01775391 60 45 C60.02685412 47.31243792 60.04632841 49.6249627 60.0625 51.9375 C60.07410156 53.22527344 60.08570313 54.51304688 60.09765625 55.83984375 C60 59 60 59 59 60 C54.33154772 60.14426614 49.67134047 60.04208415 45 60 C45 64.95 45 69.9 45 75 C42.69 75 40.38 75 38 75 C37.67 82.59 37.34 90.18 37 98 C36.67 98 36.34 98 36 98 C35.9906543 96.8668335 35.98130859 95.73366699 35.97167969 94.56616211 C35.93125715 90.28844474 35.86536512 86.01140788 35.79248047 81.73413086 C35.76456946 79.89665591 35.74320942 78.05906756 35.72900391 76.22143555 C35.57215496 57.0597226 32.9695765 38.16546417 19.3125 23.5 C14.84553848 19.33448987 10.11962103 16.64687045 4.56640625 14.15625 C2 13 2 13 -1 11 C-0.835 10.29875 -0.67 9.5975 -0.5 8.875 C0.17134117 5.50114731 0.17134117 5.50114731 0 0 Z " fill="#EDEDED" transform="translate(195,0)"/>
<path d="M0 0 C4.86557666 3.10639791 7.52629844 8.14139531 9.3125 13.5 C10.74555348 23.22299576 6.54498442 29.65127336 1.3125 37.5 C-0.9975 36.84 -3.3075 36.18 -5.6875 35.5 C-4.48368552 33.00638429 -3.23321278 30.81856917 -1.6875 28.5 C-0.9066982 23.19054779 -0.84320841 18.87197383 -3.6875 14.25 C-7.17542794 12.21537537 -8.93661766 11.99179468 -12.8203125 12.8125 C-16.13886199 14.0343927 -17.10683886 15.33867771 -18.6875 18.5 C-19.29028497 22.1630779 -19.55762681 25.79212043 -19.6875 29.5 C-21.9975 28.84 -24.3075 28.18 -26.6875 27.5 C-27.14936713 19.34034733 -26.15104371 11.05004902 -20.875 4.5 C-14.75799782 -1.76729708 -8.05499143 -3.27660668 0 0 Z " fill="#F4F4F4" transform="translate(197.6875,65.5)"/>
<path d="M0 0 C4.95 0 9.9 0 15 0 C16 10.625 16 10.625 16 14 C22.93 14.495 22.93 14.495 30 15 C31.28571429 25.71428571 31.28571429 25.71428571 30 30 C26.85069107 31.04976964 24.61185544 31.10131595 21.3125 31.0625 C20.31863281 31.05347656 19.32476562 31.04445313 18.30078125 31.03515625 C17.16189453 31.01775391 17.16189453 31.01775391 16 31 C13.89571616 25.87080814 13.78244334 21.4389165 14 16 C12.62714844 16.05220703 12.62714844 16.05220703 11.2265625 16.10546875 C10.03804687 16.13253906 8.84953125 16.15960937 7.625 16.1875 C6.44164062 16.22230469 5.25828125 16.25710937 4.0390625 16.29296875 C2.53472656 16.14794922 2.53472656 16.14794922 1 16 C-1.47729413 12.28405881 -1.33842541 9.29721562 -1 5 C-0.67 3.35 -0.34 1.7 0 0 Z " fill="#FCFCFC" transform="translate(210,0)"/>
<path d="M0 0 C42.66666667 0 85.33333333 0 128 0 C128.33 0.99 128.66 1.98 129 3 C128.34 3.99 127.68 4.98 127 6 C124.78611565 6.36914349 124.78611565 6.36914349 121.9760437 6.36076355 C120.38164459 6.36694954 120.38164459 6.36694954 118.7550354 6.3732605 C116.99853165 6.35708176 116.99853165 6.35708176 115.20654297 6.34057617 C113.97730103 6.34101425 112.74805908 6.34145233 111.48156738 6.34190369 C108.10554596 6.34016852 104.73007111 6.32509675 101.35414648 6.30418181 C97.82808375 6.28546082 94.30201418 6.2836682 90.77590942 6.28010559 C84.09645407 6.27077161 77.41714556 6.24613967 70.73775494 6.21605712 C63.13448822 6.18255507 55.53121458 6.16603769 47.92789245 6.15097082 C32.28517651 6.11959118 16.64260717 6.06680456 1 6 C1 5.01 1 4.02 1 3 C0.01 3.33 -0.98 3.66 -2 4 C-1.34 2.68 -0.68 1.36 0 0 Z " fill="#F9F9F9" transform="translate(104,211)"/>
<path d="M0 0 C0.33 0.99 0.66 1.98 1 3 C0.34 2.67 -0.32 2.34 -1 2 C-0.67 1.34 -0.34 0.68 0 0 Z M-147 1 C-99.48 1 -51.96 1 -3 1 C-3 1.66 -3 2.32 -3 3 C-2.01 3.495 -2.01 3.495 -1 4 C-1.66 4 -2.32 4 -3 4 C-3.33 4.66 -3.66 5.32 -4 6 C-50.86 6 -97.72 6 -146 6 C-146 5.34 -146 4.68 -146 4 C-146.99 4.33 -147.98 4.66 -149 5 C-148.34 3.68 -147.68 2.36 -147 1 Z " fill="#EFF0F0" transform="translate(243,234)"/>
<path d="M0 0 C0 4.62 0 9.24 0 14 C3.28519475 15.09506492 5.73663415 15.09960608 9.1875 15.0625 C10.27417969 15.05347656 11.36085938 15.04445312 12.48046875 15.03515625 C13.31191406 15.02355469 14.14335937 15.01195312 15 15 C15.02685412 17.31243792 15.04632841 19.6249627 15.0625 21.9375 C15.07410156 23.22527344 15.08570313 24.51304687 15.09765625 25.83984375 C15 29 15 29 14 30 C11.64686445 30.07271741 9.29166332 30.08370868 6.9375 30.0625 C5.64714844 30.05347656 4.35679687 30.04445312 3.02734375 30.03515625 C2.02832031 30.02355469 1.02929688 30.01195312 0 30 C0 31.65 0 33.3 0 35 C-3.14108302 31.52968165 -3.97109076 27.82703267 -4.9375 23.375 C-6.25579646 17.63875196 -7.84731771 12.36555491 -10.36328125 7.015625 C-11.11990666 4.62041817 -10.81683996 3.33985124 -10 1 C-3.375 0 -3.375 0 0 0 Z " fill="#EEEEEE" transform="translate(300,210)"/>
<path d="M0 0 C2.475 0.495 2.475 0.495 5 1 C4.67 15.52 4.34 30.04 4 45 C2.68 44.67 1.36 44.34 0 44 C0 39.38 0 34.76 0 30 C-4.62 30 -9.24 30 -14 30 C-15.05127001 24.74364995 -15.07115708 20.33678117 -15 15 C-10.38 15 -5.76 15 -1 15 C-0.24627901 11.23139506 0.11244419 8.43331415 0.0625 4.6875 C0.05347656 3.80449219 0.04445313 2.92148437 0.03515625 2.01171875 C0.02355469 1.34785156 0.01195313 0.68398438 0 0 Z " fill="#EDEDED" transform="translate(120,45)"/>
<path d="M0 0 C4.29 0.33 8.58 0.66 13 1 C11.66711616 6.56208822 9.56768465 10.9048073 6.5625 15.75 C6.16740234 16.40871094 5.77230469 17.06742188 5.36523438 17.74609375 C3.475063 20.84710702 1.58855696 23.47487326 -1 26 C-1.53625 26.721875 -2.0725 27.44375 -2.625 28.1875 C-6.19893411 30.91497603 -9.6557066 30.33417642 -14 30 C-15.32972073 25.01354726 -15.06829634 20.12222534 -15 15 C-10.38 15 -5.76 15 -1 15 C-0.24627901 11.23139506 0.11244419 8.43331415 0.0625 4.6875 C0.041875 3.140625 0.02125 1.59375 0 0 Z " fill="#EEEEEE" transform="translate(90,165)"/>
<path d="M0 0 C4.77584529 2.61534385 6.45793656 6.2596403 8.28515625 11.18359375 C9.45538058 15.7941497 9.3228912 20.2822008 9 25 C7.68 25.33 6.36 25.66 5 26 C4.90203125 25.25234375 4.8040625 24.5046875 4.703125 23.734375 C3.84548864 17.69584783 3.84548864 17.69584783 1.1875 12.3125 C-1.54350048 10.67389971 -2.87959492 10.27990652 -6 11 C-9.10769629 14.42918211 -9.40538088 17.64701774 -9.23046875 22.078125 C-8.92254604 24.64588729 -8.15359532 26.69280936 -7 29 C-6.62875 29.763125 -6.2575 30.52625 -5.875 31.3125 C-5.58625 31.869375 -5.2975 32.42625 -5 33 C-6.98 33.495 -6.98 33.495 -9 34 C-9.82011312 32.44148245 -10.63076213 30.87798284 -11.4375 29.3125 C-11.88996094 28.44238281 -12.34242188 27.57226562 -12.80859375 26.67578125 C-16.07164546 19.34728806 -15.76593695 12.10903129 -12.94921875 4.76171875 C-9.93130092 -0.83943738 -5.93234919 -1.54241079 0 0 Z " fill="#F1F1F1" transform="translate(144,68)"/>
<path d="M0 0 C4.95 0 9.9 0 15 0 C14.95117188 3.66210938 14.95117188 3.66210938 14.90234375 7.32421875 C14.99956517 9.98808557 15.40635667 12.40573189 16 15 C17.39025391 14.98259766 17.39025391 14.98259766 18.80859375 14.96484375 C20.00613281 14.95582031 21.20367187 14.94679688 22.4375 14.9375 C23.63246094 14.92589844 24.82742188 14.91429687 26.05859375 14.90234375 C29 15 29 15 30 16 C30.07271741 18.35313555 30.08370868 20.70833668 30.0625 23.0625 C30.05347656 24.35285156 30.04445313 25.64320313 30.03515625 26.97265625 C30.02355469 27.97167969 30.01195312 28.97070312 30 30 C29.21625 29.938125 28.4325 29.87625 27.625 29.8125 C26.325625 29.9053125 26.325625 29.9053125 25 30 C24.34 30.99 23.68 31.98 23 33 C22.896875 31.906875 22.79375 30.81375 22.6875 29.6875 C20.5194318 20.89044629 10.24984763 14.00195229 3.55859375 8.4375 C2 7 2 7 0 4 C0 2.68 0 1.36 0 0 Z " fill="#EDEDED" transform="translate(315,300)"/>
<path d="M0 0 C5.97400749 -0.29950986 11.11649019 0.77601688 16.875 2.3125 C17.74125 2.52583984 18.6075 2.73917969 19.5 2.95898438 C20.32242188 3.17490234 21.14484375 3.39082031 21.9921875 3.61328125 C22.73839355 3.80704346 23.48459961 4.00080566 24.25341797 4.20043945 C24.82979004 4.46429443 25.40616211 4.72814941 26 5 C26.33 5.99 26.66 6.98 27 8 C27.99 8 28.98 8 30 8 C30.02686553 9.97909398 30.04633375 11.95828971 30.0625 13.9375 C30.07410156 15.03964844 30.08570312 16.14179688 30.09765625 17.27734375 C30 20 30 20 29 21 C24.33154772 21.14426614 19.67134047 21.04208415 15 21 C15 16.05 15 11.1 15 6 C10.05 6 5.1 6 0 6 C0 4.02 0 2.04 0 0 Z " fill="#EDEDEE" transform="translate(15,369)"/>
<path d="M0 0 C3.63 0 7.26 0 11 0 C10.98839844 0.91523438 10.97679687 1.83046875 10.96484375 2.7734375 C10.95582031 3.96195313 10.94679687 5.15046875 10.9375 6.375 C10.92589844 7.55835938 10.91429687 8.74171875 10.90234375 9.9609375 C10.78533407 12.91921521 10.78533407 12.91921521 12 15 C16.62 15 21.24 15 26 15 C26 19.95 26 24.9 26 30 C19.9453125 30.1953125 19.9453125 30.1953125 18 30 C13.69810551 25.69810551 10.28990923 20.69839796 6.875 15.6875 C6.43285156 15.06166016 5.99070313 14.43582031 5.53515625 13.79101562 C2.47303695 9.28109671 1.05714394 5.35104883 0 0 Z " fill="#EEEEEE" transform="translate(244,135)"/>
<path d="M0 0 C2.31 0.33 4.62 0.66 7 1 C6.34909028 4.00419872 5.68230913 7.00286296 5 10 C4.75894531 11.06734375 4.51789063 12.1346875 4.26953125 13.234375 C3.88861328 14.85085937 3.88861328 14.85085937 3.5 16.5 C3.2628125 17.5209375 3.025625 18.541875 2.78125 19.59375 C2.5234375 20.3878125 2.265625 21.181875 2 22 C1.34 22.33 0.68 22.66 0 23 C-0.40729228 25.32156597 -0.74438677 27.6568787 -1 30 C-5.29 30 -9.58 30 -14 30 C-15.05127001 24.74364995 -15.07115708 20.33678117 -15 15 C-10.38 15 -5.76 15 -1 15 C-0.28832014 9.92928099 0.10662326 5.11791642 0 0 Z " fill="#EEEEEE" transform="translate(60,225)"/>
<path d="M0 0 C4.95 0 9.9 0 15 0 C15.72589219 5.32320939 16.2222084 9.70376361 15 15 C15.99 15 16.98 15 18 15 C18 19.95 18 24.9 18 30 C17.01 30 16.02 30 15 30 C14.67 25.38 14.34 20.76 14 16 C9.71 16 5.42 16 1 16 C-1.10399913 10.18306122 -0.94056912 6.11369931 0 0 Z " fill="#FCFCFC" transform="translate(330,300)"/>
<path d="M0 0 C5.28 0 10.56 0 16 0 C16.09765625 10.83984375 16.09765625 10.83984375 16 14 C15 15 15 15 11.83984375 15.09765625 C9.90818359 15.08025391 9.90818359 15.08025391 7.9375 15.0625 C6.64714844 15.05347656 5.35679687 15.04445313 4.02734375 15.03515625 C3.02832031 15.02355469 2.02929688 15.01195312 1 15 C1 15.66 1 16.32 1 17 C-0.65 17 -2.3 17 -4 17 C-3.71561048 15.10306139 -3.42216208 13.20747973 -3.125 11.3125 C-2.96257812 10.25675781 -2.80015625 9.20101563 -2.6328125 8.11328125 C-2 5 -2 5 0 0 Z " fill="#EEEEEE" transform="translate(299,255)"/>
<path d="M0 0 C1.35078309 2.70156619 0.62876542 4.07762489 0 7 C-0.1400363 8.76452396 -0.2440078 10.53219044 -0.31640625 12.30078125 C-0.35830078 13.27724609 -0.40019531 14.25371094 -0.44335938 15.25976562 C-0.48267578 16.26716797 -0.52199219 17.27457031 -0.5625 18.3125 C-0.60568359 19.33923828 -0.64886719 20.36597656 -0.69335938 21.42382812 C-0.79906825 23.94909569 -0.90116468 26.47445562 -1 29 C-1.33 29 -1.66 29 -2 29 C-2 25.04 -2 21.08 -2 17 C-4.6915625 17.0309375 -4.6915625 17.0309375 -7.4375 17.0625 C-9.29166122 17.0838122 -11.14712498 17.07226502 -13 17 C-14 16 -14 16 -14.09765625 12.62109375 C-14.09098369 11.22652923 -14.07902532 9.83198257 -14.0625 8.4375 C-14.05798828 7.72658203 -14.05347656 7.01566406 -14.04882812 6.28320312 C-14.03700864 4.52209987 -14.01907263 2.76103964 -14 1 C-9.38 0.67 -4.76 0.34 0 0 Z " fill="#FBFBFB" transform="translate(14,299)"/>
<path d="M0 0 C4.95 0 9.9 0 15 0 C15 4.95 15 9.9 15 15 C10.38 15 5.76 15 1 15 C-0.05127001 9.74364995 -0.07115708 5.33678117 0 0 Z " fill="#EEEEEE" transform="translate(315,0)"/>
<path d="M0 0 C4.95 0 9.9 0 15 0 C15 4.95 15 9.9 15 15 C10.38 15 5.76 15 1 15 C-0.05127001 9.74364995 -0.07115708 5.33678117 0 0 Z " fill="#EEEEEE" transform="translate(285,0)"/>
<path d="M0 0 C4.95 0 9.9 0 15 0 C15 4.95 15 9.9 15 15 C10.38 15 5.76 15 1 15 C-0.05127001 9.74364995 -0.07115708 5.33678117 0 0 Z " fill="#EEEEEE" transform="translate(255,0)"/>
<path d="M0 0 C4.95 0 9.9 0 15 0 C15 4.95 15 9.9 15 15 C10.38 15 5.76 15 1 15 C-0.05127001 9.74364995 -0.07115708 5.33678117 0 0 Z " fill="#EEEEEE" transform="translate(225,0)"/>
<path d="M0 0 C4.95 0 9.9 0 15 0 C15 4.95 15 9.9 15 15 C10.38 15 5.76 15 1 15 C-0.05127001 9.74364995 -0.07115708 5.33678117 0 0 Z " fill="#EEEEEE" transform="translate(135,0)"/>
<path d="M0 0 C4.95 0 9.9 0 15 0 C15 4.95 15 9.9 15 15 C10.38 15 5.76 15 1 15 C-0.05127001 9.74364995 -0.07115708 5.33678117 0 0 Z " fill="#EEEEEE" transform="translate(105,0)"/>
<path d="M0 0 C4.95 0 9.9 0 15 0 C15 4.95 15 9.9 15 15 C10.38 15 5.76 15 1 15 C-0.05127001 9.74364995 -0.07115708 5.33678117 0 0 Z " fill="#EEEEEE" transform="translate(75,0)"/>
<path d="M0 0 C4.95 0 9.9 0 15 0 C15 4.95 15 9.9 15 15 C10.38 15 5.76 15 1 15 C-0.05127001 9.74364995 -0.07115708 5.33678117 0 0 Z " fill="#EEEEEE" transform="translate(45,0)"/>
<path d="M0 0 C4.95 0 9.9 0 15 0 C15 4.95 15 9.9 15 15 C10.38 15 5.76 15 1 15 C-0.05127001 9.74364995 -0.07115708 5.33678117 0 0 Z " fill="#EEEEEE" transform="translate(15,0)"/>
<path d="M0 0 C1.27875 0.28875 2.5575 0.5775 3.875 0.875 C11.83344439 2.48508991 19.93059295 3.17372085 28 4 C28 4.33 28 4.66 28 5 C23.37078475 6.0161692 19.65537393 5.83796731 15 5 C15.185625 6.093125 15.37125 7.18625 15.5625 8.3125 C16 12 16 12 15 15 C10.05 15 5.1 15 0 15 C-0.86893638 8.91744533 -0.90746463 5.74727601 0 0 Z " fill="#FBFBFB" transform="translate(90,389)"/>
<path d="M0 0 C1.1859375 0.00257813 2.371875 0.00515625 3.59375 0.0078125 C4.7796875 0.00523437 5.965625 0.00265625 7.1875 0 C10.09375 0.1328125 10.09375 0.1328125 11.09375 1.1328125 C11.23801614 5.80126478 11.13583415 10.46147203 11.09375 15.1328125 C6.14375 15.1328125 1.19375 15.1328125 -3.90625 15.1328125 C-4.00390625 4.29296875 -4.00390625 4.29296875 -3.90625 1.1328125 C-2.90625 0.1328125 -2.90625 0.1328125 0 0 Z " fill="#EEEEEE" transform="translate(333.90625,344.8671875)"/>
<path d="M0 0 C0 3.51479702 -0.65021767 4.18178057 -2.6875 6.9375 C-13.10136907 22.12746978 -14.91876061 39.50058427 -11.71875 57.3359375 C-11.02485244 59.90788388 -10.16168111 61.75847932 -8.75 64 C-8.1725 64.99 -7.595 65.98 -7 67 C-7.75 69.4375 -7.75 69.4375 -9 71 C-9.66 70.01 -10.32 69.02 -11 68 C-12.485 68.495 -12.485 68.495 -14 69 C-16.54868545 61.8559133 -17.51772036 55.44459297 -17.4375 47.875 C-17.43065186 46.87380127 -17.42380371 45.87260254 -17.41674805 44.84106445 C-17.05825486 28.07781561 -12.11061675 12.11061675 0 0 Z " fill="#EEEEEF" transform="translate(100,199)"/>
<path d="M0 0 C10.83984375 -0.09765625 10.83984375 -0.09765625 14 0 C15 1 15 1 15.09765625 4.16015625 C15.04882812 9.58007812 15.04882812 9.58007812 15 15 C10.05 15 5.1 15 0 15 C0 10.05 0 5.1 0 0 Z " fill="#EEEEEE" transform="translate(330,375)"/>
<path d="M0 0 C10.83984375 -0.09765625 10.83984375 -0.09765625 14 0 C15 1 15 1 15.1328125 3.90625 C15.13023438 5.0921875 15.12765625 6.278125 15.125 7.5 C15.12757812 8.6859375 15.13015625 9.871875 15.1328125 11.09375 C15 14 15 14 14 15 C9.33154772 15.14426614 4.67134047 15.04208415 0 15 C0 10.05 0 5.1 0 0 Z " fill="#EEEEEE" transform="translate(0,375)"/>
<path d="M0 0 C10.83984375 -0.09765625 10.83984375 -0.09765625 14 0 C15 1 15 1 15.09765625 4.16015625 C15.04882812 9.58007812 15.04882812 9.58007812 15 15 C10.05 15 5.1 15 0 15 C0 10.05 0 5.1 0 0 Z " fill="#EEEEEE" transform="translate(330,285)"/>
<path d="M0 0 C10.83984375 -0.09765625 10.83984375 -0.09765625 14 0 C15 1 15 1 15.09765625 4.16015625 C15.04882812 9.58007812 15.04882812 9.58007812 15 15 C10.05 15 5.1 15 0 15 C0 10.05 0 5.1 0 0 Z " fill="#EEEEEE" transform="translate(330,255)"/>
<path d="M0 0 C4.95 0 9.9 0 15 0 C15.09765625 10.83984375 15.09765625 10.83984375 15 14 C14 15 14 15 10.83984375 15.09765625 C7.2265625 15.06510417 3.61328125 15.03255208 0 15 C0 10.05 0 5.1 0 0 Z " fill="#EEEEEE" transform="translate(0,255)"/>
<path d="M0 0 C10.83984375 -0.09765625 10.83984375 -0.09765625 14 0 C15 1 15 1 15.09765625 4.16015625 C15.04882812 9.58007812 15.04882812 9.58007812 15 15 C10.05 15 5.1 15 0 15 C0 10.05 0 5.1 0 0 Z " fill="#EEEEEE" transform="translate(330,225)"/>
<path d="M0 0 C4.95 0 9.9 0 15 0 C15.09765625 10.83984375 15.09765625 10.83984375 15 14 C14 15 14 15 10.83984375 15.09765625 C7.2265625 15.06510417 3.61328125 15.03255208 0 15 C0 10.05 0 5.1 0 0 Z " fill="#EEEEEE" transform="translate(0,225)"/>
<path d="M0 0 C10.83984375 -0.09765625 10.83984375 -0.09765625 14 0 C15 1 15 1 15.09765625 4.16015625 C15.04882812 9.58007812 15.04882812 9.58007812 15 15 C10.05 15 5.1 15 0 15 C0 10.05 0 5.1 0 0 Z " fill="#EEEEEE" transform="translate(330,195)"/>
<path d="M0 0 C4.95 0 9.9 0 15 0 C15.09765625 10.83984375 15.09765625 10.83984375 15 14 C14 15 14 15 10.83984375 15.09765625 C7.2265625 15.06510417 3.61328125 15.03255208 0 15 C0 10.05 0 5.1 0 0 Z " fill="#EEEEEE" transform="translate(0,195)"/>
<path d="M0 0 C10.83984375 -0.09765625 10.83984375 -0.09765625 14 0 C15 1 15 1 15.09765625 4.16015625 C15.04882812 9.58007812 15.04882812 9.58007812 15 15 C10.05 15 5.1 15 0 15 C0 10.05 0 5.1 0 0 Z " fill="#EEEEEE" transform="translate(330,165)"/>
<path d="M0 0 C4.95 0 9.9 0 15 0 C15.09765625 10.83984375 15.09765625 10.83984375 15 14 C14 15 14 15 10.83984375 15.09765625 C7.2265625 15.06510417 3.61328125 15.03255208 0 15 C0 10.05 0 5.1 0 0 Z " fill="#EEEEEE" transform="translate(0,165)"/>
<path d="M0 0 C10.83984375 -0.09765625 10.83984375 -0.09765625 14 0 C15 1 15 1 15.09765625 4.16015625 C15.04882812 9.58007812 15.04882812 9.58007812 15 15 C10.05 15 5.1 15 0 15 C0 10.05 0 5.1 0 0 Z " fill="#EEEEEE" transform="translate(330,135)"/>
<path d="M0 0 C4.95 0 9.9 0 15 0 C15.09765625 10.83984375 15.09765625 10.83984375 15 14 C14 15 14 15 10.83984375 15.09765625 C7.2265625 15.06510417 3.61328125 15.03255208 0 15 C0 10.05 0 5.1 0 0 Z " fill="#EEEEEE" transform="translate(0,135)"/>
<path d="M0 0 C10.83984375 -0.09765625 10.83984375 -0.09765625 14 0 C15 1 15 1 15.09765625 4.16015625 C15.04882812 9.58007812 15.04882812 9.58007812 15 15 C10.05 15 5.1 15 0 15 C0 10.05 0 5.1 0 0 Z " fill="#EEEEEE" transform="translate(330,105)"/>
<path d="M0 0 C4.95 0 9.9 0 15 0 C15.09765625 10.83984375 15.09765625 10.83984375 15 14 C14 15 14 15 10.83984375 15.09765625 C7.2265625 15.06510417 3.61328125 15.03255208 0 15 C0 10.05 0 5.1 0 0 Z " fill="#EEEEEE" transform="translate(0,105)"/>
<path d="M0 0 C4.95 0 9.9 0 15 0 C15 4.95 15 9.9 15 15 C10.38 15 5.76 15 1 15 C-0.05127001 9.74364995 -0.07115708 5.33678117 0 0 Z " fill="#EEEEEE" transform="translate(105,90)"/>
<path d="M0 0 C10.83984375 -0.09765625 10.83984375 -0.09765625 14 0 C15 1 15 1 15.09765625 4.16015625 C15.04882812 9.58007812 15.04882812 9.58007812 15 15 C10.05 15 5.1 15 0 15 C0 10.05 0 5.1 0 0 Z " fill="#EEEEEE" transform="translate(330,75)"/>
<path d="M0 0 C4.95 0 9.9 0 15 0 C15.09765625 10.83984375 15.09765625 10.83984375 15 14 C14 15 14 15 10.83984375 15.09765625 C7.2265625 15.06510417 3.61328125 15.03255208 0 15 C0 10.05 0 5.1 0 0 Z " fill="#EEEEEE" transform="translate(0,75)"/>
<path d="M0 0 C4.95 0 9.9 0 15 0 C15.09765625 10.83984375 15.09765625 10.83984375 15 14 C14 15 14 15 10.83984375 15.09765625 C7.2265625 15.06510417 3.61328125 15.03255208 0 15 C0 10.05 0 5.1 0 0 Z " fill="#EEEEEE" transform="translate(0,45)"/>
<path d="M0 0 C4.95 0 9.9 0 15 0 C15 4.95 15 9.9 15 15 C10.05 15 5.1 15 0 15 C0 10.05 0 5.1 0 0 Z " fill="#EEEEEE" transform="translate(330,15)"/>
<path d="M0 0 C4.95 0 9.9 0 15 0 C15.09765625 10.83984375 15.09765625 10.83984375 15 14 C14 15 14 15 10.83984375 15.09765625 C7.2265625 15.06510417 3.61328125 15.03255208 0 15 C0 10.05 0 5.1 0 0 Z " fill="#EEEEEE" transform="translate(0,15)"/>
<path d="M0 0 C4.95 0 9.9 0 15 0 C15.125 12.75 15.125 12.75 14 15 C9.38 15 4.76 15 0 15 C0 10.05 0 5.1 0 0 Z " fill="#EEEEEE" transform="translate(0,285)"/>
<path d="M0 0 C4.95 0 9.9 0 15 0 C15 4.95 15 9.9 15 15 C10.05 15 5.1 15 0 15 C0 10.05 0 5.1 0 0 Z " fill="#EEEEEE" transform="translate(60,195)"/>
<path d="M0 0 C4.95 0 9.9 0 15 0 C15.09765625 10.83984375 15.09765625 10.83984375 15 14 C14 15 14 15 10.83984375 15.09765625 C7.2265625 15.06510417 3.61328125 15.03255208 0 15 C0 10.05 0 5.1 0 0 Z " fill="#EEEEEE" transform="translate(240,105)"/>
<path d="M0 0 C4.95 0 9.9 0 15 0 C15.09765625 10.83984375 15.09765625 10.83984375 15 14 C14 15 14 15 10.83984375 15.09765625 C7.2265625 15.06510417 3.61328125 15.03255208 0 15 C0 10.05 0 5.1 0 0 Z " fill="#EEEEEE" transform="translate(180,375)"/>
<path d="M0 0 C4.95 0 9.9 0 15 0 C15.09765625 10.83984375 15.09765625 10.83984375 15 14 C14 15 14 15 10.83984375 15.09765625 C7.2265625 15.06510417 3.61328125 15.03255208 0 15 C0 10.05 0 5.1 0 0 Z " fill="#EEEEEE" transform="translate(150,375)"/>
<path d="M0 0 C4.95 0 9.9 0 15 0 C15 4.95 15 9.9 15 15 C10.05 15 5.1 15 0 15 C0 10.05 0 5.1 0 0 Z " fill="#EEEEEE" transform="translate(315,360)"/>
<path d="M0 0 C4.95 0 9.9 0 15 0 C15 4.95 15 9.9 15 15 C10.05 15 5.1 15 0 15 C0 10.05 0 5.1 0 0 Z " fill="#EEEEEE" transform="translate(315,270)"/>
<path d="M0 0 C4.95 0 9.9 0 15 0 C15 4.95 15 9.9 15 15 C10.05 15 5.1 15 0 15 C0 10.05 0 5.1 0 0 Z " fill="#EEEEEE" transform="translate(285,180)"/>
<path d="M0 0 C4.95 0 9.9 0 15 0 C15.09765625 10.83984375 15.09765625 10.83984375 15 14 C14 15 14 15 10.83984375 15.09765625 C7.2265625 15.06510417 3.61328125 15.03255208 0 15 C0 10.05 0 5.1 0 0 Z " fill="#EEEEEE" transform="translate(240,75)"/>
<path d="M0 0 C10.83984375 -0.09765625 10.83984375 -0.09765625 14 0 C15 1 15 1 15.1328125 3.90625 C15.13023437 5.0921875 15.12765625 6.278125 15.125 7.5 C15.12757813 8.6859375 15.13015625 9.871875 15.1328125 11.09375 C15 14 15 14 14 15 C9.33154772 15.14426614 4.67134047 15.04208415 0 15 C0 10.05 0 5.1 0 0 Z " fill="#EEEEEE" transform="translate(300,375)"/>
<path d="M0 0 C4.95 0 9.9 0 15 0 C15 4.95 15 9.9 15 15 C10.38 15 5.76 15 1 15 C-0.05127001 9.74364995 -0.07115708 5.33678117 0 0 Z " fill="#EEEEEE" transform="translate(15,270)"/>
<path d="M0 0 C4.95 0 9.9 0 15 0 C15.09765625 10.83984375 15.09765625 10.83984375 15 14 C14 15 14 15 10.83984375 15.09765625 C7.2265625 15.06510417 3.61328125 15.03255208 0 15 C0 10.05 0 5.1 0 0 Z " fill="#EEEEEE" transform="translate(30,255)"/>
<path d="M0 0 C4.95 0 9.9 0 15 0 C15 4.95 15 9.9 15 15 C10.38 15 5.76 15 1 15 C-0.05127001 9.74364995 -0.07115708 5.33678117 0 0 Z " fill="#EEEEEE" transform="translate(315,240)"/>
<path d="M0 0 C4.95 0 9.9 0 15 0 C15 4.95 15 9.9 15 15 C10.38 15 5.76 15 1 15 C-0.05127001 9.74364995 -0.07115708 5.33678117 0 0 Z " fill="#EEEEEE" transform="translate(15,240)"/>
<path d="M0 0 C4.95 0 9.9 0 15 0 C15.09765625 10.83984375 15.09765625 10.83984375 15 14 C14 15 14 15 10.83984375 15.09765625 C7.2265625 15.06510417 3.61328125 15.03255208 0 15 C0 10.05 0 5.1 0 0 Z " fill="#EEEEEE" transform="translate(30,225)"/>
<path d="M0 0 C4.95 0 9.9 0 15 0 C15 4.95 15 9.9 15 15 C10.38 15 5.76 15 1 15 C-0.05127001 9.74364995 -0.07115708 5.33678117 0 0 Z " fill="#EEEEEE" transform="translate(315,210)"/>
<path d="M0 0 C4.95 0 9.9 0 15 0 C15 4.95 15 9.9 15 15 C10.38 15 5.76 15 1 15 C-0.05127001 9.74364995 -0.07115708 5.33678117 0 0 Z " fill="#EEEEEE" transform="translate(45,210)"/>
<path d="M0 0 C4.95 0 9.9 0 15 0 C15 4.95 15 9.9 15 15 C10.38 15 5.76 15 1 15 C-0.05127001 9.74364995 -0.07115708 5.33678117 0 0 Z " fill="#EEEEEE" transform="translate(15,210)"/>
<path d="M0 0 C4.95 0 9.9 0 15 0 C15.09765625 10.83984375 15.09765625 10.83984375 15 14 C14 15 14 15 10.83984375 15.09765625 C7.2265625 15.06510417 3.61328125 15.03255208 0 15 C0 10.05 0 5.1 0 0 Z " fill="#EEEEEE" transform="translate(300,195)"/>
<path d="M0 0 C4.95 0 9.9 0 15 0 C15.09765625 10.83984375 15.09765625 10.83984375 15 14 C14 15 14 15 10.83984375 15.09765625 C7.2265625 15.06510417 3.61328125 15.03255208 0 15 C0 10.05 0 5.1 0 0 Z " fill="#EEEEEE" transform="translate(30,195)"/>
<path d="M0 0 C4.95 0 9.9 0 15 0 C15 4.95 15 9.9 15 15 C10.38 15 5.76 15 1 15 C-0.05127001 9.74364995 -0.07115708 5.33678117 0 0 Z " fill="#EEEEEE" transform="translate(315,180)"/>
<path d="M0 0 C4.95 0 9.9 0 15 0 C15 4.95 15 9.9 15 15 C10.38 15 5.76 15 1 15 C-0.05127001 9.74364995 -0.07115708 5.33678117 0 0 Z " fill="#EEEEEE" transform="translate(45,180)"/>
<path d="M0 0 C4.95 0 9.9 0 15 0 C15 4.95 15 9.9 15 15 C10.38 15 5.76 15 1 15 C-0.05127001 9.74364995 -0.07115708 5.33678117 0 0 Z " fill="#EEEEEE" transform="translate(15,180)"/>
<path d="M0 0 C4.95 0 9.9 0 15 0 C15.09765625 10.83984375 15.09765625 10.83984375 15 14 C14 15 14 15 10.83984375 15.09765625 C7.2265625 15.06510417 3.61328125 15.03255208 0 15 C0 10.05 0 5.1 0 0 Z " fill="#EEEEEE" transform="translate(300,165)"/>
<path d="M0 0 C4.95 0 9.9 0 15 0 C15.09765625 10.83984375 15.09765625 10.83984375 15 14 C13.19253866 15.80746134 10.49554219 15.17303483 8.0625 15.1875 C6.98097656 15.20167969 5.89945312 15.21585938 4.78515625 15.23046875 C2 15 2 15 0 13 C-0.27917421 8.65604929 -0.08542138 4.35649033 0 0 Z " fill="#EEEEEE" transform="translate(270,165)"/>
<path d="M0 0 C4.95 0 9.9 0 15 0 C15.09765625 10.83984375 15.09765625 10.83984375 15 14 C14 15 14 15 10.83984375 15.09765625 C7.2265625 15.06510417 3.61328125 15.03255208 0 15 C0 10.05 0 5.1 0 0 Z " fill="#EEEEEE" transform="translate(60,165)"/>
<path d="M0 0 C4.95 0 9.9 0 15 0 C15.09765625 10.83984375 15.09765625 10.83984375 15 14 C14 15 14 15 10.83984375 15.09765625 C7.2265625 15.06510417 3.61328125 15.03255208 0 15 C0 10.05 0 5.1 0 0 Z " fill="#EEEEEE" transform="translate(30,165)"/>
<path d="M0 0 C4.95 0 9.9 0 15 0 C15 4.95 15 9.9 15 15 C10.38 15 5.76 15 1 15 C-0.05127001 9.74364995 -0.07115708 5.33678117 0 0 Z " fill="#EEEEEE" transform="translate(315,150)"/>
<path d="M0 0 C4.95 0 9.9 0 15 0 C15 4.95 15 9.9 15 15 C10.38 15 5.76 15 1 15 C-0.05127001 9.74364995 -0.07115708 5.33678117 0 0 Z " fill="#EEEEEE" transform="translate(285,150)"/>
<path d="M0 0 C4.95 0 9.9 0 15 0 C15 4.95 15 9.9 15 15 C10.38 15 5.76 15 1 15 C-0.05127001 9.74364995 -0.07115708 5.33678117 0 0 Z " fill="#EEEEEE" transform="translate(75,150)"/>
<path d="M0 0 C4.95 0 9.9 0 15 0 C15 4.95 15 9.9 15 15 C10.38 15 5.76 15 1 15 C-0.05127001 9.74364995 -0.07115708 5.33678117 0 0 Z " fill="#EEEEEE" transform="translate(45,150)"/>
<path d="M0 0 C4.95 0 9.9 0 15 0 C15 4.95 15 9.9 15 15 C10.38 15 5.76 15 1 15 C-0.05127001 9.74364995 -0.07115708 5.33678117 0 0 Z " fill="#EEEEEE" transform="translate(15,150)"/>
<path d="M0 0 C4.95 0 9.9 0 15 0 C15.09765625 10.83984375 15.09765625 10.83984375 15 14 C14 15 14 15 10.83984375 15.09765625 C7.2265625 15.06510417 3.61328125 15.03255208 0 15 C0 10.05 0 5.1 0 0 Z " fill="#EEEEEE" transform="translate(300,135)"/>
<path d="M0 0 C4.95 0 9.9 0 15 0 C15.09765625 10.83984375 15.09765625 10.83984375 15 14 C14 15 14 15 10.83984375 15.09765625 C7.2265625 15.06510417 3.61328125 15.03255208 0 15 C0 10.05 0 5.1 0 0 Z " fill="#EEEEEE" transform="translate(270,135)"/>
<path d="M0 0 C4.95 0 9.9 0 15 0 C15.09765625 10.83984375 15.09765625 10.83984375 15 14 C14 15 14 15 10.83984375 15.09765625 C7.2265625 15.06510417 3.61328125 15.03255208 0 15 C0 10.05 0 5.1 0 0 Z " fill="#EEEEEE" transform="translate(90,135)"/>
<path d="M0 0 C4.95 0 9.9 0 15 0 C15.09765625 10.83984375 15.09765625 10.83984375 15 14 C14 15 14 15 10.83984375 15.09765625 C7.2265625 15.06510417 3.61328125 15.03255208 0 15 C0 10.05 0 5.1 0 0 Z " fill="#EEEEEE" transform="translate(60,135)"/>
<path d="M0 0 C4.95 0 9.9 0 15 0 C15.09765625 10.83984375 15.09765625 10.83984375 15 14 C14 15 14 15 10.83984375 15.09765625 C7.2265625 15.06510417 3.61328125 15.03255208 0 15 C0 10.05 0 5.1 0 0 Z " fill="#EEEEEE" transform="translate(30,135)"/>
<path d="M0 0 C4.95 0 9.9 0 15 0 C15 4.95 15 9.9 15 15 C10.38 15 5.76 15 1 15 C-0.05127001 9.74364995 -0.07115708 5.33678117 0 0 Z " fill="#EEEEEE" transform="translate(315,120)"/>
<path d="M0 0 C4.95 0 9.9 0 15 0 C15 4.95 15 9.9 15 15 C10.38 15 5.76 15 1 15 C-0.05127001 9.74364995 -0.07115708 5.33678117 0 0 Z " fill="#EEEEEE" transform="translate(285,120)"/>
<path d="M0 0 C4.95 0 9.9 0 15 0 C15 4.95 15 9.9 15 15 C10.38 15 5.76 15 1 15 C-0.05127001 9.74364995 -0.07115708 5.33678117 0 0 Z " fill="#EEEEEE" transform="translate(255,120)"/>
<path d="M0 0 C4.95 0 9.9 0 15 0 C15 4.95 15 9.9 15 15 C10.38 15 5.76 15 1 15 C-0.05127001 9.74364995 -0.07115708 5.33678117 0 0 Z " fill="#EEEEEE" transform="translate(75,120)"/>
<path d="M0 0 C4.95 0 9.9 0 15 0 C15 4.95 15 9.9 15 15 C10.38 15 5.76 15 1 15 C-0.05127001 9.74364995 -0.07115708 5.33678117 0 0 Z " fill="#EEEEEE" transform="translate(45,120)"/>
<path d="M0 0 C4.95 0 9.9 0 15 0 C15 4.95 15 9.9 15 15 C10.38 15 5.76 15 1 15 C-0.05127001 9.74364995 -0.07115708 5.33678117 0 0 Z " fill="#EEEEEE" transform="translate(15,120)"/>
<path d="M0 0 C4.95 0 9.9 0 15 0 C15.09765625 10.83984375 15.09765625 10.83984375 15 14 C14 15 14 15 10.83984375 15.09765625 C7.2265625 15.06510417 3.61328125 15.03255208 0 15 C0 10.05 0 5.1 0 0 Z " fill="#EEEEEE" transform="translate(300,105)"/>
<path d="M0 0 C4.95 0 9.9 0 15 0 C15.09765625 10.83984375 15.09765625 10.83984375 15 14 C14 15 14 15 10.83984375 15.09765625 C7.2265625 15.06510417 3.61328125 15.03255208 0 15 C0 10.05 0 5.1 0 0 Z " fill="#EEEEEE" transform="translate(270,105)"/>
<path d="M0 0 C4.95 0 9.9 0 15 0 C15.09765625 10.83984375 15.09765625 10.83984375 15 14 C14 15 14 15 10.83984375 15.09765625 C7.2265625 15.06510417 3.61328125 15.03255208 0 15 C0 10.05 0 5.1 0 0 Z " fill="#EEEEEE" transform="translate(90,105)"/>
<path d="M0 0 C4.95 0 9.9 0 15 0 C15.09765625 10.83984375 15.09765625 10.83984375 15 14 C14 15 14 15 10.83984375 15.09765625 C7.2265625 15.06510417 3.61328125 15.03255208 0 15 C0 10.05 0 5.1 0 0 Z " fill="#EEEEEE" transform="translate(60,105)"/>
<path d="M0 0 C4.95 0 9.9 0 15 0 C15.09765625 10.83984375 15.09765625 10.83984375 15 14 C14 15 14 15 10.83984375 15.09765625 C7.2265625 15.06510417 3.61328125 15.03255208 0 15 C0 10.05 0 5.1 0 0 Z " fill="#EEEEEE" transform="translate(30,105)"/>
<path d="M0 0 C4.95 0 9.9 0 15 0 C15 4.95 15 9.9 15 15 C10.38 15 5.76 15 1 15 C-0.05127001 9.74364995 -0.07115708 5.33678117 0 0 Z " fill="#EEEEEE" transform="translate(315,90)"/>
<path d="M0 0 C4.95 0 9.9 0 15 0 C15 4.95 15 9.9 15 15 C10.38 15 5.76 15 1 15 C-0.05127001 9.74364995 -0.07115708 5.33678117 0 0 Z " fill="#EEEEEE" transform="translate(285,90)"/>
<path d="M0 0 C4.95 0 9.9 0 15 0 C15 4.95 15 9.9 15 15 C10.38 15 5.76 15 1 15 C-0.05127001 9.74364995 -0.07115708 5.33678117 0 0 Z " fill="#EEEEEE" transform="translate(255,90)"/>
<path d="M0 0 C4.95 0 9.9 0 15 0 C15 4.95 15 9.9 15 15 C10.38 15 5.76 15 1 15 C-0.05127001 9.74364995 -0.07115708 5.33678117 0 0 Z " fill="#EEEEEE" transform="translate(75,90)"/>
<path d="M0 0 C4.95 0 9.9 0 15 0 C15 4.95 15 9.9 15 15 C10.38 15 5.76 15 1 15 C-0.05127001 9.74364995 -0.07115708 5.33678117 0 0 Z " fill="#EEEEEE" transform="translate(45,90)"/>
<path d="M0 0 C4.95 0 9.9 0 15 0 C15 4.95 15 9.9 15 15 C10.38 15 5.76 15 1 15 C-0.05127001 9.74364995 -0.07115708 5.33678117 0 0 Z " fill="#EEEEEE" transform="translate(15,90)"/>
<path d="M0 0 C4.95 0 9.9 0 15 0 C15.09765625 10.83984375 15.09765625 10.83984375 15 14 C14 15 14 15 10.83984375 15.09765625 C7.2265625 15.06510417 3.61328125 15.03255208 0 15 C0 10.05 0 5.1 0 0 Z " fill="#EEEEEE" transform="translate(300,75)"/>
<path d="M0 0 C4.95 0 9.9 0 15 0 C15.09765625 10.83984375 15.09765625 10.83984375 15 14 C14 15 14 15 10.83984375 15.09765625 C7.2265625 15.06510417 3.61328125 15.03255208 0 15 C0 10.05 0 5.1 0 0 Z " fill="#EEEEEE" transform="translate(270,75)"/>
<path d="M0 0 C4.95 0 9.9 0 15 0 C15.09765625 10.83984375 15.09765625 10.83984375 15 14 C14 15 14 15 10.83984375 15.09765625 C7.2265625 15.06510417 3.61328125 15.03255208 0 15 C0 10.05 0 5.1 0 0 Z " fill="#EEEEEE" transform="translate(90,75)"/>
<path d="M0 0 C4.95 0 9.9 0 15 0 C15.09765625 10.83984375 15.09765625 10.83984375 15 14 C14 15 14 15 10.83984375 15.09765625 C7.2265625 15.06510417 3.61328125 15.03255208 0 15 C0 10.05 0 5.1 0 0 Z " fill="#EEEEEE" transform="translate(60,75)"/>
<path d="M0 0 C4.95 0 9.9 0 15 0 C15.09765625 10.83984375 15.09765625 10.83984375 15 14 C14 15 14 15 10.83984375 15.09765625 C7.2265625 15.06510417 3.61328125 15.03255208 0 15 C0 10.05 0 5.1 0 0 Z " fill="#EEEEEE" transform="translate(30,75)"/>
<path d="M0 0 C4.95 0 9.9 0 15 0 C15 4.95 15 9.9 15 15 C10.38 15 5.76 15 1 15 C-0.05127001 9.74364995 -0.07115708 5.33678117 0 0 Z " fill="#EEEEEE" transform="translate(315,60)"/>
<path d="M0 0 C4.95 0 9.9 0 15 0 C15 4.95 15 9.9 15 15 C10.38 15 5.76 15 1 15 C-0.05127001 9.74364995 -0.07115708 5.33678117 0 0 Z " fill="#EEEEEE" transform="translate(285,60)"/>
<path d="M0 0 C4.95 0 9.9 0 15 0 C15 4.95 15 9.9 15 15 C10.38 15 5.76 15 1 15 C-0.05127001 9.74364995 -0.07115708 5.33678117 0 0 Z " fill="#EEEEEE" transform="translate(255,60)"/>
<path d="M0 0 C4.95 0 9.9 0 15 0 C15 4.95 15 9.9 15 15 C10.38 15 5.76 15 1 15 C-0.05127001 9.74364995 -0.07115708 5.33678117 0 0 Z " fill="#EEEEEE" transform="translate(75,60)"/>
<path d="M0 0 C4.95 0 9.9 0 15 0 C15 4.95 15 9.9 15 15 C10.38 15 5.76 15 1 15 C-0.05127001 9.74364995 -0.07115708 5.33678117 0 0 Z " fill="#EEEEEE" transform="translate(45,60)"/>
<path d="M0 0 C4.95 0 9.9 0 15 0 C15 4.95 15 9.9 15 15 C10.38 15 5.76 15 1 15 C-0.05127001 9.74364995 -0.07115708 5.33678117 0 0 Z " fill="#EEEEEE" transform="translate(15,60)"/>
<path d="M0 0 C4.95 0 9.9 0 15 0 C15.09765625 10.83984375 15.09765625 10.83984375 15 14 C14 15 14 15 10.83984375 15.09765625 C7.2265625 15.06510417 3.61328125 15.03255208 0 15 C0 10.05 0 5.1 0 0 Z " fill="#EEEEEE" transform="translate(300,45)"/>
<path d="M0 0 C4.95 0 9.9 0 15 0 C15.09765625 10.83984375 15.09765625 10.83984375 15 14 C14 15 14 15 10.83984375 15.09765625 C7.2265625 15.06510417 3.61328125 15.03255208 0 15 C0 10.05 0 5.1 0 0 Z " fill="#EEEEEE" transform="translate(270,45)"/>
<path d="M0 0 C4.95 0 9.9 0 15 0 C15.09765625 10.83984375 15.09765625 10.83984375 15 14 C14 15 14 15 10.83984375 15.09765625 C7.2265625 15.06510417 3.61328125 15.03255208 0 15 C0 10.05 0 5.1 0 0 Z " fill="#EEEEEE" transform="translate(90,45)"/>
<path d="M0 0 C4.95 0 9.9 0 15 0 C15.09765625 10.83984375 15.09765625 10.83984375 15 14 C14 15 14 15 10.83984375 15.09765625 C7.2265625 15.06510417 3.61328125 15.03255208 0 15 C0 10.05 0 5.1 0 0 Z " fill="#EEEEEE" transform="translate(60,45)"/>
<path d="M0 0 C4.95 0 9.9 0 15 0 C15.09765625 10.83984375 15.09765625 10.83984375 15 14 C14 15 14 15 10.83984375 15.09765625 C7.2265625 15.06510417 3.61328125 15.03255208 0 15 C0 10.05 0 5.1 0 0 Z " fill="#EEEEEE" transform="translate(30,45)"/>
<path d="M0 0 C4.95 0 9.9 0 15 0 C15 4.95 15 9.9 15 15 C10.38 15 5.76 15 1 15 C-0.05127001 9.74364995 -0.07115708 5.33678117 0 0 Z " fill="#EEEEEE" transform="translate(315,30)"/>
<path d="M0 0 C4.95 0 9.9 0 15 0 C15 4.95 15 9.9 15 15 C10.38 15 5.76 15 1 15 C-0.05127001 9.74364995 -0.07115708 5.33678117 0 0 Z " fill="#EEEEEE" transform="translate(285,30)"/>
<path d="M0 0 C4.95 0 9.9 0 15 0 C15 4.95 15 9.9 15 15 C10.38 15 5.76 15 1 15 C-0.05127001 9.74364995 -0.07115708 5.33678117 0 0 Z " fill="#EEEEEE" transform="translate(255,30)"/>
<path d="M0 0 C4.95 0 9.9 0 15 0 C15 4.95 15 9.9 15 15 C10.38 15 5.76 15 1 15 C-0.05127001 9.74364995 -0.07115708 5.33678117 0 0 Z " fill="#EEEEEE" transform="translate(105,30)"/>
<path d="M0 0 C4.95 0 9.9 0 15 0 C15 4.95 15 9.9 15 15 C10.38 15 5.76 15 1 15 C-0.05127001 9.74364995 -0.07115708 5.33678117 0 0 Z " fill="#EEEEEE" transform="translate(75,30)"/>
<path d="M0 0 C4.95 0 9.9 0 15 0 C15 4.95 15 9.9 15 15 C10.38 15 5.76 15 1 15 C-0.05127001 9.74364995 -0.07115708 5.33678117 0 0 Z " fill="#EEEEEE" transform="translate(45,30)"/>
<path d="M0 0 C4.95 0 9.9 0 15 0 C15 4.95 15 9.9 15 15 C10.38 15 5.76 15 1 15 C-0.05127001 9.74364995 -0.07115708 5.33678117 0 0 Z " fill="#EEEEEE" transform="translate(15,30)"/>
<path d="M0 0 C4.95 0 9.9 0 15 0 C15.09765625 10.83984375 15.09765625 10.83984375 15 14 C14 15 14 15 10.83984375 15.09765625 C7.2265625 15.06510417 3.61328125 15.03255208 0 15 C0 10.05 0 5.1 0 0 Z " fill="#EEEEEE" transform="translate(300,15)"/>
<path d="M0 0 C4.95 0 9.9 0 15 0 C15.09765625 10.83984375 15.09765625 10.83984375 15 14 C14 15 14 15 10.83984375 15.09765625 C7.2265625 15.06510417 3.61328125 15.03255208 0 15 C0 10.05 0 5.1 0 0 Z " fill="#EEEEEE" transform="translate(270,15)"/>
<path d="M0 0 C4.95 0 9.9 0 15 0 C15.09765625 10.83984375 15.09765625 10.83984375 15 14 C14 15 14 15 10.83984375 15.09765625 C7.2265625 15.06510417 3.61328125 15.03255208 0 15 C0 10.05 0 5.1 0 0 Z " fill="#EEEEEE" transform="translate(240,15)"/>
<path d="M0 0 C4.95 0 9.9 0 15 0 C15.09765625 10.83984375 15.09765625 10.83984375 15 14 C14 15 14 15 10.83984375 15.09765625 C7.2265625 15.06510417 3.61328125 15.03255208 0 15 C0 10.05 0 5.1 0 0 Z " fill="#EEEEEE" transform="translate(90,15)"/>
<path d="M0 0 C4.95 0 9.9 0 15 0 C15.09765625 10.83984375 15.09765625 10.83984375 15 14 C14 15 14 15 10.83984375 15.09765625 C7.2265625 15.06510417 3.61328125 15.03255208 0 15 C0 10.05 0 5.1 0 0 Z " fill="#EEEEEE" transform="translate(60,15)"/>
<path d="M0 0 C4.95 0 9.9 0 15 0 C15.09765625 10.83984375 15.09765625 10.83984375 15 14 C14 15 14 15 10.83984375 15.09765625 C7.2265625 15.06510417 3.61328125 15.03255208 0 15 C0 10.05 0 5.1 0 0 Z " fill="#EEEEEE" transform="translate(30,15)"/>
<path d="M0 0 C2.31243792 -0.02685412 4.6249627 -0.04632841 6.9375 -0.0625 C8.22527344 -0.07410156 9.51304688 -0.08570312 10.83984375 -0.09765625 C14 0 14 0 15 1 C15.09908783 2.78940972 15.12970379 4.58285508 15.125 6.375 C15.12757812 7.35210937 15.13015625 8.32921875 15.1328125 9.3359375 C15 12 15 12 14 15 C9.71 15 5.42 15 1 15 C0.24627901 11.23139506 -0.11244419 8.43331415 -0.0625 4.6875 C-0.05347656 3.80449219 -0.04445313 2.92148438 -0.03515625 2.01171875 C-0.02355469 1.34785156 -0.01195313 0.68398437 0 0 Z " fill="#EEEEEE" transform="translate(105,120)"/>
<path d="M0 0 C4.95 0 9.9 0 15 0 C15.25 11.625 15.25 11.625 13 15 C8.64352194 15.41996896 4.38442431 15.12895366 0 15 C0 10.05 0 5.1 0 0 Z " fill="#EEEEEE" transform="translate(120,15)"/>
<path d="M0 0 C3.61328125 0.03255208 7.2265625 0.06510417 10.83984375 0.09765625 C10.83984375 4.71765625 10.83984375 9.33765625 10.83984375 14.09765625 C5.88984375 14.09765625 0.93984375 14.09765625 -4.16015625 14.09765625 C-4.2578125 4.0390625 -4.2578125 4.0390625 -4.16015625 1.09765625 C-3.16015625 0.09765625 -3.16015625 0.09765625 0 0 Z " fill="#EEEEEE" transform="translate(79.16015625,389.90234375)"/>
<path d="M0 0 C4.95 0 9.9 0 15 0 C15.09765625 10.05859375 15.09765625 10.05859375 15 13 C14 14 14 14 10.83984375 14.09765625 C7.2265625 14.06510417 3.61328125 14.03255208 0 14 C0 9.38 0 4.76 0 0 Z " fill="#EEEEEE" transform="translate(315,390)"/>
<path d="M0 0 C1.93166016 0.01740234 1.93166016 0.01740234 3.90234375 0.03515625 C5.19269531 0.04417969 6.48304688 0.05320312 7.8125 0.0625 C8.81152344 0.07410156 9.81054688 0.08570313 10.83984375 0.09765625 C10.86670313 2.24342262 10.88617463 4.3892827 10.90234375 6.53515625 C10.91394531 7.73011719 10.92554688 8.92507813 10.9375 10.15625 C10.83984375 13.09765625 10.83984375 13.09765625 9.83984375 14.09765625 C7.4867082 14.17037366 5.13150707 14.18136493 2.77734375 14.16015625 C1.48699219 14.15113281 0.19664062 14.14210938 -1.1328125 14.1328125 C-2.13183594 14.12121094 -3.13085938 14.10960937 -4.16015625 14.09765625 C-4.18701563 11.95188988 -4.20648713 9.8060298 -4.22265625 7.66015625 C-4.23425781 6.46519531 -4.24585938 5.27023437 -4.2578125 4.0390625 C-4.12244392 -0.03823902 -4.11222171 0.12707731 0 0 Z " fill="#EEEEEE" transform="translate(289.16015625,389.90234375)"/>
<path d="M0 0 C4.95 0 9.9 0 15 0 C15.09765625 10.05859375 15.09765625 10.05859375 15 13 C14 14 14 14 10.83984375 14.09765625 C7.2265625 14.06510417 3.61328125 14.03255208 0 14 C0 9.38 0 4.76 0 0 Z " fill="#EEEEEE" transform="translate(165,390)"/>
<path d="M0 0 C4.95 0 9.9 0 15 0 C15.09765625 10.05859375 15.09765625 10.05859375 15 13 C14 14 14 14 10.83984375 14.09765625 C7.2265625 14.06510417 3.61328125 14.03255208 0 14 C0 9.38 0 4.76 0 0 Z " fill="#EEEEEE" transform="translate(45,390)"/>
<path d="M0 0 C4.62 0 9.24 0 14 0 C14.94043148 4.70215739 15.15775038 8.26748847 15 13 C14 14 14 14 10.83984375 14.09765625 C7.2265625 14.06510417 3.61328125 14.03255208 0 14 C0 9.38 0 4.76 0 0 Z " fill="#EEEEEE" transform="translate(195,390)"/>
<path d="M0 0 C1.79244141 0.01740234 1.79244141 0.01740234 3.62109375 0.03515625 C5.41740234 0.04869141 5.41740234 0.04869141 7.25 0.0625 C8.17683594 0.07410156 9.10367188 0.08570313 10.05859375 0.09765625 C11.04525392 4.5767802 11.21110242 8.52239606 11.05859375 13.09765625 C10.05859375 14.09765625 10.05859375 14.09765625 6.8984375 14.1953125 C4.96677734 14.17791016 4.96677734 14.17791016 2.99609375 14.16015625 C1.70574219 14.15113281 0.41539062 14.14210938 -0.9140625 14.1328125 C-1.91308594 14.12121094 -2.91210938 14.10960937 -3.94140625 14.09765625 C-3.96826563 11.95188988 -3.98773713 9.8060298 -4.00390625 7.66015625 C-4.01550781 6.46519531 -4.02710938 5.27023437 -4.0390625 4.0390625 C-3.90927257 0.12978993 -3.90927257 0.12978993 0 0 Z " fill="#EEEEEE" transform="translate(138.94140625,389.90234375)"/>
<path d="M0 0 C4.62 0 9.24 0 14 0 C14.94043148 4.70215739 15.15775038 8.26748847 15 13 C14 14 14 14 10.83984375 14.09765625 C7.2265625 14.06510417 3.61328125 14.03255208 0 14 C0 9.38 0 4.76 0 0 Z " fill="#EEEEEE" transform="translate(15,390)"/>
<path d="M0 0 C9.1796875 0.390625 9.1796875 0.390625 12 1 C15.17385795 4.96732244 14.12622811 10.2033317 14 15 C9.38 15 4.76 15 0 15 C0 10.05 0 5.1 0 0 Z " fill="#EBECEC" transform="translate(0,315)"/>
<path d="M0 0 C0.66 0 1.32 0 2 0 C2 4.95 2 9.9 2 15 C-2.95 15 -7.9 15 -13 15 C-13 12.69 -13 10.38 -13 8 C-13.66 7.34 -14.32 6.68 -15 6 C-14.08476562 5.73445313 -13.16953125 5.46890625 -12.2265625 5.1953125 C-11.03804688 4.84210938 -9.84953125 4.48890625 -8.625 4.125 C-7.44164062 3.77695312 -6.25828125 3.42890625 -5.0390625 3.0703125 C-1.93508442 2.22312581 -1.93508442 2.22312581 0 0 Z " fill="#EEEEEE" transform="translate(268,389)"/>
<path d="M0 0 C0 3.96 0 7.92 0 12 C-4.95 12 -9.9 12 -15 12 C-15 8.7 -15 5.4 -15 2 C-13.01432292 2.06510417 -11.02864583 2.13020833 -9.04296875 2.1953125 C-5.31645156 1.83904891 -4.1386603 0 0 0 Z " fill="#EDEDED" transform="translate(120,392)"/>
<path d="M0 0 C0.33 0 0.66 0 1 0 C1 3.3 1 6.6 1 10 C3.31 10 5.62 10 8 10 C8.19517554 11.93674185 8.38087873 13.87444009 8.5625 15.8125 C8.66691406 16.89144531 8.77132812 17.97039062 8.87890625 19.08203125 C9 22 9 22 8 25 C3.25 26.125 3.25 26.125 1 25 C1.33 29.95 1.66 34.9 2 40 C1.34 39.67 0.68 39.34 0 39 C0 26.13 0 13.26 0 0 Z " fill="#FCFCFC" transform="translate(232,65)"/>
<path d="M0 0 C-0.66 0 -1.32 0 -2 0 C-2 1.98 -2 3.96 -2 6 C-6.95 6 -11.9 6 -17 6 C-17 3.03 -17 0.06 -17 -3 C-11.11440316 -4.89857963 -5.02054099 -3.34702732 0 0 Z " fill="#ECECEC" transform="translate(77,384)"/>
<path d="M0 0 C10.8351646 4.81562871 16.86690825 16.46061604 21 27 C21.391875 27.763125 21.78375 28.52625 22.1875 29.3125 C23.43447196 33.43709955 23.67185401 37.73770037 23 42 C21.54296875 43.8046875 21.54296875 43.8046875 20 45 C19.67 45 19.34 45 19 45 C18.94054199 44.42668945 18.88108398 43.85337891 18.81982422 43.26269531 C17.07785456 27.26737169 14.35280866 15.86270645 2.85546875 3.9609375 C1 2 1 2 0 0 Z " fill="#ECECEC" transform="translate(237,194)"/>
<path d="M0 0 C7.26 0.66 14.52 1.32 22 2 C22 4.31 22 6.62 22 9 C21 10 21 10 17.62109375 10.09765625 C16.22652923 10.09098369 14.83198257 10.07902532 13.4375 10.0625 C12.72658203 10.05798828 12.01566406 10.05347656 11.28320312 10.04882812 C9.52209987 10.03700864 7.76103964 10.01907263 6 10 C4.90341064 6.71023192 5.20046862 5.28696233 6 2 C3.03 1.505 3.03 1.505 0 1 C0 0.67 0 0.34 0 0 Z " fill="#FBFBFB" transform="translate(234,394)"/>
<path d="M0 0 C3.3 0.33 6.6 0.66 10 1 C10.125 10.5 10.125 10.5 9 15 C6.03 15 3.06 15 0 15 C0 10.05 0 5.1 0 0 Z " fill="#ECECEC" transform="translate(0,345)"/>
<path d="M0 0 C4.62 0 9.24 0 14 0 C15 5 15 5 15 9 C10.38 9 5.76 9 1 9 C0 4 0 4 0 0 Z " fill="#EEEEEE" transform="translate(165,366)"/>
<path d="M0 0 C0.33 0 0.66 0 1 0 C2.15266227 9.84032053 -1.67819314 16.01728971 -7 24 C-9.31 23.34 -11.62 22.68 -14 22 C-12.79618552 19.50638429 -11.54571278 17.31856917 -10 15 C-9.54860541 12.9507906 -9.54860541 12.9507906 -9.375 10.8125 C-9.189375 8.9253125 -9.189375 8.9253125 -9 7 C-8.67 7.66 -8.34 8.32 -8 9 C-6.00045254 9.04254356 -3.99958364 9.04080783 -2 9 C-0.50256881 7.50256881 -0.66797307 6.01175761 -0.4375 3.9375 C-0.293125 2.638125 -0.14875 1.33875 0 0 Z " fill="#E7E8E8" transform="translate(206,79)"/>
<path d="M0 0 C4.95 0 9.9 0 15 0 C15 2.64 15 5.28 15 8 C10.38 8.33 5.76 8.66 1 9 C0 6 0 6 0 0 Z " fill="#EEEEEE" transform="translate(165,0)"/>
<path d="M0 0 C0.66 0.33 1.32 0.66 2 1 C1.67 5.29 1.34 9.58 1 14 C-3.62 14 -8.24 14 -13 14 C-10.91227568 8.7806892 -9.65335992 7.52064087 -5.375 4.1875 C-4.37210937 3.39730469 -3.36921875 2.60710937 -2.3359375 1.79296875 C-1.17964844 0.90544922 -1.17964844 0.90544922 0 0 Z " fill="#EDEDED" transform="translate(284,376)"/>
<path d="M0 0 C0.33 0.66 0.66 1.32 1 2 C1.66 2 2.32 2 3 2 C2.86722656 2.58007812 2.73445312 3.16015625 2.59765625 3.7578125 C2.23129554 5.37835694 1.87363698 7.00088646 1.5234375 8.625 C1.11737678 10.46742477 0.66224275 12.29906636 0.1875 14.125 C-0.08274339 18.26873196 0.83897624 20.4637793 3 24 C5.53730999 25.7031943 8.15054522 26.91030352 11 28 C10.01 28.99 9.02 29.98 8 31 C3.56029258 29.60466338 1.09484321 27.43871468 -2 24 C-5.58085028 16.83829944 -2.31139663 7.11304796 0 0 Z " fill="#2E3337" transform="translate(13,338)"/>
<path d="M0 0 C3.63 0.33 7.26 0.66 11 1 C11 4.59058544 10.10368497 5.74787471 8.125 8.6875 C7.59132813 9.49574219 7.05765625 10.30398438 6.5078125 11.13671875 C6.01023437 11.75160156 5.51265625 12.36648438 5 13 C4.34 13 3.68 13 3 13 C2.34 13.66 1.68 14.32 1 15 C-0.32972073 10.01354726 -0.06829634 5.12222534 0 0 Z " fill="#EEEEEE" transform="translate(45,270)"/>
<path d="M0 0 C2.31 0 4.62 0 7 0 C7 4.95 7 9.9 7 15 C5.02 15 3.04 15 1 15 C-0.44207941 12.11584117 -0.09394887 9.58278472 -0.0625 6.375 C-0.05347656 5.18648438 -0.04445312 3.99796875 -0.03515625 2.7734375 C-0.02355469 1.85820313 -0.01195312 0.94296875 0 0 Z " fill="#EEEEEE" transform="translate(233,90)"/>
<path d="M0 0 C1.28583984 0.10828125 1.28583984 0.10828125 2.59765625 0.21875 C8.41461476 0.69092702 14.16333091 1.13573649 20 1 C20.33 1.99 20.66 2.98 21 4 C13.21792944 6.07521882 5.6091761 5.2545707 -2 3 C-1.34 2.67 -0.68 2.34 0 2 C0 1.34 0 0.68 0 0 Z " fill="#383C3D" transform="translate(237,391)"/>
<path d="M0 0 C0.99 0.33 1.98 0.66 3 1 C3 3.64 3 6.28 3 9 C-0.63 9 -4.26 9 -8 9 C-8 8.01 -8 7.02 -8 6 C-6.35546875 4.359375 -6.35546875 4.359375 -4.1875 2.75 C-3.47980469 2.20859375 -2.77210938 1.6671875 -2.04296875 1.109375 C-1.36878906 0.74328125 -0.69460938 0.3771875 0 0 Z " fill="#EDEDED" transform="translate(297,366)"/>
<path d="M0 0 C-1.12018415 3.36055244 -1.86964349 3.94568173 -4.60546875 6.03125 C-5.34216797 6.59457031 -6.07886719 7.15789062 -6.83789062 7.73828125 C-7.61326172 8.31964844 -8.38863281 8.90101563 -9.1875 9.5 C-10.32155273 10.37205078 -10.32155273 10.37205078 -11.47851562 11.26171875 C-19.60714648 17.42340423 -19.60714648 17.42340423 -24 19 C-26.375 18.1875 -26.375 18.1875 -28 17 C-27.29617187 16.69449219 -26.59234375 16.38898438 -25.8671875 16.07421875 C-18.60109797 12.70677517 -12.69277409 8.70661955 -6.54638672 3.6081543 C-2.17819439 0 -2.17819439 0 0 0 Z " fill="#323739" transform="translate(200,124)"/>
<path d="M0 0 C-0.33 2.64 -0.66 5.28 -1 8 C-3.97 8 -6.94 8 -10 8 C-9.67 5.69 -9.34 3.38 -9 1 C-3.375 -1.125 -3.375 -1.125 0 0 Z " fill="#EBECEC" transform="translate(151,367)"/>
<path d="M0 0 C0.99 0.33 1.98 0.66 3 1 C3.16435547 2.03060547 3.16435547 2.03060547 3.33203125 3.08203125 C3.49058594 3.98308594 3.64914063 4.88414063 3.8125 5.8125 C3.96332031 6.70582031 4.11414063 7.59914063 4.26953125 8.51953125 C5.05395393 11.18321256 5.88627799 12.25690322 8 14 C7.67 14.99 7.34 15.98 7 17 C6.01 17 5.02 17 4 17 C-1.5321244 7.48627741 -1.5321244 7.48627741 -0.8125 2.875 C-0.544375 1.92625 -0.27625 0.9775 0 0 Z " fill="#EEEEEE" transform="translate(131,85)"/>
<path d="M0 0 C0.85464844 -0.01417969 1.70929688 -0.02835937 2.58984375 -0.04296875 C5.20159303 0.20046444 6.81750652 0.8696732 9.0625 2.1875 C5.80608556 4.12602436 3.39120564 4.43245945 -0.375 4.375 C-1.76525391 4.36533203 -1.76525391 4.36533203 -3.18359375 4.35546875 C-5.85466056 4.19255262 -8.33091958 3.7788295 -10.9375 3.1875 C-7.12314151 0.64459434 -4.48829815 0.0337466 0 0 Z " fill="#383C3E" transform="translate(110.9375,388.8125)"/>
<path d="M0 0 C0.33 0 0.66 0 1 0 C1 7.26 1 14.52 1 22 C-2 19 -2 19 -2.36328125 15.3125 C-2.36195505 13.87490095 -2.34446718 12.43724419 -2.3125 11 C-2.31572266 10.27554687 -2.31894531 9.55109375 -2.32226562 8.8046875 C-2.28385299 5.0192971 -2.14469404 3.21704106 0 0 Z " fill="#3B3F3F" transform="translate(227,283)"/>
<path d="M0 0 C1.98 0 3.96 0 6 0 C6.75 1.5625 6.75 1.5625 7 4 C5.86915563 6.50286409 4.47860484 8.67007722 3 11 C2.01 10.67 1.02 10.34 0 10 C0 6.7 0 3.4 0 0 Z " fill="#EDEDED" transform="translate(105,150)"/>
<path d="M0 0 C1.9375 0.375 1.9375 0.375 4 1 C4.33 1.66 4.66 2.32 5 3 C5.66 2.34 6.32 1.68 7 1 C7 3.97 7 6.94 7 10 C4.69 9.34 2.38 8.68 0 8 C0 5.36 0 2.72 0 0 Z " fill="#F1F1F1" transform="translate(171,85)"/>
<path d="M0 0 C0.18451025 9.41002278 0.18451025 9.41002278 -1 14 C-2.65 14 -4.3 14 -6 14 C-5.55187982 11.8520106 -5.09121652 9.70663439 -4.625 7.5625 C-4.36976563 6.36753906 -4.11453125 5.17257813 -3.8515625 3.94140625 C-3.43003906 2.48541016 -3.43003906 2.48541016 -3 1 C-1 0 -1 0 0 0 Z " fill="#EEEEEE" transform="translate(260,236)"/>
<path d="M0 0 C0.33 0 0.66 0 1 0 C1.05437607 1.58294782 1.09296271 3.16644256 1.125 4.75 C1.14820313 5.63171875 1.17140625 6.5134375 1.1953125 7.421875 C0.99139502 10.1135858 0.36551721 11.69904974 -1 14 C-1.66 14 -2.32 14 -3 14 C-3.66 14.66 -4.32 15.32 -5 16 C-5.33 15.01 -5.66 14.02 -6 13 C-6.99 12.67 -7.98 12.34 -9 12 C-9 10.35 -9 8.7 -9 7 C-8.67 7.66 -8.34 8.32 -8 9 C-6.00045254 9.04254356 -3.99958364 9.04080783 -2 9 C-0.50256881 7.50256881 -0.66797307 6.01175761 -0.4375 3.9375 C-0.293125 2.638125 -0.14875 1.33875 0 0 Z " fill="#D1D1D2" transform="translate(206,79)"/>
<path d="M0 0 C0 3.51479702 -0.65021767 4.18178057 -2.6875 6.9375 C-6.3864887 12.26193504 -8.69337558 17.96807508 -11 24 C-11.66 24 -12.32 24 -13 24 C-11.80745634 14.44562079 -6.44397804 6.90426218 0 0 Z " fill="#E1E1E2" transform="translate(100,199)"/>
<path d="M0 0 C6.93 0.495 6.93 0.495 14 1 C13.01 1.495 13.01 1.495 12 2 C11.67 2.99 11.34 3.98 11 5 C7.37 5 3.74 5 0 5 C0 3.35 0 1.7 0 0 Z " fill="#EDEDED" transform="translate(30,285)"/>
<path d="M0 0 C1.61725534 3.00950123 2.67582623 5.97103608 3.625 9.25 C3.88539063 10.14203125 4.14578125 11.0340625 4.4140625 11.953125 C4.60742188 12.62859375 4.80078125 13.3040625 5 14 C4.01 14.33 3.02 14.66 2 15 C2 14.01 2 13.02 2 12 C1.34 12 0.68 12 0 12 C-2.44375 5.675 -2.44375 5.675 -1 2 C-0.67 1.34 -0.34 0.68 0 0 Z " fill="#EBECEC" transform="translate(210,153)"/>
<path d="M0 0 C0.99 0 1.98 0 3 0 C3 4.95 3 9.9 3 15 C2.01 15 1.02 15 0 15 C0 10.05 0 5.1 0 0 Z " fill="#EEEEEE" transform="translate(345,330)"/>
<path d="M0 0 C1.32 0 2.64 0 4 0 C4 4.62 4 9.24 4 14 C3.01 13.67 2.02 13.34 1 13 C0.29826347 8.61414671 -0.10834375 4.44209357 0 0 Z " fill="#EEEEEE" transform="translate(311,285)"/>
<path d="M0 0 C4.8846939 0.11359753 9.40956703 1.76080435 14 3.3125 C10.04294544 4.77089897 6.30168612 3.99156093 2.25 3.375 C1.20392578 3.22514648 1.20392578 3.22514648 0.13671875 3.07226562 C-1.57651726 2.82584127 -3.28840725 2.57009045 -5 2.3125 C-3 0.3125 -3 0.3125 0 0 Z M5 3.3125 C5.33 3.9725 5.66 4.6325 6 5.3125 C6.99 5.6425 7.98 5.9725 9 6.3125 C8.34 6.9725 7.68 7.6325 7 8.3125 C5.68 7.6525 4.36 6.9925 3 6.3125 C3 5.6525 3 4.9925 3 4.3125 C3.66 3.9825 4.32 3.6525 5 3.3125 Z " fill="#B1962A" transform="translate(162,92.6875)"/>
<path d="M0 0 C0.99 0 1.98 0 3 0 C3 4.95 3 9.9 3 15 C2.01 15 1.02 15 0 15 C0 10.05 0 5.1 0 0 Z " fill="#EEEEEE" transform="translate(345,360)"/>
<path d="M0 0 C0.99 0 1.98 0 3 0 C3 4.95 3 9.9 3 15 C2.01 15 1.02 15 0 15 C0 10.05 0 5.1 0 0 Z " fill="#EEEEEE" transform="translate(345,300)"/>
<path d="M0 0 C0.99 0 1.98 0 3 0 C3 4.95 3 9.9 3 15 C2.01 15 1.02 15 0 15 C0 10.05 0 5.1 0 0 Z " fill="#EEEEEE" transform="translate(345,270)"/>
<path d="M0 0 C0.99 0 1.98 0 3 0 C3 4.95 3 9.9 3 15 C2.01 15 1.02 15 0 15 C0 10.05 0 5.1 0 0 Z " fill="#EEEEEE" transform="translate(345,240)"/>
<path d="M0 0 C0.99 0 1.98 0 3 0 C3 4.95 3 9.9 3 15 C2.01 15 1.02 15 0 15 C0 10.05 0 5.1 0 0 Z " fill="#EEEEEE" transform="translate(345,210)"/>
<path d="M0 0 C0.99 0 1.98 0 3 0 C3 4.95 3 9.9 3 15 C2.01 15 1.02 15 0 15 C0 10.05 0 5.1 0 0 Z " fill="#EEEEEE" transform="translate(345,180)"/>
<path d="M0 0 C0.99 0 1.98 0 3 0 C3 4.95 3 9.9 3 15 C2.01 15 1.02 15 0 15 C0 10.05 0 5.1 0 0 Z " fill="#EEEEEE" transform="translate(345,150)"/>
<path d="M0 0 C0.99 0 1.98 0 3 0 C3 4.95 3 9.9 3 15 C2.01 15 1.02 15 0 15 C0 10.05 0 5.1 0 0 Z " fill="#EEEEEE" transform="translate(345,120)"/>
<path d="M0 0 C0.99 0 1.98 0 3 0 C3 4.95 3 9.9 3 15 C2.01 15 1.02 15 0 15 C0 10.05 0 5.1 0 0 Z " fill="#EEEEEE" transform="translate(120,105)"/>
<path d="M0 0 C0.99 0 1.98 0 3 0 C3 4.95 3 9.9 3 15 C2.01 15 1.02 15 0 15 C0 10.05 0 5.1 0 0 Z " fill="#EEEEEE" transform="translate(345,90)"/>
<path d="M0 0 C0.99 0 1.98 0 3 0 C3 4.95 3 9.9 3 15 C2.01 15 1.02 15 0 15 C0 10.05 0 5.1 0 0 Z " fill="#EEEEEE" transform="translate(345,60)"/>
<path d="M0 0 C0.99 0 1.98 0 3 0 C3 4.95 3 9.9 3 15 C2.01 15 1.02 15 0 15 C0 10.05 0 5.1 0 0 Z " fill="#EEEEEE" transform="translate(345,30)"/>
<path d="M0 0 C0.99 0 1.98 0 3 0 C3 4.95 3 9.9 3 15 C2.01 14.67 1.02 14.34 0 14 C0 9.38 0 4.76 0 0 Z " fill="#EEEEEE" transform="translate(345,0)"/>
<path d="M0 0 C0.99 0 1.98 0 3 0 C3 4.62 3 9.24 3 14 C2.01 13.67 1.02 13.34 0 13 C0 8.71 0 4.42 0 0 Z " fill="#EEEEEE" transform="translate(345,390)"/>
<path d="M0 0 C0.33 0.66 0.66 1.32 1 2 C-0.21484375 4.3828125 -0.21484375 4.3828125 -1.9375 7.125 C-2.50339844 8.03507813 -3.06929688 8.94515625 -3.65234375 9.8828125 C-4.09707031 10.58148438 -4.54179688 11.28015625 -5 12 C-5.66 11.67 -6.32 11.34 -7 11 C-7 8.69 -7 6.38 -7 4 C-5.824375 3.8453125 -5.824375 3.8453125 -4.625 3.6875 C-1.66954819 3.22404978 -1.66954819 3.22404978 0 0 Z " fill="#F6F6F6" transform="translate(97,176)"/>
<path d="M0 0 C0.99 0 1.98 0 3 0 C3.33 0.99 3.66 1.98 4 3 C-1.62257161 4.9169573 -6.52369385 5.24889924 -12.4375 5.125 C-13.26443359 5.11597656 -14.09136719 5.10695313 -14.94335938 5.09765625 C-16.96236708 5.07431512 -18.98122356 5.03845288 -21 5 C-21 4.67 -21 4.34 -21 4 C-19.89140625 3.93941406 -18.7828125 3.87882812 -17.640625 3.81640625 C-16.1770718 3.73197049 -14.71353075 3.64732401 -13.25 3.5625 C-12.15558594 3.50352539 -12.15558594 3.50352539 -11.0390625 3.44335938 C-5.94006118 3.16649674 -5.94006118 3.16649674 -1 2 C-0.67 1.34 -0.34 0.68 0 0 Z " fill="#ECEDED" transform="translate(178,339)"/>
<path d="M0 0 C0.598125 0.165 1.19625 0.33 1.8125 0.5 C4.11344336 1.1114124 4.11344336 1.1114124 7 1 C6.67 2.65 6.34 4.3 6 6 C4.1875 6.625 4.1875 6.625 2 7 C1.01 6.34 0.02 5.68 -1 5 C-0.67 3.35 -0.34 1.7 0 0 Z " fill="#F7F7F7" transform="translate(197,91)"/>
<path d="M0 0 C6.04801071 0.54981916 11.30601106 1.90429574 17 4 C12.70272603 5.30660357 9.39784135 4.6596762 5 4 C5 3.34 5 2.68 5 2 C3.35 1.67 1.7 1.34 0 1 C0 0.67 0 0.34 0 0 Z " fill="#E5E5E6" transform="translate(25,371)"/>
<path d="M0 0 C0.33 0 0.66 0 1 0 C1.02691685 2.45840605 1.04679802 4.91651882 1.0625 7.375 C1.07087891 8.07367188 1.07925781 8.77234375 1.08789062 9.4921875 C1.11328125 14.7734375 1.11328125 14.7734375 0 17 C-0.66 17 -1.32 17 -2 17 C-1.85786703 15.10388566 -1.71113093 13.20811606 -1.5625 11.3125 C-1.48128906 10.25675781 -1.40007813 9.20101563 -1.31640625 8.11328125 C-1.03548319 5.34913703 -0.59843148 2.71054259 0 0 Z " fill="#1D232B" transform="translate(16,323)"/>
<path d="M0 0 C1.32 0.66 2.64 1.32 4 2 C2.02 4.97 2.02 4.97 0 8 C-1.32 7.67 -2.64 7.34 -4 7 C-2.92598892 4.08482708 -2.22189824 2.22189824 0 0 Z " fill="#33383B" transform="translate(18,296)"/>
<path d="M0 0 C3.40312738 1.05875074 6.01353231 2.00902154 9 4 C9 4.66 9 5.32 9 6 C4.2482602 5.56802365 2.07999946 4.67230705 -1 1 C-0.67 0.67 -0.34 0.34 0 0 Z " fill="#272C31" transform="translate(228,387)"/>
<path d="M0 0 C3.75561867 0.32657554 6.73602552 1.1169378 10 3 C8.5 4.1875 8.5 4.1875 6 5 C3.21175762 4.27101296 0.62334908 3.1843275 -2 2 C-1.34 1.34 -0.68 0.68 0 0 Z " fill="#252B30" transform="translate(72,379)"/>
<path d="M0 0 C4.6927808 0.46007655 8.29845255 0.95166681 12 4 C12.8125 6.6875 12.8125 6.6875 13 9 C12.34 9 11.68 9 11 9 C10.67 7.35 10.34 5.7 10 4 C7.69 4 5.38 4 3 4 C3 3.01 3 2.02 3 1 C2.01 0.67 1.02 0.34 0 0 Z " fill="#F5F5F5" transform="translate(207,371)"/>
<path d="M0 0 C0.99 1.0828125 0.99 1.0828125 2 2.1875 C5.24136533 5.45688866 9.04374711 7.6930039 13 10 C12.01 10.66 11.02 11.32 10 12 C1.18451025 4.88610478 1.18451025 4.88610478 0 0 Z " fill="#35393A" transform="translate(140,131)"/>
<path d="M0 0 C2 1.375 2 1.375 4 3 C4 3.66 4 4.32 4 5 C5.32 5 6.64 5 8 5 C8 7.64 8 10.28 8 13 C6.99152789 11.67306301 5.99450461 10.33743723 5 9 C4.566875 8.42121094 4.13375 7.84242187 3.6875 7.24609375 C3.23375 6.62863281 2.78 6.01117187 2.3125 5.375 C1.87550781 4.78460937 1.43851563 4.19421875 0.98828125 3.5859375 C0 2 0 2 0 0 Z " fill="#F5F5F5" transform="translate(217,25)"/>
<path d="M0 0 C2.5 2.3125 2.5 2.3125 5 5 C5 5.99 5 6.98 5 8 C4.01 8 3.02 8 2 8 C0.25 6.25 0.25 6.25 -1 4 C-0.6875 1.75 -0.6875 1.75 0 0 Z " fill="#373B3E" transform="translate(223,380)"/>
<path d="M0 0 C-0.33 2.31 -0.66 4.62 -1 7 C-1.33 6.34 -1.66 5.68 -2 5 C-2.66 4.855625 -3.32 4.71125 -4 4.5625 C-4.66 4.376875 -5.32 4.19125 -6 4 C-6.33 3.01 -6.66 2.02 -7 1 C-4.50935112 0.31292445 -2.62113708 0 0 0 Z " fill="#EDEDED" transform="translate(176,143)"/>
<path d="M0 0 C0.33 0 0.66 0 1 0 C1 1.98 1 3.96 1 6 C-1.31 6 -3.62 6 -6 6 C-6 5.01 -6 4.02 -6 3 C-5.195625 2.690625 -4.39125 2.38125 -3.5625 2.0625 C-1.10919595 1.23664655 -1.10919595 1.23664655 0 0 Z " fill="#ECECEC" transform="translate(134,384)"/>
<path d="M0 0 C1.32 0 2.64 0 4 0 C4 2.64 4 5.28 4 8 C2.35 6.68 0.7 5.36 -1 4 C-0.67 2.68 -0.34 1.36 0 0 Z " fill="#E8E8E9" transform="translate(236,120)"/>
<path d="M0 0 C0.33 0.99 0.66 1.98 1 3 C-1.97 5.475 -1.97 5.475 -5 8 C-5 6.68 -5 5.36 -5 4 C-2.5 1.75 -2.5 1.75 0 0 Z " fill="#24292F" transform="translate(335,336)"/>
<path d="M0 0 C3.24208567 0.35049575 4.61527704 0.56221181 6.8125 3.0625 C7.204375 3.701875 7.59625 4.34125 8 5 C6.25 5.75 6.25 5.75 4 6 C1.75 4.1875 1.75 4.1875 0 2 C0 1.34 0 0.68 0 0 Z " fill="#32373A" transform="translate(320,312)"/>
<path d="M0 0 C0.99 0 1.98 0 3 0 C2.67 4.62 2.34 9.24 2 14 C-0.28062828 10.57905758 -0.21925007 9.31812778 -0.125 5.3125 C-0.10695313 4.31863281 -0.08890625 3.32476562 -0.0703125 2.30078125 C-0.04710937 1.54152344 -0.02390625 0.78226562 0 0 Z " fill="#1F252C" transform="translate(14,303)"/>
<path d="M0 0 C0 2.31 0 4.62 0 7 C-0.66 7 -1.32 7 -2 7 C-2.66 7.66 -3.32 8.32 -4 9 C-4.368 3.48 -4.368 3.48 -2.5625 1.125 C-1 0 -1 0 0 0 Z " fill="#FBFBFB" transform="translate(260,236)"/>
<path d="M0 0 C3.45201639 1.47721422 5.64961936 3.43794001 8.25 6.125 C8.95640625 6.84945312 9.6628125 7.57390625 10.390625 8.3203125 C11.18726563 9.15175781 11.18726563 9.15175781 12 10 C11.34 10.66 10.68 11.32 10 12 C8.51814875 10.37744772 7.03959744 8.75188112 5.5625 7.125 C4.73878906 6.22007812 3.91507813 5.31515625 3.06640625 4.3828125 C1 2 1 2 0 0 Z " fill="#CDCECE" transform="translate(237,194)"/>
<path d="M0 0 C3.0831351 1.19899698 6.06279492 2.47700477 9 4 C8.34 5.32 7.68 6.64 7 8 C5.83035398 6.8572081 4.66435444 5.71068285 3.5 4.5625 C2.8503125 3.92441406 2.200625 3.28632812 1.53125 2.62890625 C0 1 0 1 0 0 Z " fill="#D6B125" transform="translate(134,124)"/>
<path d="M0 0 C0.33 0 0.66 0 1 0 C1 2.97 1 5.94 1 9 C-0.65 8.67 -2.3 8.34 -4 8 C-3.67 6.35 -3.34 4.7 -3 3 C-2.34 3 -1.68 3 -1 3 C-0.67 2.01 -0.34 1.02 0 0 Z " fill="#D5D5D6" transform="translate(177,86)"/>
<path d="M0 0 C0.66 0.33 1.32 0.66 2 1 C1.34 2.65 0.68 4.3 0 6 C-1.65 6 -3.3 6 -5 6 C-5.33 5.34 -5.66 4.68 -6 4 C-4.02 2.68 -2.04 1.36 0 0 Z " fill="#EBEBEB" transform="translate(315,354)"/>
<path d="M0 0 C0.66 0 1.32 0 2 0 C1.34 3.3 0.68 6.6 0 10 C-0.66 10 -1.32 10 -2 10 C-2 7.69 -2 5.38 -2 3 C-1.34 3 -0.68 3 0 3 C0 2.01 0 1.02 0 0 Z " fill="#DEDFDF" transform="translate(62,237)"/>
<path d="M0 0 C0.66 0 1.32 0 2 0 C1.67 3.63 1.34 7.26 1 11 C0.01 10.34 -0.98 9.68 -2 9 C-1.34 6.03 -0.68 3.06 0 0 Z " fill="#EBEBEB" transform="translate(86,223)"/>
<path d="M0 0 C0.33 0.66 0.66 1.32 1 2 C2.65 2 4.3 2 6 2 C6.33 2.99 6.66 3.98 7 5 C3.98968256 5.93423645 3.13349732 6.04449911 0 5 C0 3.35 0 1.7 0 0 Z " fill="#E2E2E3" transform="translate(197,86)"/>
<path d="M0 0 C0.66 0 1.32 0 2 0 C4 2 4 2 4.1953125 3.9453125 C4.13020833 5.96354167 4.06510417 7.98177083 4 10 C1.16625119 6.79663178 0.4794463 4.21912747 0 0 Z " fill="#383D3F" transform="translate(87,253)"/>
<path d="M0 0 C-0.66 0.66 -1.32 1.32 -2 2 C-4.72869407 1.96712417 -7.2966618 1.43602229 -10 1 C-6.1496895 -1.56687367 -4.41430237 -0.83288724 0 0 Z " fill="#1F262C" transform="translate(53,374)"/>
<path d="M0 0 C1.32 0 2.64 0 4 0 C4 1.98 4 3.96 4 6 C3.01 6 2.02 6 1 6 C0.67 4.02 0.34 2.04 0 0 Z " fill="#EBEBEB" transform="translate(281,195)"/>
<path d="M0 0 C-2.57089417 2.11180592 -4.63060567 3.66306057 -8 4 C-8.66 3.34 -9.32 2.68 -10 2 C-3.375 -1.125 -3.375 -1.125 0 0 Z " fill="#3A3E40" transform="translate(182,139)"/>
<path d="M0 0 C0.33 1.65 0.66 3.3 1 5 C-0.32 5.33 -1.64 5.66 -3 6 C-3.33 4.35 -3.66 2.7 -4 1 C-2 0 -2 0 0 0 Z " fill="#EEEEEE" transform="translate(204,124)"/>
<path d="M0 0 C0.99 0.66 1.98 1.32 3 2 C1.75 3.5 1.75 3.5 0 5 C-1.32 5 -2.64 5 -4 5 C-2.25 1.125 -2.25 1.125 0 0 Z " fill="#EEEEEE" transform="translate(196,96)"/>
<path d="M0 0 C1.0625 1.8125 1.0625 1.8125 2 4 C1.67 4.99 1.34 5.98 1 7 C0.01 7 -0.98 7 -2 7 C-2 5.02 -2 3.04 -2 1 C-1.34 0.67 -0.68 0.34 0 0 Z " fill="#FAFAFA" transform="translate(85,248)"/>
<path d="M0 0 C0.99 0.33 1.98 0.66 3 1 C4.09658936 4.28976808 3.79953138 5.71303767 3 9 C2.67 9 2.34 9 2 9 C1.67 7.35 1.34 5.7 1 4 C0.34 4 -0.32 4 -1 4 C-0.67 2.68 -0.34 1.36 0 0 Z " fill="#EEEEEE" transform="translate(124,169)"/>
<path d="M0 0 C0.66 0 1.32 0 2 0 C2.33 1.65 2.66 3.3 3 5 C1.68 5.33 0.36 5.66 -1 6 C-1.042721 4.33388095 -1.04063832 2.66617115 -1 1 C-0.67 0.67 -0.34 0.34 0 0 Z " fill="#ECECEC" transform="translate(205,139)"/>
<path d="M0 0 C2.64 0.33 5.28 0.66 8 1 C4.77208445 3.1519437 3.71599191 3.20086443 0 3 C0 2.01 0 1.02 0 0 Z " fill="#22282E" transform="translate(98,388)"/>
</svg>
