<?xml version="1.0" encoding="UTF-8"?>
<svg version="1.1" xmlns="http://www.w3.org/2000/svg" width="487" height="499">
<path d="M0 0 C5.21186255 5.02962959 9.12228295 10.64738622 9.35742283 18.00806713 C9.36164084 19.6663583 9.36025309 21.32466894 9.35462952 22.98295593 C9.35591115 24.35274911 9.35591115 24.35274911 9.35721868 25.75021487 C9.35887116 28.82267272 9.35335587 31.89507645 9.34790039 34.9675293 C9.34761844 37.16498819 9.3477764 39.36244717 9.3483429 41.55990601 C9.34863057 47.53681868 9.34273859 53.5137114 9.33576894 59.49061942 C9.3295305 65.73266229 9.32893121 71.97470559 9.32774353 78.2167511 C9.32498554 88.69731977 9.31873334 99.17788226 9.30981445 109.65844727 C9.30063704 120.45401981 9.29355781 131.24959036 9.28930664 142.04516602 C9.28891256 143.04313378 9.28891256 143.04313378 9.28851051 144.06126251 C9.28720548 147.39889849 9.28594403 150.73653447 9.28469861 154.07417047 C9.27423749 181.76820209 9.25664084 209.46222553 9.234375 237.15625 C9.7762294 237.43594131 10.3180838 237.71563263 10.87635803 238.00379944 C13.36392098 239.29103857 15.84797437 240.5849151 18.33203125 241.87890625 C19.18430298 242.31867798 20.03657471 242.75844971 20.91467285 243.21154785 C49.03481218 257.89793894 69.00218852 283.42841827 79.234375 313.15625 C86.14942513 336.24100806 86.57211468 360.90912705 80.234375 384.15625 C80.05777344 384.8251123 79.88117188 385.49397461 79.69921875 386.18310547 C71.75080595 415.39352251 50.50116498 441.02707006 24.63671875 456.28125 C-3.89514314 472.00489375 -38.63675756 477.98390125 -70.42089844 468.88818359 C-97.94728802 460.2955018 -124.5931904 443.31845589 -139.765625 418.15625 C-140.43078125 417.06570313 -141.0959375 415.97515625 -141.78125 414.8515625 C-142.48694495 413.66298043 -143.19002872 412.47284454 -143.890625 411.28125 C-144.24431152 410.68820068 -144.59799805 410.09515137 -144.96240234 409.48413086 C-147.20049768 405.58789235 -148.25515063 402.05944365 -149.265625 397.71875 C-150.57823882 394.31768189 -151.73459081 392.64100466 -155.06494141 391.07519531 C-161.18598696 388.9335275 -167.48662669 387.48307893 -173.78125 385.95068359 C-188.22635376 382.10543101 -204.88540913 373.95658886 -213.109375 361.046875 C-215.9028675 355.73923925 -216.89840675 350.86192851 -216.86328125 344.85546875 C-216.86005859 343.87900391 -216.85683594 342.90253906 -216.85351562 341.89648438 C-216.84513672 340.88908203 -216.83675781 339.88167969 -216.828125 338.84375 C-216.82361328 337.81701172 -216.81910156 336.79027344 -216.81445312 335.73242188 C-216.80270684 333.20697118 -216.78628065 330.68164095 -216.765625 328.15625 C-217.49112549 328.48874756 -218.21662598 328.82124512 -218.96411133 329.16381836 C-242.35730244 339.72319938 -268.57543702 342.38675437 -293.953125 342.40625 C-294.74631134 342.40692474 -295.53949768 342.40759949 -296.35671997 342.40829468 C-330.78654658 342.36200349 -370.15090115 337.43446003 -396.046875 312.50390625 C-400.79992904 306.01166653 -402.35932771 299.68185893 -402.2802887 291.75123596 C-402.29070699 290.39658711 -402.29070699 290.39658711 -402.30133575 289.01457161 C-402.31952048 286.01149204 -402.30936523 283.00921009 -402.29907227 280.00610352 C-402.30613503 277.84368299 -402.31488155 275.6812674 -402.32518005 273.51885986 C-402.34764325 267.66138885 -402.34474141 261.80418843 -402.33585858 255.9466908 C-402.33074128 251.05106656 -402.33804729 246.15549284 -402.34533066 241.25987381 C-402.36231988 229.70827898 -402.35877351 218.15681629 -402.34204102 206.60522461 C-402.32511841 194.6996079 -402.34095865 182.79435781 -402.3732639 170.88878113 C-402.39997791 160.65495488 -402.40723093 150.42124263 -402.39874882 140.18738502 C-402.39382522 134.08042795 -402.39600487 127.97369145 -402.41653633 121.86676216 C-402.43492177 116.12345836 -402.42889914 110.38068108 -402.40433693 104.6374054 C-402.39933831 102.53398843 -402.40279403 100.43053115 -402.41548538 98.32714653 C-402.5348626 76.83641986 -402.5348626 76.83641986 -394.390625 67.40625 C-393.524375 66.66375 -392.658125 65.92125 -391.765625 65.15625 C-390.8375 64.228125 -389.909375 63.3 -388.953125 62.34375 C-375.98555277 51.47222932 -357.42088595 46.41984723 -341.203125 42.90625 C-340.50920654 42.75510742 -339.81528809 42.60396484 -339.1003418 42.44824219 C-324.52119087 39.5161964 -309.96957512 38.77925633 -295.140625 38.84375 C-293.82934631 38.84648422 -293.82934631 38.84648422 -292.49157715 38.84927368 C-261.58050179 38.95748994 -231.96496509 43.87693943 -204.765625 59.15625 C-204.79180908 57.87572754 -204.81799316 56.59520508 -204.8449707 55.27587891 C-204.93605294 50.48634587 -204.99308403 45.69688806 -205.0402832 40.90673828 C-205.06529589 38.84085174 -205.09931736 36.77505252 -205.14282227 34.70947266 C-205.20406058 31.72536576 -205.2319676 28.74243713 -205.25390625 25.7578125 C-205.27971268 24.84697906 -205.3055191 23.93614563 -205.33210754 22.99771118 C-205.33589778 14.16423656 -202.09166152 7.43022604 -196.140625 0.96875 C-152.31353491 -39.52455402 -45.10434571 -37.34754741 0 0 Z " fill="#30AFE2" transform="translate(402.765625,26.84375)"/>
<path d="M0 0 C1.06830058 1.60245087 2.12699474 3.21299469 3.11328125 4.8671875 C13.42665732 22.13453375 33.35679657 29.73693368 52.02636719 34.51904297 C67.60377467 38.42222557 82.95333637 40.13661698 99 40.5 C100.55763062 40.56429199 100.55763062 40.56429199 102.14672852 40.62988281 C110.05996167 40.69850017 114.57597612 38.41555484 121 34 C137.37645974 24.83872467 156.03808921 19.58318365 174.8125 20.16796875 C176.04379639 20.19866455 177.27509277 20.22936035 178.54370117 20.26098633 C181.00627307 20.33548403 183.46807743 20.44704309 185.92700195 20.6003418 C193.87188782 20.85147803 198.0510354 19.48373173 204.00073242 14.15795898 C206.89361205 11.0354577 209.00957694 7.74033667 211 4 C211.66 3.01 212.32 2.02 213 1 C214.7057075 7.53854541 213.05715199 12.07428657 210 18 C209.03235967 19.35700036 208.04115841 20.69855198 207 22 C211.61453383 24.05417386 216.15891543 25.71712673 221 27.1875 C249.34989659 36.32369021 273.48102055 58.74795743 287 85 C300.81268703 113.15733677 304.28990962 144.5922272 296 175 C295.82339844 175.6688623 295.64679688 176.33772461 295.46484375 177.02685547 C287.51643095 206.23727251 266.26678998 231.87082006 240.40234375 247.125 C211.87048186 262.84864375 177.12886744 268.82765125 145.34472656 259.73193359 C117.81833698 251.1392518 91.1724346 234.16220589 76 209 C75.33484375 207.90945313 74.6696875 206.81890625 73.984375 205.6953125 C63.96587527 188.92819168 56.88686428 169.10986353 56.8671875 149.3515625 C56.86589844 148.09859375 56.86460937 146.845625 56.86328125 145.5546875 C56.86714844 144.25789062 56.87101562 142.96109375 56.875 141.625 C56.87113281 140.3359375 56.86726563 139.046875 56.86328125 137.71875 C56.86978207 131.38695532 57.00208573 125.25676406 58 119 C57.46334717 118.86537354 56.92669434 118.73074707 56.3737793 118.59204102 C36.08193276 113.40220576 13.69039111 106.76080416 2.0234375 87.9453125 C0.09493848 84.27969223 -0.11042879 81.38644731 -0.0625 77.3125 C-0.05347656 76.31863281 -0.04445312 75.32476562 -0.03515625 74.30078125 C-0.01775391 73.16189453 -0.01775391 73.16189453 0 72 C1.54652237 74.31978355 3.069056 76.64615393 4.5625 79 C4.99691406 79.680625 5.43132812 80.36125 5.87890625 81.0625 C7 83 7 83 8 86 C9.83193403 87.03885082 9.83193403 87.03885082 12 88 C13.49175537 89.06593201 14.96984813 90.15111732 16.4375 91.25 C29.03837855 100.12956646 44.82162199 105.60717335 60 108 C60.268125 107.319375 60.53625 106.63875 60.8125 105.9375 C69.25875281 85.04413779 79.89579039 67.98979249 96 52 C95.23147705 51.93530518 94.4629541 51.87061035 93.67114258 51.80395508 C63.54641831 49.18900062 26.40641058 45.16565685 5 21 C0.18660371 14.21594264 -0.70024845 8.18512638 0 0 Z " fill="#FDFEFE" transform="translate(187,236)"/>
<path d="M0 0 C4.94799655 4.77498968 9.05634474 10.3912966 9.38827515 17.41090393 C9.40641405 18.77330747 9.41898817 20.13579175 9.42724609 21.49829102 C9.43542358 22.24344467 9.44360107 22.98859833 9.45202637 23.7563324 C9.47684995 26.22426562 9.49339334 28.6921412 9.5078125 31.16015625 C9.51313618 32.00546339 9.51845985 32.85077053 9.52394485 33.72169304 C9.55067009 38.20060188 9.57004235 42.67948299 9.58447266 47.15844727 C9.59778152 50.85303676 9.62557796 54.54706997 9.66650391 58.24145508 C9.71602729 62.71241554 9.74061832 67.18287361 9.74769974 71.6540966 C9.75438162 73.35124127 9.76952319 75.04837608 9.79359055 76.74536324 C9.94708974 88.22870898 9.04328197 96.95438508 1.109375 105.84375 C-3.27590497 109.86358998 -8.24835561 113.88586923 -13.765625 116.15625 C-17.31924038 115.26242906 -20.09260266 113.39548563 -23.140625 111.40625 C-29.66427189 107.43196289 -36.61436267 104.75115842 -43.765625 102.15625 C-44.78140625 101.785 -45.7971875 101.41375 -46.84375 101.03125 C-62.84215881 95.67052663 -80.45364742 93.03963111 -97.3125 92.953125 C-98.20439026 92.94742493 -99.09628052 92.94172485 -100.01519775 92.93585205 C-101.89765257 92.92645926 -103.7801234 92.91989102 -105.66259766 92.91601562 C-108.46678583 92.90641717 -111.27020527 92.8753835 -114.07421875 92.84375 C-130.40291442 92.74795235 -146.49876718 94.48369016 -162.390625 98.34375 C-163.24052002 98.5487915 -164.09041504 98.75383301 -164.96606445 98.96508789 C-178.29776545 102.37724372 -195.12924126 107.88747858 -204.765625 118.15625 C-205.755625 117.82625 -206.745625 117.49625 -207.765625 117.15625 C-210.06374165 118.25204072 -212.23739977 119.4122031 -214.453125 120.65625 C-230.55378137 129.14282135 -248.53200126 132.95171369 -266.5078125 134.90625 C-267.92683161 135.06337322 -269.34413933 135.23792261 -270.7578125 135.4375 C-278.75522499 136.5120084 -286.83607547 136.40014305 -294.890625 136.40625 C-295.69008545 136.40692474 -296.4895459 136.40759949 -297.31323242 136.40829468 C-327.95980634 136.36732537 -362.42667093 131.9621404 -387.765625 113.15625 C-388.35214844 112.75019531 -388.93867188 112.34414062 -389.54296875 111.92578125 C-395.71253681 107.32607784 -399.74848081 100.47875972 -401.765625 93.15625 C-402.82454116 84.37281913 -401.7789553 77.50361011 -396.765625 70.15625 C-394.390625 67.40625 -394.390625 67.40625 -391.765625 65.15625 C-390.8375 64.228125 -389.909375 63.3 -388.953125 62.34375 C-375.98555277 51.47222932 -357.42088595 46.41984723 -341.203125 42.90625 C-340.50920654 42.75510742 -339.81528809 42.60396484 -339.1003418 42.44824219 C-324.52119087 39.5161964 -309.96957512 38.77925633 -295.140625 38.84375 C-293.82934631 38.84648422 -293.82934631 38.84648422 -292.49157715 38.84927368 C-261.58050179 38.95748994 -231.96496509 43.87693943 -204.765625 59.15625 C-204.79180908 57.87572754 -204.81799316 56.59520508 -204.8449707 55.27587891 C-204.93605294 50.48634587 -204.99308403 45.69688806 -205.0402832 40.90673828 C-205.06529589 38.84085174 -205.09931736 36.77505252 -205.14282227 34.70947266 C-205.20406058 31.72536576 -205.2319676 28.74243713 -205.25390625 25.7578125 C-205.27971268 24.84697906 -205.3055191 23.93614563 -205.33210754 22.99771118 C-205.33589778 14.16423656 -202.09166152 7.43022604 -196.140625 0.96875 C-152.31353491 -39.52455402 -45.10434571 -37.34754741 0 0 Z " fill="#30AFE2" transform="translate(402.765625,26.84375)"/>
<path d="M0 0 C0.79159515 -0.00040283 1.58319031 -0.00080566 2.39877319 -0.0012207 C31.27917387 0.0823851 68.83498566 3.45290673 90.9375 24.0625 C91.74316406 24.79726563 92.54882812 25.53203125 93.37890625 26.2890625 C96.93048125 30.11169704 97.86129727 33.13759886 97.67578125 38.4296875 C96.79208696 44.3286338 91.63970249 48.63367018 87.31640625 52.3515625 C53.45539993 76.36454706 -0.56987357 76.4911049 -39.58056641 69.86474609 C-58.80615186 66.2908376 -81.00275212 59.91864126 -94.125 44.5 C-95.95881495 40.75596115 -97.16366136 37.59505526 -96.625 33.4375 C-92.3124278 22.97184361 -81.71966858 17.51338924 -72.0078125 12.84375 C-65.39420508 10.09444437 -58.54629426 8.24098978 -51.625 6.4375 C-50.91649902 6.24913574 -50.20799805 6.06077148 -49.47802734 5.86669922 C-33.13152819 1.56855141 -16.86335439 -0.00894287 0 0 Z " fill="#FDFCF9" transform="translate(304.625,10.5625)"/>
<path d="M0 0 C8.80214463 8.42788021 8.80214463 8.42788021 9.25 14.25 C8.84366069 20.34508963 6.5912201 23.68610036 2.3125 27.875 C-20.84954009 47.38771544 -57.29883588 51.45412688 -86.4375 51.3125 C-87.22036377 51.31067719 -88.00322754 51.30885437 -88.80981445 51.30697632 C-117.87475904 51.19366054 -156.4845776 48.35260494 -178.9296875 27.1796875 C-182.56642498 23.16013555 -184.54486102 19.56015674 -185.5 14.1875 C-184.36819447 6.97223977 -178.39552724 1.88693948 -172.734375 -2.2734375 C-162.89749666 -8.48472353 -152.26296221 -12.26420161 -141 -15 C-140.31566895 -15.17128418 -139.63133789 -15.34256836 -138.92626953 -15.51904297 C-96.91700245 -25.95290229 -36.49078676 -26.81397071 0 0 Z " fill="#FDFCF9" transform="translate(196,97)"/>
<path d="M0 0 C2.55981104 0.01073501 5.11892069 0.0000205 7.67871094 -0.01269531 C18.45730546 -0.02167947 28.88738065 0.74170075 39.56152344 2.26074219 C40.2816713 2.36096176 41.00181915 2.46118134 41.74378967 2.56443787 C61.64961577 5.35342539 84.67396828 11.84778052 98.56152344 27.26074219 C101.15579233 31.4566176 101.21687067 35.45486247 100.56152344 40.26074219 C95.03788525 51.76832174 82.15183762 57.51202145 70.74511719 61.70605469 C49.89989245 69.01510696 29.28065452 71.78443139 7.29174805 71.65185547 C4.13058223 71.63577555 0.97069772 71.65180093 -2.19042969 71.67089844 C-18.72506845 71.68876441 -35.07965691 70.3810655 -51.00097656 65.63574219 C-51.8546582 65.3848584 -52.70833984 65.13397461 -53.58789062 64.87548828 C-67.64293003 60.53990983 -82.88818408 54.78844035 -91.50097656 42.26074219 C-93.14064486 37.01380364 -93.36541504 33.11461915 -90.87597656 28.13574219 C-74.3099189 8.59628956 -44.16789757 2.71732383 -19.82733154 0.44076538 C-13.22886892 -0.05649223 -6.61344409 -0.03285242 0 0 Z " fill="#FEFCF9" transform="translate(289.4384765625,128.7392578125)"/>
<path d="M0 0 C5.19849935 5.01673364 9.32548919 10.89306004 9.484375 18.28125 C9.29192768 27.44470299 6.13623493 33.22907765 -0.19921875 39.80859375 C-10.86297091 49.56341117 -25.8343597 55.68347061 -39.765625 59.15625 C-40.96960938 59.47207031 -42.17359375 59.78789063 -43.4140625 60.11328125 C-47.84095165 61.24358484 -52.2934433 62.22302289 -56.765625 63.15625 C-57.85157959 63.38924805 -57.85157959 63.38924805 -58.95947266 63.62695312 C-98.6813121 71.77050308 -149.30648947 68.224367 -184.69140625 47.4375 C-194.29000615 41.02872313 -202.17884832 33.69725366 -204.765625 22.15625 C-205.65008104 15.45965427 -203.32427804 10.67650203 -199.765625 5.15625 C-182.98324606 -15.95461581 -150.12786826 -22.17001043 -124.89868164 -25.06982422 C-84.21581695 -28.97412985 -32.93778718 -27.27332696 0 0 Z M-136.765625 -12.84375 C-137.63525879 -12.66682617 -138.50489258 -12.48990234 -139.40087891 -12.30761719 C-155.62923813 -8.94401597 -171.19269876 -4.72558787 -184.765625 5.15625 C-185.38050781 5.58808594 -185.99539062 6.01992188 -186.62890625 6.46484375 C-190.41611655 9.33109472 -193.26236782 12.63714147 -194.765625 17.15625 C-195.0955939 21.30902938 -194.11434243 24.42849189 -192.328125 28.15625 C-175.42811772 47.94162437 -144.94396677 53.70833701 -120.328125 55.78125 C-99.32218646 56.95306889 -78.53308064 56.66745641 -57.765625 53.15625 C-56.8984082 53.01171387 -56.03119141 52.86717773 -55.13769531 52.71826172 C-36.71380402 49.53479945 -14.75984448 43.42448214 -2.765625 28.15625 C-0.45908053 24.26633507 -0.09245151 20.60092109 -0.765625 16.15625 C-7.0541519 3.31717425 -22.36218206 -2.69244601 -35.09008789 -7.28442383 C-66.69932964 -17.8323316 -104.14802414 -19.73657634 -136.765625 -12.84375 Z " fill="#269BE1" transform="translate(402.765625,26.84375)"/>
<path d="M0 0 C1.31127869 0.00273422 1.31127869 0.00273422 2.64904785 0.00552368 C33.01303535 0.11182465 63.88484342 4.48575391 90.375 20.3125 C90.375 20.9725 90.375 21.6325 90.375 22.3125 C90.96410156 22.58964844 91.55320313 22.86679688 92.16015625 23.15234375 C99.08943741 26.78196721 103.35083926 32.17246903 106.375 39.3125 C108.1169913 45.81593417 107.18398693 51.61258597 104.25390625 57.60546875 C93.40056268 75.46890392 70.24545557 82.20426111 51.0625 87 C42.68240204 88.80873123 34.15331424 89.8797528 25.65820312 90.99804688 C23.80019544 91.25394015 21.94927558 91.5608959 20.1015625 91.8828125 C-16.43410177 96.09552012 -63.89665089 91.74543401 -93.625 68.3125 C-100.82102357 62.33026354 -105.20182226 56.52417951 -107.03125 47.25390625 C-107.5149267 41.24422329 -104.75181145 36.28266586 -101.625 31.3125 C-99.25 28.5625 -99.25 28.5625 -96.625 26.3125 C-95.696875 25.384375 -94.76875 24.45625 -93.8125 23.5 C-80.84492777 12.62847932 -62.28026095 7.57609723 -46.0625 4.0625 C-45.02162231 3.83578613 -45.02162231 3.83578613 -43.9597168 3.60449219 C-29.38056587 0.6724464 -14.82895012 -0.06449367 0 0 Z M-90.109375 33.6875 C-94.74133659 38.32673066 -94.74133659 38.32673066 -96.64453125 44.265625 C-95.9786475 51.65316548 -93.56558721 55.86570473 -87.875 60.6875 C-56.33158266 83.88420139 -7.70596585 86.46399211 29.86132812 81.1340332 C34.73172078 80.32809918 39.55668836 79.38564966 44.375 78.3125 C45.24914551 78.11994629 46.12329102 77.92739258 47.02392578 77.72900391 C64.8163816 73.68848605 85.4731459 68.08247762 96.375 52.3125 C97.61622431 48.58882708 97.82560151 46.23917034 97.375 42.3125 C90.54208582 29.03786902 75.47617031 23.25905097 62.08984375 18.8671875 C19.90647941 5.68428408 -55.10089841 0.22027709 -90.109375 33.6875 Z " fill="#269AE1" transform="translate(107.625,65.6875)"/>
<path d="M0 0 C0.92678558 0.00237671 1.85357117 0.00475342 2.80844116 0.00720215 C23.16593467 0.08844605 43.53100074 1.61020614 62.875 8.4375 C63.514375 8.65664062 64.15375 8.87578125 64.8125 9.1015625 C79.97449501 14.32785623 96.8039645 21.048729 105.0703125 35.7109375 C107.79603162 41.55932514 107.79581066 48.36818136 105.875 54.5 C100.25593416 67.40304007 86.36847354 74.64474032 73.93994141 79.64746094 C38.21933276 93.31403573 -4.59086209 96.24484231 -42.125 88.4375 C-43.00978027 88.26057617 -43.89456055 88.08365234 -44.80615234 87.90136719 C-65.13499196 83.74881889 -90.3666445 76.84992343 -102.6875 58.75 C-106.13327065 52.37876025 -107.14222061 45.33395175 -105.6640625 38.21875 C-101.29617086 27.66661574 -90.1294284 19.92441073 -80.125 15.4375 C-79.23264648 15.02056885 -79.23264648 15.02056885 -78.32226562 14.59521484 C-70.060593 10.76301837 -61.72756072 7.83521691 -52.875 5.6875 C-51.73635498 5.40797485 -51.73635498 5.40797485 -50.57470703 5.12280273 C-33.84507738 1.33050404 -17.11775137 -0.11670096 0 0 Z M-43.125 13.4375 C-44.0329834 13.63617676 -44.9409668 13.83485352 -45.87646484 14.03955078 C-63.23715273 18.00473783 -84.47988705 23.91337695 -95.125 39.4375 C-96.74016671 42.66783343 -96.56435756 45.93537454 -96.125 49.4375 C-91.02803221 61.5427985 -79.22373719 66.5785234 -67.76757812 71.39599609 C-63.46924666 73.09007241 -59.11971351 74.51260173 -54.6875 75.8125 C-53.92800049 76.03881104 -53.16850098 76.26512207 -52.38598633 76.49829102 C-36.18293985 80.92062501 -19.71734009 81.95284297 -2.99951172 81.88354492 C0.10907593 81.87504355 3.21581097 81.90392847 6.32421875 81.93554688 C27.6091307 82.01027233 47.86986374 78.73515517 67.875 71.4375 C69.02613281 71.025 70.17726563 70.6125 71.36328125 70.1875 C81.35984037 66.32605912 91.8940257 60.39944861 96.875 50.4375 C97.42203337 45.95361994 97.34532752 42.417349 95.375 38.3125 C77.94665877 18.26990759 47.45742679 12.7129258 22.13037109 10.61621094 C0.65185866 9.43709956 -22.03808926 8.82020084 -43.125 13.4375 Z " fill="#269BE1" transform="translate(293.125,118.5625)"/>
<path d="M0 0 C2 1 2 1 3.625 4.5625 C10.31248738 18.15554499 26.3803103 25.15926691 40 30 C51.14069469 33.77364568 62.35541654 36.38041885 74 38 C74.73992187 38.10441406 75.47984375 38.20882812 76.2421875 38.31640625 C113.98489714 43.40458724 150.15289836 38.12096242 186 26 C186 29.3 186 32.6 186 36 C180.12481465 39.14839215 174.41682391 41.29193302 168 43.0625 C166.61687622 43.44873535 166.61687622 43.44873535 165.20581055 43.84277344 C157.19569638 46.03207978 149.21631893 47.75310135 141 49 C139.74832031 49.20496094 138.49664062 49.40992188 137.20703125 49.62109375 C96.47165886 55.60484892 47.00716832 51.51786361 12.5625 27.28515625 C6.63971161 22.51776029 2.40516447 16.21549342 0 9 C-0.06740865 7.43881572 -0.08514456 5.8749748 -0.0625 4.3125 C-0.05347656 3.50425781 -0.04445312 2.69601562 -0.03515625 1.86328125 C-0.02355469 1.24839844 -0.01195313 0.63351562 0 0 Z " fill="#F8FAF9" transform="translate(1,256)"/>
<path d="M0 0 C2 1 2 1 3.625 4.5625 C8.687205 14.85198191 18.15434739 20.00783812 28 25 C29.04671875 25.53625 30.0934375 26.0725 31.171875 26.625 C63.85460744 41.93008446 103.85949474 42.81655574 139 38 C140.12293457 37.85522217 140.12293457 37.85522217 141.26855469 37.70751953 C156.73335659 35.66809459 171.25773618 30.94845219 186 26 C186 29.3 186 32.6 186 36 C180.10502704 39.16265641 174.3789714 41.29281293 167.9375 43.0625 C167.01356445 43.31999023 166.08962891 43.57748047 165.13769531 43.84277344 C146.10395494 49.05541528 127.13210346 51.40931783 107.4375 51.3125 C106.27069702 51.30976578 106.27069702 51.30976578 105.08032227 51.30697632 C72.21863032 51.17820399 33.14060987 46.4234754 8 23 C1.48250315 15.82130781 -0.38346764 9.586691 0 0 Z " fill="#F8FAF9" transform="translate(1,184)"/>
<path d="M0 0 C1.18078125 -0.03738281 2.3615625 -0.07476562 3.578125 -0.11328125 C13.36166428 -0.21243874 13.36166428 -0.21243874 17.046875 2.109375 C20.48128265 7.20009273 19.96734438 12.00944544 19.75 18 C19.7396875 19.1446875 19.729375 20.289375 19.71875 21.46875 C19.55985169 29.91022246 19.55985169 29.91022246 17.25 33.375 C16.59 33.375 15.93 33.375 15.25 33.375 C15.25 34.035 15.25 34.695 15.25 35.375 C15.86875 35.643125 16.4875 35.91125 17.125 36.1875 C19.25 37.375 19.25 37.375 21.25 40.375 C19.83506449 40.48384119 18.41767057 40.56097617 17 40.625 C16.21109375 40.67140625 15.4221875 40.7178125 14.609375 40.765625 C12.25 40.375 12.25 40.375 10.60546875 38.39453125 C6.82669364 35.15468592 2.63060583 35.81578433 -2.1875 35.8125 C-13.7227459 35.75723188 -13.7227459 35.75723188 -17.75 32.375 C-19.86070592 28.15358817 -19.02376262 22.63815515 -19.0625 18 C-19.09150391 16.85015625 -19.12050781 15.7003125 -19.15039062 14.515625 C-19.15876953 13.40960938 -19.16714844 12.30359375 -19.17578125 11.1640625 C-19.19036377 10.15037598 -19.20494629 9.13668945 -19.2199707 8.09228516 C-18.62728822 4.66550282 -17.41290812 3.53321035 -14.75 1.375 C-10.43268226 -0.78365887 -4.74204364 0.05620957 0 0 Z " fill="#057891" transform="translate(409.75,360.625)"/>
<path d="M0 0 C0.33 0 0.66 0 1 0 C1.5935845 8.31018306 -0.79021019 13.43669277 -5.875 19.9375 C-23.30272953 38.85160306 -53.29723823 44.95229059 -77.69384766 47.73388672 C-79.13319158 47.89997659 -80.5709545 48.08132661 -82.00537109 48.28564453 C-89.99764401 49.35831693 -98.07572383 49.24389705 -106.125 49.25 C-106.92446045 49.25067474 -107.7239209 49.25134949 -108.54760742 49.25204468 C-139.19418134 49.21107537 -173.66104593 44.8058904 -199 26 C-199.58652344 25.59394531 -200.17304688 25.18789062 -200.77734375 24.76953125 C-206.73033839 20.33129352 -211.35813523 13.22420497 -213 6 C-213.125 3.125 -213.125 3.125 -213 1 C-211.45762473 3.3135629 -210.45951057 5.18907145 -209.375 7.6875 C-202.06010776 22.23748565 -185.08077823 29.2524956 -170.43310547 34.21826172 C-137.81814508 44.69720043 -101.57996344 46.02226214 -68 40 C-67.30422852 39.88253418 -66.60845703 39.76506836 -65.89160156 39.64404297 C-46.1107717 36.28862813 -18.40364646 29.99309506 -5.59765625 13.15625 C-2.77921643 8.90816679 -1.13648522 4.95920824 0 0 Z " fill="#F2F7F8" transform="translate(214,114)"/>
<path d="M0 0 C0.28101563 0.56332031 0.56203125 1.12664062 0.8515625 1.70703125 C1.42003906 2.84205078 1.42003906 2.84205078 2 4 C2.35835937 4.74636719 2.71671875 5.49273437 3.0859375 6.26171875 C10.93841964 21.03866241 28.11407179 28.25374707 43.375 33.25 C48.62258741 34.72874658 53.92586379 35.95673486 59.25 37.125 C59.96333496 37.28387695 60.67666992 37.44275391 61.41162109 37.60644531 C76.11146782 40.66555909 90.84182517 41.4128326 105.8125 41.375 C106.70429962 41.3737915 107.59609924 41.37258301 108.5149231 41.37133789 C139.89823613 41.25665606 180.41925936 37.87566937 204.41796875 14.90625 C207.45306165 11.2491504 209.77610751 7.18664608 212 3 C212.87797881 5.44380089 213.07579638 6.73402362 212.35546875 9.26171875 C204.84301527 24.86450675 188.97241645 32.29193022 173.38208008 37.91479492 C127.45847546 53.57763642 70.47335901 53.24392998 26.2890625 32.27734375 C15.62776345 26.82243666 5.5446435 20.27083483 0.6875 8.9375 C-0.03360536 5.85641348 -0.15015349 3.15322321 0 0 Z " fill="#F0F7F8" transform="translate(187,168)"/>
<path d="M0 0 C4.27586706 1.48102658 6.3741558 5.30974899 8.33813477 9.15576172 C9.587425 11.90806118 10.76097503 14.68105013 11.91015625 17.4765625 C12.52020508 18.91322266 12.52020508 18.91322266 13.14257812 20.37890625 C16.09765625 27.42142857 16.09765625 27.42142857 16.09765625 29.7265625 C16.75765625 29.7265625 17.41765625 29.7265625 18.09765625 29.7265625 C18.33742188 28.94667969 18.5771875 28.16679687 18.82421875 27.36328125 C20.47631661 22.64517357 22.4481275 18.10748441 24.47265625 13.5390625 C24.859375 12.63736328 25.24609375 11.73566406 25.64453125 10.80664062 C26.02867187 9.94103516 26.4128125 9.07542969 26.80859375 8.18359375 C27.15196777 7.39960205 27.4953418 6.61561035 27.84912109 5.80786133 C29.29525541 3.39716616 30.71366104 2.1932783 33.09765625 0.7265625 C35.38671875 0.58203125 35.38671875 0.58203125 37.72265625 0.9140625 C38.88667969 1.05908203 38.88667969 1.05908203 40.07421875 1.20703125 C42.09765625 1.7265625 42.09765625 1.7265625 44.09765625 3.7265625 C44.27261231 6.23577096 44.32935194 8.63281191 44.29296875 11.140625 C44.29013885 11.87026459 44.28730896 12.59990417 44.28439331 13.35165405 C44.27318627 15.68512278 44.24808135 18.01820953 44.22265625 20.3515625 C44.2126271 21.93228613 44.20350114 23.51301577 44.1953125 25.09375 C44.1732453 28.97150164 44.1387124 32.84896728 44.09765625 36.7265625 C41.45765625 36.7265625 38.81765625 36.7265625 36.09765625 36.7265625 C35.60265625 23.8565625 35.60265625 23.8565625 35.09765625 10.7265625 C31.64556195 18.484501 31.64556195 18.484501 28.21777344 26.25317383 C27.56276855 27.70373169 27.56276855 27.70373169 26.89453125 29.18359375 C26.45463867 30.17335205 26.01474609 31.16311035 25.56152344 32.18286133 C24.00803857 34.88228742 22.76026706 36.15093634 20.09765625 37.7265625 C17.16015625 38.2890625 17.16015625 38.2890625 14.09765625 37.7265625 C8.89327731 32.66866442 6.5354862 26.46630363 3.78515625 19.8515625 C2.23828125 16.1803125 0.69140625 12.5090625 -0.90234375 8.7265625 C-1.23234375 17.9665625 -1.56234375 27.2065625 -1.90234375 36.7265625 C-4.54234375 36.7265625 -7.18234375 36.7265625 -9.90234375 36.7265625 C-10.00137848 32.24257466 -10.07388858 27.75916958 -10.12207031 23.27441406 C-10.14215974 21.74956165 -10.16943691 20.22478602 -10.20410156 18.70019531 C-10.25274171 16.50566652 -10.27533771 14.31215781 -10.29296875 12.1171875 C-10.31391602 10.79750977 -10.33486328 9.47783203 -10.35644531 8.11816406 C-9.90234375 4.7265625 -9.90234375 4.7265625 -8.12402344 2.30371094 C-5.46902965 0.41895711 -3.2213976 0.16651359 0 0 Z " fill="#0B7B94" transform="translate(257.90234375,359.2734375)"/>
<path d="M0 0 C2 3 2 3 3.1875 6.1875 C8.80088726 19.4912278 23.37286097 26.7741516 36 32 C58.87019228 40.4130293 82.94162181 43.41997417 107.1875 43.3125 C108.04439423 43.31067719 108.90128845 43.30885437 109.78414917 43.30697632 C122.75880236 43.26057836 135.26553879 42.64206914 148 40 C148.88316895 39.83371094 149.76633789 39.66742188 150.67626953 39.49609375 C171.12312204 35.64021795 193.50061409 28.83368523 208 13 C209.65132738 10.42711031 210.854279 7.82571605 212 5 C212.65729376 3.66202125 213.32161223 2.3274081 214 1 C214.82048332 8.54844654 211.89711095 14.18139833 207.37890625 20.13671875 C201.68031864 26.37452756 194.44576207 30.23386474 187 34 C185.94167969 34.53625 184.88335937 35.0725 183.79296875 35.625 C159.29051312 47.00219826 132.13431296 49.22769403 105.5 49.25 C104.24142685 49.25151062 104.24142685 49.25151062 102.95742798 49.25305176 C90.07933618 49.24261931 77.63948182 48.65363981 65 46 C64.26668457 45.85546387 63.53336914 45.71092773 62.77783203 45.56201172 C42.2127612 41.46171166 18.68677742 34.42982774 5.01953125 17.5546875 C1.26953162 11.8717902 0.02883147 6.77539503 0 0 Z " fill="#F4F8F8" transform="translate(198,49)"/>
<path d="M0 0 C3.81423391 0.37517055 5.74913852 1.33086766 8.9296875 3.36328125 C11.0571963 4.50648618 12.94743014 4.96849462 15.3125 5.4375 C27.68453979 7.91607363 38.56439833 15.94779512 45.64257812 26.36572266 C47.62693187 29.77374254 49.11770163 33.39667116 50.69628906 37.00585938 C56.25193484 49.98282572 56.25193484 49.98282572 67.84375 57.23828125 C68.8234375 57.61339844 69.803125 57.98851562 70.8125 58.375 C74.45407271 60.86947731 77.38095633 63.08036898 78.8125 67.375 C72.8725 68.365 72.8725 68.365 66.8125 69.375 C70.07989508 72.64239508 73.38981559 75.62071758 76.91015625 78.59375 C78.8213555 80.3832918 80.3081544 82.2379857 81.8125 84.375 C65.65993083 76.47302372 65.65993083 76.47302372 60.8125 69.375 C63.15841852 66.6039312 64.96026201 65.85440716 68.5 65.1875 C69.30824219 65.02894531 70.11648438 64.87039063 70.94921875 64.70703125 C71.87154297 64.54267578 71.87154297 64.54267578 72.8125 64.375 C67.65275592 60.71560704 62.69273352 57.66325993 56.7578125 55.4296875 C53.00236041 53.39359902 51.40833618 49.78612594 49.83203125 45.9609375 C43.48940041 30.97240543 36.75885288 18.35926583 21.2265625 11.1796875 C18.60930664 10.20674575 18.60930664 10.20674575 14.875 10 C10.67177383 9.56708345 8.27150518 7.80366321 4.8125 5.375 C2.49346828 4.52359079 0.22114656 3.95307517 -2.1875 3.375 C-0.65438523 7.24813204 0.95439622 10.70866834 3.25 14.1875 C5.72156673 17.99907279 7.34893812 21.92270674 8.91796875 26.17578125 C9.81941974 28.60240004 9.81941974 28.60240004 11.8125 31.375 C11.60717209 32.94918067 11.38935785 34.52261218 11.11328125 36.0859375 C10.12359274 43.61785269 10.15107686 51.22242531 12.8125 58.375 C13.4725 58.375 14.1325 58.375 14.8125 58.375 C14.750625 57.323125 14.68875 56.27125 14.625 55.1875 C14.8215428 51.19112976 15.41820516 49.50600094 17.8125 46.375 C18.8025 45.88 18.8025 45.88 19.8125 45.375 C21.15320318 47.97560504 22.48523354 50.58004916 23.8125 53.1875 C24.1940625 53.92548828 24.575625 54.66347656 24.96875 55.42382812 C25.3296875 56.13603516 25.690625 56.84824219 26.0625 57.58203125 C26.39765625 58.2366333 26.7328125 58.89123535 27.078125 59.56567383 C27.8125 61.375 27.8125 61.375 27.8125 64.375 C26.66407077 63.08564081 25.51883773 61.79343421 24.375 60.5 C23.73691406 59.78070313 23.09882813 59.06140625 22.44140625 58.3203125 C20.8125 56.375 20.8125 56.375 19.8125 54.375 C18.8225 56.685 17.8325 58.995 16.8125 61.375 C14.5625 61.25 14.5625 61.25 11.8125 60.375 C7.74460152 55.2901269 6.66947247 51.43523022 6.6875 45.0625 C6.69007813 44.09054687 6.69265625 43.11859375 6.6953125 42.1171875 C6.8125 39.375 6.8125 39.375 7.5625 35.6875 C7.86418428 31.69018332 6.91268523 29.95443691 4.984375 26.546875 C3.71343421 24.19139808 2.80265014 21.8217176 1.875 19.3125 C0.60276562 16.0077318 -0.77487185 13.36477873 -2.9375 10.5625 C-5.1875 7.375 -5.1875 7.375 -5.625 4.5625 C-4.88689505 0.87197527 -3.64408885 0.42871634 0 0 Z " fill="#148098" transform="translate(400.1875,286.625)"/>
<path d="M0 0 C2.31 0 4.62 0 7 0 C7.33 5.94 7.66 11.88 8 18 C14.93 18.33 21.86 18.66 29 19 C29 12.73 29 6.46 29 0 C31.31 0 33.62 0 36 0 C36.12383963 4.19911597 36.21444607 8.39725816 36.2746582 12.59765625 C36.29976347 14.02557901 36.33385587 15.45337375 36.37719727 16.88085938 C36.43803678 18.93651918 36.46624551 20.99047753 36.48828125 23.046875 C36.51446533 24.28276367 36.54064941 25.51865234 36.56762695 26.79199219 C36 30 36 30 33.65698242 32.37207031 C29.46623138 34.93973805 26.4140029 35.11952038 21.58203125 35.09765625 C20.32841797 35.09443359 19.07480469 35.09121094 17.78320312 35.08789062 C16.47287109 35.07951172 15.16253906 35.07113281 13.8125 35.0625 C12.47721519 35.05748317 11.14192859 35.05292059 9.80664062 35.04882812 C6.53771527 35.03702695 3.26888009 35.02056297 0 35 C0 33.35 0 31.7 0 30 C9.24 29.67 18.48 29.34 28 29 C28 27.35 28 25.7 28 24 C27.09290283 24.02356567 27.09290283 24.02356567 26.16748047 24.04760742 C23.40341704 24.1103188 20.63950379 24.14910411 17.875 24.1875 C16.44800781 24.22520508 16.44800781 24.22520508 14.9921875 24.26367188 C9.57694858 24.32008061 5.64312694 24.14362529 1 21 C-0.17426264 18.65147472 -0.11508173 17.26225935 -0.09765625 14.6484375 C-0.09443359 13.79765625 -0.09121094 12.946875 -0.08789062 12.0703125 C-0.07951172 11.18085938 -0.07113281 10.29140625 -0.0625 9.375 C-0.05798828 8.4778125 -0.05347656 7.580625 -0.04882812 6.65625 C-0.03702591 4.43743352 -0.02056155 2.21874982 0 0 Z " fill="#067891" transform="translate(309,372)"/>
<path d="M0 0 C1.36975108 0.02510778 2.73954635 0.04791661 4.109375 0.06835938 C7.44904622 0.1271564 10.78645431 0.20930166 14.125 0.3125 C14.125 1.9625 14.125 3.6125 14.125 5.3125 C5.545 5.6425 -3.035 5.9725 -11.875 6.3125 C-11.875 8.6225 -11.875 10.9325 -11.875 13.3125 C-9.6346977 15.5528023 -3.58121875 14.66616656 -0.39648438 14.7421875 C5.42041649 14.98434816 9.85725658 16.04475658 14.125 20.3125 C14.69548096 23.36907695 14.65363352 26.25171194 14.125 29.3125 C11.59531526 32.59425318 10.04768669 34.00493777 6.125 35.3125 C4.06001108 35.39565752 1.9924211 35.41985878 -0.07421875 35.41015625 C-1.28271484 35.40693359 -2.49121094 35.40371094 -3.73632812 35.40039062 C-5.6302832 35.38782227 -5.6302832 35.38782227 -7.5625 35.375 C-9.47385742 35.36823242 -9.47385742 35.36823242 -11.42382812 35.36132812 C-14.57426564 35.34952873 -17.72460949 35.33306597 -20.875 35.3125 C-20.875 33.6625 -20.875 32.0125 -20.875 30.3125 C-20.1229126 30.28744385 -19.3708252 30.2623877 -18.59594727 30.23657227 C-15.20960804 30.12099486 -11.82357387 29.99809655 -8.4375 29.875 C-7.25349609 29.83568359 -6.06949219 29.79636719 -4.84960938 29.75585938 C-3.72490234 29.71396484 -2.60019531 29.67207031 -1.44140625 29.62890625 C-0.39927979 29.59224854 0.64284668 29.55559082 1.71655273 29.51782227 C4.0749826 29.57734659 4.0749826 29.57734659 5.125 28.3125 C5.49260731 25.98432036 5.82741581 23.6506615 6.125 21.3125 C4.83464844 21.28671875 3.54429687 21.2609375 2.21484375 21.234375 C0.49736339 21.17806417 -1.22008322 21.12071752 -2.9375 21.0625 C-3.78505859 21.04832031 -4.63261719 21.03414063 -5.50585938 21.01953125 C-11.40318553 20.79183526 -15.03121886 19.73466676 -19.875 16.3125 C-21.00492055 14.05265891 -21.17299956 12.51523513 -21.3125 10 C-21.37308594 9.24074219 -21.43367188 8.48148437 -21.49609375 7.69921875 C-20.73833868 4.78734235 -19.52388823 3.1076741 -17.12817383 1.28295898 C-11.81943399 -1.00355536 -5.6728112 -0.18059767 0 0 Z " fill="#0A7A93" transform="translate(371.875,360.6875)"/>
<path d="M0 0 C1.18819336 -0.00386719 1.18819336 -0.00386719 2.40039062 -0.0078125 C3.22861328 -0.00007813 4.05683594 0.00765625 4.91015625 0.015625 C5.73451172 0.00789063 6.55886719 0.00015625 7.40820312 -0.0078125 C8.20162109 -0.00523437 8.99503906 -0.00265625 9.8125 0 C10.90099243 0.00338379 10.90099243 0.00338379 12.01147461 0.00683594 C13.97265625 0.265625 13.97265625 0.265625 16.97265625 2.265625 C17.31323242 4.42041016 17.31323242 4.42041016 17.265625 7.0546875 C17.25595703 7.99570312 17.24628906 8.93671875 17.23632812 9.90625 C17.21119141 10.89109375 17.18605469 11.8759375 17.16015625 12.890625 C17.13985352 14.37949219 17.13985352 14.37949219 17.11914062 15.8984375 C17.08371368 18.35470572 17.03431821 20.80989785 16.97265625 23.265625 C12.97265625 23.265625 12.97265625 23.265625 9.97265625 21.265625 C9.97265625 20.605625 9.97265625 19.945625 9.97265625 19.265625 C7.00265625 19.265625 4.03265625 19.265625 0.97265625 19.265625 C0.97265625 19.925625 0.97265625 20.585625 0.97265625 21.265625 C1.61203125 21.554375 2.25140625 21.843125 2.91015625 22.140625 C4.97265625 23.265625 4.97265625 23.265625 5.97265625 25.265625 C4.34801783 25.31957978 2.72287084 25.35839695 1.09765625 25.390625 C0.19273437 25.41382813 -0.7121875 25.43703125 -1.64453125 25.4609375 C-4.02734375 25.265625 -4.02734375 25.265625 -6.02734375 23.265625 C-6.28613281 21.14257812 -6.28613281 21.14257812 -6.29296875 18.546875 C-6.29554688 17.61488281 -6.298125 16.68289063 -6.30078125 15.72265625 C-6.29304688 14.74683594 -6.2853125 13.77101563 -6.27734375 12.765625 C-6.28507812 11.78980469 -6.2928125 10.81398438 -6.30078125 9.80859375 C-6.29820312 8.87660156 -6.295625 7.94460938 -6.29296875 6.984375 C-6.29071289 6.12779297 -6.28845703 5.27121094 -6.28613281 4.38867188 C-5.79030595 0.32102058 -3.58953261 0.01117613 0 0 Z " fill="#FBFCFD" transform="translate(405.02734375,365.734375)"/>
<path d="M0 0 C2.64 0 5.28 0 8 0 C8 9.57 8 19.14 8 29 C20.87 29.495 20.87 29.495 34 30 C34 31.65 34 33.3 34 35 C29.62522526 35.11651725 25.25085173 35.18736 20.875 35.25 C19.6375 35.28351563 18.4 35.31703125 17.125 35.3515625 C5.65718199 35.47487237 5.65718199 35.47487237 1 31 C-0.43509221 28.12981559 -0.11158506 25.66456277 -0.09765625 22.4609375 C-0.09443359 21.15898437 -0.09121094 19.85703125 -0.08789062 18.515625 C-0.07953466 17.13541601 -0.07106971 15.75520768 -0.0625 14.375 C-0.05748501 12.98698074 -0.0529221 11.59895978 -0.04882812 10.2109375 C-0.03700976 6.80724868 -0.02053434 3.40364561 0 0 Z " fill="#077892" transform="translate(434,361)"/>
<path d="M0 0 C0.33 0 0.66 0 1 0 C1.75224624 7.85679402 0.4435455 13.44149775 -4 20 C-7.85171183 24.64379773 -11.23431989 27.99802774 -17 30 C-18.98 28.35 -20.96 26.7 -23 25 C-20.50003853 22.1739566 -17.85996511 20.23143725 -14.6875 18.25 C-7.56695238 13.59290378 -2.83993187 8.01863117 0 0 Z " fill="#F7FAF9" transform="translate(411,119)"/>
<path d="M0 0 C0.33 0 0.66 0 1 0 C1.74612985 7.7929118 0.49796836 13.5202535 -4 20 C-6.21707916 22.29953252 -8.42504235 24.08140411 -11 26 C-11.69634157 21.36739425 -12.07486473 17.55341756 -9.32421875 13.578125 C-7.90022375 12.06822171 -6.45194802 10.58085361 -4.98046875 9.1171875 C-2.31878444 6.27175772 -1.24445884 3.65559783 0 0 Z " fill="#F2F8F8" transform="translate(411,191)"/>
<path d="M0 0 C1.8125 1.125 1.8125 1.125 3 3 C3.4375 6 3.4375 6 3 9 C1.3125 10.9375 1.3125 10.9375 -1 12 C-4.37036311 11.75925978 -5.58798021 11.41201979 -8 9 C-8.333728 5.86295684 -8.52849028 3.83445834 -6.8125 1.125 C-4.34492892 -0.40659584 -2.85480169 -0.42822025 0 0 Z " fill="#56A3B4" transform="translate(480,385)"/>
<path d="M0 0 C2.62187494 1.04874998 3.79371361 1.64931313 5.25 4.125 C5.4975 4.74375 5.745 5.3625 6 6 C4.35 6.33 2.7 6.66 1 7 C1 6.34 1 5.68 1 5 C-1.31 5 -3.62 5 -6 5 C-6 4.67 -6 4.34 -6 4 C-4.02 3.67 -2.04 3.34 0 3 C0 2.01 0 1.02 0 0 Z " fill="#2E8EA3" transform="translate(473,348)"/>
<path d="M0 0 C0.33 0.99 0.66 1.98 1 3 C1.66 3 2.32 3 3 3 C3 5.31 3 7.62 3 10 C2.01 10.33 1.02 10.66 0 11 C0 7.37 0 3.74 0 0 Z " fill="#2E8DA3" transform="translate(407,326)"/>
<path d="M0 0 C0.33 0 0.66 0 1 0 C1.17835515 4.54805635 0.99785435 7.8794254 -1 12 C-1.99 12 -2.98 12 -4 12 C-3.71125 11.319375 -3.4225 10.63875 -3.125 9.9375 C-1.87402645 6.67106907 -0.92552045 3.37153877 0 0 Z " fill="#DCEDF5" transform="translate(411,50)"/>
<path d="M0 0 C0.33 0 0.66 0 1 0 C1.16682272 4.92127034 1.24828052 8.50343896 -1 13 C-2.53690745 10.58959839 -3.09752136 9.49917715 -2.5390625 6.640625 C-2.23742187 5.85171875 -1.93578125 5.0628125 -1.625 4.25 C-1.32851562 3.45078125 -1.03203125 2.6515625 -0.7265625 1.828125 C-0.48679688 1.22484375 -0.24703125 0.6215625 0 0 Z " fill="#BCE1F2" transform="translate(214,114)"/>
<path d="M0 0 C1.86551426 3.58752742 3.42535928 7.27812193 5 11 C4.01 11.33 3.02 11.66 2 12 C0.40861915 7.82262526 -0.21278058 4.46839215 0 0 Z " fill="#D5EBF5" transform="translate(187,168)"/>
<path d="M0 0 C0.97533063 2.63339271 1.019574 3.92348347 0.3125 6.6875 C-1 9 -1 9 -3.125 9.8125 C-3.74375 9.874375 -4.3625 9.93625 -5 10 C-3.33333333 6.66666667 -1.66666667 3.33333333 0 0 Z " fill="#E6F2F7" transform="translate(399,171)"/>
<path d="M0 0 C1.98 0 3.96 0 6 0 C6.33 1.98 6.66 3.96 7 6 C6.01 6 5.02 6 4 6 C4.33 4.35 4.66 2.7 5 1 C3.35 1 1.7 1 0 1 C0 0.67 0 0.34 0 0 Z " fill="#D2E6EB" transform="translate(475,387)"/>
<path d="M0 0 C0.66 0 1.32 0 2 0 C2 1.98 2 3.96 2 6 C0.68 5.67 -0.64 5.34 -2 5 C-1.34 3.35 -0.68 1.7 0 0 Z " fill="#AAD1DA" transform="translate(477,389)"/>
</svg>
