<?xml version="1.0" encoding="UTF-8"?>
<svg version="1.1" xmlns="http://www.w3.org/2000/svg" width="430" height="495">
<path d="M0 0 C18.83658481 17.43495146 24.34470264 41.20128887 26.15234375 65.9921875 C26.2868337 69.7242319 26.31195559 73.45328605 26.328125 77.1875 C26.35133073 79.30730151 26.37544837 81.42709321 26.40039062 83.546875 C26.43531385 86.82428544 26.46477848 90.10133322 26.47827148 93.37890625 C26.56081998 110.2238796 27.11282413 126.45645804 35.58984375 141.4921875 C36.01740967 142.2756958 36.44497559 143.0592041 36.88549805 143.86645508 C41.78526736 152.5549131 47.84255714 160.29597856 54.15234375 167.9921875 C54.69294434 168.65283203 55.23354492 169.31347656 55.79052734 169.99414062 C56.87146935 171.31402771 57.95268612 172.63368982 59.03417969 173.953125 C84.39795797 204.93458985 107.67107068 240.94457542 107.46484375 282.3671875 C107.46291016 283.99321899 107.46291016 283.99321899 107.4609375 285.65209961 C107.36389588 293.76538523 106.49743192 301.18918579 104.15234375 308.9921875 C104.74402344 309.4046875 105.33570313 309.8171875 105.9453125 310.2421875 C117.27389543 318.52147812 120.58689878 328.75963341 123.52734375 342.1796875 C124.94839526 348.07129024 127.46899106 352.23861127 131.15234375 356.9921875 C137.36135601 365.04090709 142.44732458 371.93575396 141.83984375 382.4296875 C141.74298904 385.88440087 141.74298904 385.88440087 142.15234375 388.9921875 C144.68978581 391.60064354 144.68978581 391.60064354 148.15234375 392.9921875 C153.57693574 397.43290741 157.7615571 403.01073869 159.15234375 409.9921875 C159.38933814 412.92696802 159.38321484 415.8612262 159.40234375 418.8046875 C159.42296875 419.58650391 159.44359375 420.36832031 159.46484375 421.17382812 C159.5282086 430.65479447 155.43369895 437.05963349 149.15234375 443.9921875 C146.40234375 446.1171875 146.40234375 446.1171875 143.15234375 447.9921875 C142.44207031 448.48976563 141.73179687 448.98734375 141 449.5 C114.58756035 467.65092154 78.05048698 474.65225947 46.81993484 478.62650108 C44.94637737 478.88333749 43.07695301 479.17131653 41.21157455 479.48203468 C31.86009697 480.98680127 22.72688464 481.28969439 13.27832031 481.28271484 C11.63373007 481.28871591 9.9891426 481.29552501 8.34455872 481.30307007 C3.91608192 481.32058639 -0.51231736 481.32541959 -4.94082546 481.32670164 C-7.72277801 481.3281331 -10.50471148 481.33242152 -13.28665924 481.33769608 C-23.03600796 481.35615571 -32.78530235 481.36437265 -42.53466797 481.36279297 C-51.54929425 481.3615958 -60.56367949 481.38262498 -69.57824492 481.4142803 C-77.37420936 481.44065724 -85.17009618 481.45115126 -92.96610475 481.44988215 C-97.59685154 481.44937834 -102.22738424 481.45473146 -106.85808563 481.47623825 C-126.34001447 481.56050973 -145.06256843 481.20788412 -164.26319122 477.48071671 C-167.62719148 476.84483564 -171.00411462 476.32548005 -174.38955307 475.8182888 C-183.07539372 474.49816401 -191.39240935 472.38466894 -199.84765625 469.9921875 C-202.34716534 469.34445683 -204.84716963 468.69863421 -207.34765625 468.0546875 C-224.57900451 463.42029581 -243.25751791 458.05058363 -256.84765625 445.9921875 C-257.83765625 445.3321875 -258.82765625 444.6721875 -259.84765625 443.9921875 C-259.84765625 443.3321875 -259.84765625 442.6721875 -259.84765625 441.9921875 C-260.83765625 441.6621875 -261.82765625 441.3321875 -262.84765625 440.9921875 C-264.41796875 438.77734375 -264.41796875 438.77734375 -265.97265625 436.0546875 C-266.49085938 435.15878906 -267.0090625 434.26289063 -267.54296875 433.33984375 C-271.8040801 425.67239489 -271.18535125 414.06103178 -268.9765625 405.69140625 C-264.57340314 396.40868013 -256.40339192 390.28717076 -247.84765625 384.9921875 C-246.85765625 384.6621875 -245.86765625 384.3321875 -244.84765625 383.9921875 C-243.82271838 379.30470939 -244.01833786 375.58838308 -244.78515625 370.8671875 C-246.46745777 359.45569286 -247.61844665 348.1966151 -240.53515625 338.3671875 C-234.73257001 332.13049256 -225.35547328 328.81394069 -217.47265625 326.1171875 C-211.68999667 323.88727302 -208.56764916 319.78882507 -204.84765625 314.9921875 C-204.10902344 314.07695312 -203.37039062 313.16171875 -202.609375 312.21875 C-201.20171153 310.47354733 -199.8024304 308.72152927 -198.4140625 306.9609375 C-196.84765625 304.9921875 -196.84765625 304.9921875 -195.84765625 303.9921875 C-195.73833859 302.59288379 -195.6917909 301.18858226 -195.671875 299.78515625 C-195.0328698 272.43225279 -187.77449676 249.02379957 -174.84765625 224.9921875 C-174.51185547 224.35539063 -174.17605469 223.71859375 -173.83007812 223.0625 C-164.4506382 205.33589248 -152.78615976 188.73405201 -139.84375 173.42578125 C-116.84173699 145.99420478 -114.88448979 115.92460294 -116.3125 81.30810547 C-117.38893599 54.74007658 -116.99758055 27.54473959 -98.90234375 6.171875 C-76.21525389 -17.89541805 -25.36619715 -21.37549344 0 0 Z " fill="#DFDAD4" transform="translate(270.84765625,14.0078125)"/>
<path d="M0 0 C18.83658481 17.43495146 24.34470264 41.20128887 26.15234375 65.9921875 C26.2868337 69.7242319 26.31195559 73.45328605 26.328125 77.1875 C26.35133073 79.30730151 26.37544837 81.42709321 26.40039062 83.546875 C26.43531385 86.82428544 26.46477848 90.10133322 26.47827148 93.37890625 C26.56081998 110.2238796 27.11282413 126.45645804 35.58984375 141.4921875 C36.01740967 142.2756958 36.44497559 143.0592041 36.88549805 143.86645508 C41.78526736 152.5549131 47.84255714 160.29597856 54.15234375 167.9921875 C54.69294434 168.65283203 55.23354492 169.31347656 55.79052734 169.99414062 C56.87146935 171.31402771 57.95268612 172.63368982 59.03417969 173.953125 C84.39795797 204.93458985 107.67107068 240.94457542 107.46484375 282.3671875 C107.46291016 283.99321899 107.46291016 283.99321899 107.4609375 285.65209961 C107.36389588 293.76538523 106.49743192 301.18918579 104.15234375 308.9921875 C100.23497794 310.1621972 97.1727536 309.68802767 93.15234375 308.9921875 C93.054375 308.41210938 92.95640625 307.83203125 92.85546875 307.234375 C91.10191238 298.07355466 86.6868111 292.36119312 79.15234375 286.9921875 C74.27766817 284.0933458 69.22027953 281.53275427 64.15234375 278.9921875 C64.17329102 278.28835938 64.19423828 277.58453125 64.21582031 276.859375 C64.7269954 257.03354633 63.36562587 241.8617775 54.15234375 223.9921875 C53.71277344 223.08210937 53.27320313 222.17203125 52.8203125 221.234375 C47.41599726 210.55033969 39.7457707 200.24055453 30.15234375 192.9921875 C30.75369141 193.64960938 30.75369141 193.64960938 31.3671875 194.3203125 C42.75070524 207.02029147 52.89177969 221.20620579 57.15234375 237.9921875 C57.35472656 238.72953125 57.55710937 239.466875 57.765625 240.2265625 C60.44492241 251.38118845 60.25833498 263.22725711 56.15234375 273.9921875 C55.15234375 274.9921875 55.15234375 274.9921875 52.8671875 275.08984375 C51.49240234 275.07244141 51.49240234 275.07244141 50.08984375 275.0546875 C49.17074219 275.04566406 48.25164062 275.03664063 47.3046875 275.02734375 C46.59441406 275.01574219 45.88414062 275.00414062 45.15234375 274.9921875 C44.99789795 274.34072754 44.84345215 273.68926758 44.68432617 273.01806641 C39.55012313 251.77347165 32.240059 231.95063633 21.70092773 212.78466797 C-11.23183727 151.88032525 -11.23183727 151.88032525 -8.84765625 128.9921875 C-8.35265625 127.8784375 -7.85765625 126.7646875 -7.34765625 125.6171875 C-5.67535234 121.57578638 -4.9777084 118.26875354 -5.84765625 113.9921875 C-8.05494078 108.92360821 -10.71542038 105.33835247 -15.84765625 102.9921875 C-13.84765625 96.9921875 -13.84765625 96.9921875 -13.046875 94.9765625 C-9.47300501 85.55916102 -9.8869536 76.24379106 -13.84765625 66.9921875 C-17.08575283 60.66730727 -20.99456447 55.47347935 -27.84765625 52.9921875 C-33.78787091 51.84983853 -38.51908796 52.33195052 -43.72265625 55.4921875 C-49.5539353 59.91519701 -53.20425232 65.87077049 -54.84765625 72.9921875 C-55.28982543 76.99227614 -55.57979541 80.97427489 -55.84765625 84.9921875 C-61.45765625 84.9921875 -67.06765625 84.9921875 -72.84765625 84.9921875 C-73.43546875 81.5271875 -73.43546875 81.5271875 -74.03515625 77.9921875 C-75.52725632 70.1404967 -77.65838492 64.82709535 -83.66015625 59.4921875 C-87.61142708 57.63276593 -90.56416088 57.03268454 -94.84765625 57.9921875 C-99.50209206 60.76694731 -102.14670558 64.03874843 -104.15234375 69.078125 C-106.72306491 79.85204629 -105.26920765 89.99486446 -100.84765625 99.9921875 C-100.48412576 101.3176061 -100.13961287 102.64918705 -99.84765625 103.9921875 C-105.59765625 108.9921875 -105.59765625 108.9921875 -107.84765625 108.9921875 C-110.35543053 113.84055111 -111.21505826 117.48115729 -110.84765625 122.9921875 C-109.06867135 128.32914219 -106.61737346 131.93249204 -102.84765625 135.9921875 C-102.18765625 136.3221875 -101.52765625 136.6521875 -100.84765625 136.9921875 C-101.12258161 147.57681386 -102.44302762 156.90056728 -105.84765625 166.9921875 C-106.10933594 167.79978516 -106.37101562 168.60738281 -106.640625 169.43945312 C-112.33909171 187.01187424 -119.65570118 203.70761396 -127.36813354 220.47502136 C-138.46153276 244.61554105 -146.12663831 267.42858665 -148.84765625 293.9921875 C-156.38054574 286.9301036 -158.32757732 276.0827504 -159.171875 266.1953125 C-159.66615334 248.94670278 -154.32636829 234.31400358 -146.84765625 218.9921875 C-146.5017041 218.2820752 -146.15575195 217.57196289 -145.79931641 216.84033203 C-143.8546769 212.87052772 -141.86999752 208.92311335 -139.84765625 204.9921875 C-154.16711483 228.65229492 -168.82129198 255.80950404 -162.72265625 284.3671875 C-158.97717694 297.32689759 -150.64472096 306.25754287 -139.59765625 313.4296875 C-137.89397579 314.56623087 -136.19213275 315.70553363 -134.4921875 316.84765625 C-133.68475098 317.3895459 -132.87731445 317.93143555 -132.04541016 318.48974609 C-127.76850543 321.41354877 -123.77745257 324.62278995 -119.84765625 327.9921875 C-119.01105469 328.68441406 -118.17445313 329.37664062 -117.3125 330.08984375 C-108.67136615 337.4797727 -99.34869214 347.45112031 -97.5078125 359.15234375 C-97.29950623 363.6100979 -98.14396973 366.48740868 -100.84765625 369.9921875 C-101.43546875 370.8584375 -101.43546875 370.8584375 -102.03515625 371.7421875 C-105.05583817 373.82541641 -108.26264303 374.37616161 -111.84765625 373.9921875 C-114.44323607 372.25616535 -116.05762011 369.9590864 -117.84765625 367.4296875 C-118.62109375 366.39521484 -118.62109375 366.39521484 -119.41015625 365.33984375 C-125.39186062 357.17481729 -130.10714583 348.41948468 -134.6875 339.421875 C-146.38076679 315.38189984 -146.38076679 315.38189984 -167.16015625 299.65234375 C-174.42998657 297.86658601 -182.84432678 297.53421041 -189.66015625 300.9296875 C-190.71203125 301.6103125 -191.76390625 302.2909375 -192.84765625 302.9921875 C-193.50765625 303.3221875 -194.16765625 303.6521875 -194.84765625 303.9921875 C-195.93337544 274.87820994 -188.57989931 250.52108127 -174.84765625 224.9921875 C-174.51185547 224.35539063 -174.17605469 223.71859375 -173.83007812 223.0625 C-164.4506382 205.33589248 -152.78615976 188.73405201 -139.84375 173.42578125 C-116.84173699 145.99420478 -114.88448979 115.92460294 -116.3125 81.30810547 C-117.38893599 54.74007658 -116.99758055 27.54473959 -98.90234375 6.171875 C-76.21525389 -17.89541805 -25.36619715 -21.37549344 0 0 Z " fill="#1C1C1C" transform="translate(270.84765625,14.0078125)"/>
<path d="M0 0 C1.17978144 3.53934431 0.71465307 4.42366148 -0.4375 7.875 C-2.79527 16.17654368 -3.53508767 24.4133166 -0.0625 32.5 C3.41601287 38.49509062 8.11889498 40.82322392 14.60400391 42.78955078 C22.45636833 44.79664515 30.27567822 45.94903654 38.3125 46.9375 C52.8744346 48.86713026 65.43671162 51.51814502 78.64282227 58.06176758 C94.07852348 65.58027065 112.46341123 68.80877333 129.1796875 64.0390625 C138.233858 60.70331547 145.10110435 55.73627627 149.47265625 47.0859375 C154.29621815 35.82648103 154.17234352 26.39287584 150 15 C149.67 14.01 149.34 13.02 149 12 C152.61160699 13.14050747 156.08186782 14.45553426 159.5625 15.9375 C177.83501015 23.14394049 197.44437123 23.15837571 216 17 C217.12664062 16.62617188 218.25328125 16.25234375 219.4140625 15.8671875 C226.46906221 13.32469357 232.91392347 10.04397811 239.41796875 6.35546875 C242 5 242 5 244 5 C243.70833333 6.45833333 243.41666667 7.91666667 243.125 9.375 C242.94453125 10.29796875 242.7640625 11.2209375 242.578125 12.171875 C242.22534837 13.89762012 241.84638523 15.61861085 241.421875 17.328125 C238.69652109 28.77461143 238.314165 41.43340399 244 52 C249.57047718 60.88455854 256.82053758 67.0083628 266.8203125 70.3046875 C281.02566508 73.41101767 294.73357946 70.1014561 307.1875 62.87890625 C315.2323208 57.50451902 322.11706037 51.15914102 328.4375 43.875 C337.91879306 33.15671981 350.63922028 27.44304439 363.38549805 21.42382812 C371.76549865 17.39494204 379.58579906 12.76820135 385 5 C391.93018008 6.38603602 396.42398789 11.33158161 400.36328125 16.94140625 C403.92249129 22.9338217 404.20595583 28.03520311 404.25 34.8125 C404.2809375 35.98522461 404.2809375 35.98522461 404.3125 37.18164062 C404.37586485 46.66260697 400.2813552 53.06744599 394 60 C391.25 62.125 391.25 62.125 388 64 C386.93458984 64.74636719 386.93458984 64.74636719 385.84765625 65.5078125 C359.4352166 83.65873404 322.89814323 90.66007197 291.66759109 94.63431358 C289.79403362 94.89114999 287.92460926 95.17912903 286.0592308 95.48984718 C276.70775322 96.99461377 267.57454089 97.29750689 258.12597656 97.29052734 C256.48138632 97.29652841 254.83679885 97.30333751 253.19221497 97.31088257 C248.76373817 97.32839889 244.33533889 97.33323209 239.90683079 97.33451414 C237.12487824 97.3359456 234.34294477 97.34023402 231.56099701 97.34550858 C221.81164829 97.36396821 212.0623539 97.37218515 202.31298828 97.37060547 C193.298362 97.3694083 184.28397676 97.39043748 175.26941133 97.4220928 C167.47344689 97.44846974 159.67756007 97.45896376 151.8815515 97.45769465 C147.25080471 97.45719084 142.62027201 97.46254396 137.98957062 97.48405075 C118.50764178 97.56832223 99.78508782 97.21569662 80.58446503 93.48852921 C77.22046477 92.85264814 73.84354163 92.33329255 70.45810318 91.8261013 C61.77226253 90.50597651 53.4552469 88.39248144 45 86 C42.50049091 85.35226933 40.00048662 84.70644671 37.5 84.0625 C20.26865174 79.42810831 1.59013834 74.05839613 -12 62 C-12.99 61.34 -13.98 60.68 -15 60 C-15 59.34 -15 58.68 -15 58 C-15.99 57.67 -16.98 57.34 -18 57 C-19.5703125 54.78515625 -19.5703125 54.78515625 -21.125 52.0625 C-21.90230469 50.71865234 -21.90230469 50.71865234 -22.6953125 49.34765625 C-26.95642385 41.68020739 -26.337695 30.06884428 -24.12890625 21.69921875 C-19.72574689 12.41649263 -11.55573567 6.29498326 -3 1 C-2.01 0.67 -1.02 0.34 0 0 Z " fill="#000000" transform="translate(26,398)"/>
<path d="M0 0 C6.04443256 3.26624617 11.62359683 6.84647071 14.51953125 13.32421875 C14.66015625 16.06640625 14.66015625 16.06640625 14.51953125 18.32421875 C15.50953125 18.32421875 16.49953125 18.32421875 17.51953125 18.32421875 C17.51953125 16.34421875 17.51953125 14.36421875 17.51953125 12.32421875 C17.84953125 12.32421875 18.17953125 12.32421875 18.51953125 12.32421875 C18.51953125 14.63421875 18.51953125 16.94421875 18.51953125 19.32421875 C19.53015625 19.28296875 20.54078125 19.24171875 21.58203125 19.19921875 C28.79148644 19.42809034 33.47106864 21.25946414 38.671875 26.1796875 C44.27208526 32.67972013 45.96148162 40.82167506 47.95703125 48.94921875 C49.71520016 56.09333739 51.72104038 61.61462201 56.51953125 67.32421875 C57.56860466 68.67265554 58.61030817 70.02685868 59.64453125 71.38671875 C60.13566406 72.03125 60.62679687 72.67578125 61.1328125 73.33984375 C66.2289659 80.63236748 68.22917824 87.46058867 67.51953125 96.32421875 C65.42331228 103.3116153 58.88663914 108.24603125 52.85424805 111.96923828 C50.04027623 113.48216929 47.20021739 114.91690434 44.33203125 116.32421875 C42.29086625 117.361708 40.25049852 118.40076733 38.2109375 119.44140625 C37.2327002 119.93608398 36.25446289 120.43076172 35.24658203 120.94042969 C23.20695928 127.0497029 12.85144551 133.76522248 4.14453125 144.32421875 C-3.78667827 153.65283185 -14.14796935 159.9679085 -25.48046875 164.32421875 C-26.15078125 164.58976563 -26.82109375 164.8553125 -27.51171875 165.12890625 C-36.93938508 168.14741345 -49.10732162 167.42237757 -58.0859375 163.5859375 C-68.8384313 157.92026785 -76.28840561 149.04272946 -80.09375 137.45703125 C-83.24885832 120.05613083 -77.01817239 102.29111832 -71.59375 85.96484375 C-68.29081302 75.16366035 -67.66578129 64.39462259 -66.95410156 53.19140625 C-65.96418747 37.90763714 -63.99226603 21.60959535 -51.85546875 10.82421875 C-48.54358402 8.14983296 -45.81604894 6.32421875 -41.48046875 6.32421875 C-41.27421875 5.10734375 -41.06796875 3.89046875 -40.85546875 2.63671875 C-39.65881195 -2.21878079 -37.5746409 -3.91848164 -33.48046875 -6.67578125 C-21.6925315 -10.60509367 -10.513245 -5.06193278 0 0 Z " fill="#FECC35" transform="translate(345.48046875,303.67578125)"/>
<path d="M0 0 C16.23120229 9.38332523 23.92431869 26.93542829 31.79980469 43.13183594 C35.69596872 51.04208944 39.85057018 57.76107673 45.5625 64.5 C46.69640305 66.03513028 47.82228431 67.5762408 48.9375 69.125 C50.77008762 71.66490214 51.85162285 72.69274857 54.5625 74.5 C55.50183769 76.11029319 56.43465232 77.72496779 57.32421875 79.36328125 C60.17440625 84.28142814 63.53787643 89.02935788 67.140625 93.42578125 C72.33304363 101.0004359 73.85963435 111.55780836 72.5625 120.5 C70.00624501 130.52476037 65.56883705 138.70307849 56.6953125 144.3125 C41.17171282 152.52855276 25.41286015 151.80772598 8.81738281 147.20654297 C2.49466033 145.22538675 -3.45846075 142.3245351 -9.4375 139.5 C-23.12137041 133.30500996 -37.78063435 131.78349952 -52.578125 130.12695312 C-62.13041506 128.95738482 -72.01187905 127.06217665 -79.4375 120.5 C-84.68039944 113.31013525 -85.54257021 106.18681277 -84.4375 97.5 C-83.76298013 94.94166167 -83.05874003 92.41140054 -82.3125 89.875 C-79.78148086 81.18237541 -80.91643793 73.47291605 -82.16357422 64.63574219 C-83.39482461 55.03593964 -82.92570959 45.92460007 -77.125 37.875 C-71.32241376 31.63830506 -61.94531703 28.32175319 -54.0625 25.625 C-47.33175118 23.02948248 -43.6988921 17.5016482 -39.48046875 11.90234375 C-29.58231242 -1.04139914 -15.64928557 -7.36554384 0 0 Z " fill="#FEC94D" transform="translate(107.4375,314.5)"/>
<path d="M0 0 C8.06609373 4.88318322 12.7023392 12.34440136 15.03125 21.3671875 C16.96638606 32.00243938 14.374077 40.50969243 9.50390625 49.96484375 C10.24640625 50.19171875 10.98890625 50.41859375 11.75390625 50.65234375 C15.66494164 52.51897428 17.34874639 55.28986195 19.75390625 58.77734375 C21.83625793 64.85086948 20.59482708 70.79379253 18.0625 76.515625 C13.06443128 84.36973299 3.9273954 87.89012766 -4.35571289 91.31005859 C-10.38912793 93.81806641 -15.90584008 96.91497405 -21.5078125 100.265625 C-30.20194917 105.20934977 -40.82756627 105.74426948 -50.51171875 103.16015625 C-56.21745103 100.49134599 -60.93226598 96.36452785 -65.69140625 92.29296875 C-68.46914511 89.98721337 -71.3362564 87.9483429 -74.30859375 85.90234375 C-80.03842524 81.79555466 -85.14662033 77.13836036 -86.49609375 69.96484375 C-87.02491712 64.35931601 -86.08757019 60.32222583 -82.49609375 55.96484375 C-80.25175196 54.05691293 -77.99473907 52.55052251 -75.49609375 50.96484375 C-75.97385547 48.76713982 -76.55685889 46.82745108 -77.46875 44.765625 C-81.42628636 35.72995955 -82.36823732 25.36199816 -79.578125 15.828125 C-77.19570096 10.6700613 -74.40596614 6.85300398 -69.49609375 3.96484375 C-65.09957523 2.98686067 -62.23207619 3.58269902 -58.24609375 5.65234375 C-52.17760066 10.75539476 -48.49079933 17.0071991 -47.49609375 24.96484375 C-47.49609375 27.27484375 -47.49609375 29.58484375 -47.49609375 31.96484375 C-41.88609375 31.96484375 -36.27609375 31.96484375 -30.49609375 31.96484375 C-30.57859375 30.19109375 -30.66109375 28.41734375 -30.74609375 26.58984375 C-30.725589 17.88557612 -28.14895401 10.7884691 -22.11328125 4.4375 C-15.76318554 -1.34507508 -8.26426694 -3.42727815 0 0 Z " fill="#E38C3F" transform="translate(245.49609375,67.03515625)"/>
<path d="M0 0 C6.04443256 3.26624617 11.62359683 6.84647071 14.51953125 13.32421875 C14.66015625 16.06640625 14.66015625 16.06640625 14.51953125 18.32421875 C15.50953125 18.32421875 16.49953125 18.32421875 17.51953125 18.32421875 C17.51953125 16.34421875 17.51953125 14.36421875 17.51953125 12.32421875 C17.84953125 12.32421875 18.17953125 12.32421875 18.51953125 12.32421875 C18.51953125 14.63421875 18.51953125 16.94421875 18.51953125 19.32421875 C19.53015625 19.28296875 20.54078125 19.24171875 21.58203125 19.19921875 C28.79148644 19.42809034 33.47106864 21.25946414 38.671875 26.1796875 C44.27208526 32.67972013 45.96148162 40.82167506 47.95703125 48.94921875 C49.71520016 56.09333739 51.72104038 61.61462201 56.51953125 67.32421875 C57.56860466 68.67265554 58.61030817 70.02685868 59.64453125 71.38671875 C60.13566406 72.03125 60.62679687 72.67578125 61.1328125 73.33984375 C66.2289659 80.63236748 68.22917824 87.46058867 67.51953125 96.32421875 C65.42331228 103.3116153 58.88663914 108.24603125 52.85424805 111.96923828 C50.04027623 113.48216929 47.20021739 114.91690434 44.33203125 116.32421875 C42.29086625 117.361708 40.25049852 118.40076733 38.2109375 119.44140625 C37.2327002 119.93608398 36.25446289 120.43076172 35.24658203 120.94042969 C23.20695928 127.0497029 12.85144551 133.76522248 4.14453125 144.32421875 C-3.78667827 153.65283185 -14.14796935 159.9679085 -25.48046875 164.32421875 C-26.15078125 164.58976563 -26.82109375 164.8553125 -27.51171875 165.12890625 C-36.93938508 168.14741345 -49.10732162 167.42237757 -58.0859375 163.5859375 C-68.8384313 157.92026785 -76.28840561 149.04272946 -80.09375 137.45703125 C-83.24885832 120.05613083 -77.01817239 102.29111832 -71.59375 85.96484375 C-68.29081302 75.16366035 -67.66578129 64.39462259 -66.95410156 53.19140625 C-65.96418747 37.90763714 -63.99226603 21.60959535 -51.85546875 10.82421875 C-48.54358402 8.14983296 -45.81604894 6.32421875 -41.48046875 6.32421875 C-41.27421875 5.10734375 -41.06796875 3.89046875 -40.85546875 2.63671875 C-39.65881195 -2.21878079 -37.5746409 -3.91848164 -33.48046875 -6.67578125 C-21.6925315 -10.60509367 -10.513245 -5.06193278 0 0 Z M-43.48046875 18.32421875 C-51.7452071 25.67065284 -54.44936203 35.15837047 -55.19140625 46.03125 C-55.30010561 47.51168112 -55.40942157 48.99206707 -55.51928711 50.47241211 C-55.57373993 51.23520477 -55.62819275 51.99799744 -55.68429565 52.78390503 C-56.8924619 69.39042908 -58.9925875 84.79134071 -64.53515625 100.58984375 C-67.11641819 108.05630391 -69.01287381 115.42854423 -69.48046875 123.32421875 C-69.55652344 124.19949219 -69.63257813 125.07476562 -69.7109375 125.9765625 C-70.13601282 134.16787879 -67.89510758 139.90128707 -62.90625 146.36328125 C-57.92050815 151.82551591 -52.5534479 154.85666966 -45.1796875 155.703125 C-29.26439193 156.24233174 -17.10217771 149.11396044 -5.703125 138.54296875 C-3.87709175 136.7201447 -2.26337242 134.90597593 -0.66796875 132.88671875 C10.07091438 119.93424968 27.14810201 112.21592903 42.02856445 105.14990234 C47.10097401 102.69813838 52.45330686 99.90699924 56.01953125 95.44921875 C57.2958611 90.02481688 55.63705567 86.16342327 52.95703125 81.51171875 C50.69587638 77.89387095 48.18879472 74.72903894 45.39453125 71.51171875 C40.81882252 65.9443165 39.27030332 60.21589427 37.51953125 53.32421875 C34.84141017 43.18671287 34.84141017 43.18671287 29.51953125 34.32421875 C29.06578125 33.74671875 28.61203125 33.16921875 28.14453125 32.57421875 C23.20797133 28.77686496 16.7824511 28.72756808 10.8203125 28.80859375 C6.21238737 29.52841164 3.63037212 31.57760271 0.04296875 34.43359375 C-6.68328416 39.47307735 -14.52034256 42.26187696 -22.94140625 41.80078125 C-28.07774483 40.83673001 -31.64914875 38.52371536 -34.9765625 34.52734375 C-37.80802879 30.32635519 -39.4454138 25.97107175 -40.8046875 21.109375 C-41.32786566 19.11795111 -41.32786566 19.11795111 -43.48046875 18.32421875 Z " fill="#E48B3E" transform="translate(345.48046875,303.67578125)"/>
<path d="M0 0 C16.23120229 9.38332523 23.92431869 26.93542829 31.79980469 43.13183594 C35.69596872 51.04208944 39.85057018 57.76107673 45.5625 64.5 C46.69640305 66.03513028 47.82228431 67.5762408 48.9375 69.125 C50.77008762 71.66490214 51.85162285 72.69274857 54.5625 74.5 C55.50183769 76.11029319 56.43465232 77.72496779 57.32421875 79.36328125 C60.17440625 84.28142814 63.53787643 89.02935788 67.140625 93.42578125 C72.33304363 101.0004359 73.85963435 111.55780836 72.5625 120.5 C70.00624501 130.52476037 65.56883705 138.70307849 56.6953125 144.3125 C41.17171282 152.52855276 25.41286015 151.80772598 8.81738281 147.20654297 C2.49466033 145.22538675 -3.45846075 142.3245351 -9.4375 139.5 C-23.12137041 133.30500996 -37.78063435 131.78349952 -52.578125 130.12695312 C-62.13041506 128.95738482 -72.01187905 127.06217665 -79.4375 120.5 C-84.68039944 113.31013525 -85.54257021 106.18681277 -84.4375 97.5 C-83.76298013 94.94166167 -83.05874003 92.41140054 -82.3125 89.875 C-79.78148086 81.18237541 -80.91643793 73.47291605 -82.16357422 64.63574219 C-83.39482461 55.03593964 -82.92570959 45.92460007 -77.125 37.875 C-71.32241376 31.63830506 -61.94531703 28.32175319 -54.0625 25.625 C-47.33175118 23.02948248 -43.6988921 17.5016482 -39.48046875 11.90234375 C-29.58231242 -1.04139914 -15.64928557 -7.36554384 0 0 Z M-26.76171875 14.0078125 C-29.05582853 16.79107957 -31.25303967 19.63030021 -33.4375 22.5 C-34.45039719 23.69427645 -35.46942107 24.88344783 -36.5 26.0625 C-38.64491471 28.24198614 -38.64491471 28.24198614 -38.4375 30.5 C-39.00210938 30.78101563 -39.56671875 31.06203125 -40.1484375 31.3515625 C-41.65785836 32.10884873 -43.16320798 32.87431253 -44.6640625 33.6484375 C-48.92767674 35.8288526 -53.1087621 37.77535543 -57.625 39.375 C-63.13515217 41.49562639 -67.75828636 45.14157272 -70.4375 50.5 C-70.53524794 52.58145604 -70.56725741 54.66625547 -70.5625 56.75 C-70.56507812 57.86890625 -70.56765625 58.9878125 -70.5703125 60.140625 C-70.51064502 63.43943454 -70.51064502 63.43943454 -69.94921875 66.4140625 C-68.2569619 76.61927558 -68.81719466 86.14895094 -72.53515625 95.78125 C-74.29286388 101.07720025 -74.2212553 106.09648374 -72.5 111.375 C-67.14066259 116.89674157 -59.22586128 118.2065051 -51.875 119.125 C-51.00584961 119.24633301 -50.13669922 119.36766602 -49.24121094 119.49267578 C-45.2152074 120.04623284 -41.18708186 120.53791839 -37.14453125 120.953125 C-23.22293152 122.43736268 -11.46464694 126.52530846 1.25 132.125 C15.01394481 138.16242266 29.49129568 142.72689144 44.4375 137.9375 C51.00315826 135.18728326 55.84670317 131.37811082 59.5 125.25 C62.19449608 115.74001384 62.20913244 108.36364922 57.5625 99.5 C51.94636465 90.0770579 45.0975483 81.59015576 38.13037109 73.1496582 C31.38742567 64.93403407 26.35475448 56.26699911 21.68017578 46.76489258 C11.22950293 23.86055394 11.22950293 23.86055394 -7.4375 8.5 C-15.40502511 6.1574354 -21.15970326 7.96328486 -26.76171875 14.0078125 Z " fill="#E48B3E" transform="translate(107.4375,314.5)"/>
<path d="M0 0 C3.24387157 1.54391862 6.51612621 2.76133453 9.8984375 3.96875 C20.04899101 7.8240083 20.04899101 7.8240083 23.0859375 12.46875 C24.10995797 15.72864949 24.05072253 18.19735248 23.0859375 21.46875 C17.51779851 30.77120976 7.49170798 34.85448238 -1.83081055 39.44165039 C-6.87096853 41.92193401 -11.7980727 44.55792973 -16.6796875 47.33984375 C-23.21613543 50.64234978 -31.69892528 50.70849624 -38.63671875 48.66796875 C-44.42961246 45.99644407 -48.7987111 42.10566939 -53.390625 37.73828125 C-55.90238588 35.47925172 -58.47420925 33.64268521 -61.2890625 31.78125 C-65.77216506 28.70792812 -68.96875136 26.0173026 -70.421875 20.5625 C-70.69945579 18.23440305 -70.62611211 16.70910121 -69.9140625 14.46875 C-65.84744748 9.39596219 -59.68287016 5.40732104 -53.9140625 2.46875 C-53.2540625 2.46875 -52.5940625 2.46875 -51.9140625 2.46875 C-50.38121748 1.28079511 -48.88730463 0.04236392 -47.4140625 -1.21875 C-30.20573893 -15.09404102 -18.2378643 -9.38220841 0 0 Z " fill="#FECF21" transform="translate(235.9140625,115.53125)"/>
<path d="M0 0 C10.57248879 5.84611757 10.57248879 5.84611757 13.484375 11.25390625 C14.33855088 16.48867221 14.19602772 20.74520248 11.921875 25.56640625 C4.80420054 33.4140986 -6.05470535 41.29709789 -16.93359375 42.52734375 C-22.74937968 42.74061658 -26.96175371 42.41332132 -31.734375 38.921875 C-39.12294165 32.00319526 -42.46728861 22.69272837 -42.890625 12.69140625 C-42.64974284 7.10093276 -41.76847721 0.94378717 -38.0859375 -3.453125 C-26.71500455 -13.26833329 -11.50746762 -5.71537559 0 0 Z " fill="#0A0A09" transform="translate(345.515625,303.74609375)"/>
<path d="M0 0 C1 3 1 3 0.20703125 5.25 C-4.45299539 14.43952032 -9.97645733 23.01609362 -15.5234375 31.68847656 C-30.57116398 55.24533409 -42.14180973 80.29515011 -36.12890625 108.875 C-34.77818832 114.38707315 -32.24925373 119.16380124 -29.5234375 124.109375 C-28.26637448 126.49457149 -27.47180848 128.37317442 -27 131 C-27.96486328 130.47599609 -27.96486328 130.47599609 -28.94921875 129.94140625 C-36.33730316 126.22101567 -42.76529906 125.14400908 -51 125 C-52.7142494 119.04452001 -53.3548045 113.68673071 -53.3125 107.5 C-53.30686035 106.62561279 -53.3012207 105.75122559 -53.29541016 104.8503418 C-52.9168206 84.2584433 -45.63512347 65.90369373 -36 48 C-35.68305176 47.4009082 -35.36610352 46.80181641 -35.03955078 46.18457031 C-29.86350205 36.454994 -23.69540043 27.72277376 -17 19 C-15.92878906 17.58847656 -15.92878906 17.58847656 -14.8359375 16.1484375 C-10.30664079 10.3199003 -5.32683369 5.10488228 0 0 Z " fill="#4E4D4D" transform="translate(139,187)"/>
<path d="M0 0 C8.06609373 4.88318322 12.7023392 12.34440136 15.03125 21.3671875 C16.8508797 31.3676317 15.17972592 40.45111424 9.50390625 48.96484375 C7.87667326 48.51450252 6.25216961 48.05429021 4.62890625 47.58984375 C3.27152344 47.20699219 3.27152344 47.20699219 1.88671875 46.81640625 C-0.49609375 45.96484375 -0.49609375 45.96484375 -2.49609375 43.96484375 C-2.17253906 43.27390625 -1.84898437 42.58296875 -1.515625 41.87109375 C-0.36084753 38.57931428 -0.19579829 35.9472057 -0.18359375 32.46484375 C-0.16683594 31.36140625 -0.15007812 30.25796875 -0.1328125 29.12109375 C-0.53247384 25.64876728 -1.57933897 23.83744722 -3.49609375 20.96484375 C-3.49609375 20.30484375 -3.49609375 19.64484375 -3.49609375 18.96484375 C-6.52338618 18.29870751 -9.39084207 17.84501021 -12.49609375 17.96484375 C-16.28645084 20.7068042 -18.24558224 23.48384417 -19.49609375 27.96484375 C-19.92392692 30.63133885 -20.22258516 33.27534261 -20.49609375 35.96484375 C-25.44609375 34.47984375 -25.44609375 34.47984375 -30.49609375 32.96484375 C-31.0811918 22.59560603 -30.26498147 14.41803411 -23.68359375 6.08984375 C-17.18101163 -0.7524255 -9.22745656 -3.82672299 0 0 Z " fill="#CECAC5" transform="translate(245.49609375,67.03515625)"/>
<path d="M0 0 C0.79277344 0.45181641 1.58554688 0.90363281 2.40234375 1.36914062 C9.3787799 5.41216834 9.3787799 5.41216834 11.625 8.1875 C11.68823347 11.6021074 11.60740005 14.06802088 9.28125 16.71875 C2.55529886 22.38964998 -3.89054435 21.29212079 -12.20483398 21.11035156 C-13.85440287 21.07855733 -15.50421057 21.05732634 -17.15405273 21.046875 C-19.5373393 21.03159905 -21.91810559 20.98416819 -24.30078125 20.9296875 C-25.40103386 20.93088089 -25.40103386 20.93088089 -26.52351379 20.93209839 C-30.5348724 20.79988363 -32.20798016 20.32850571 -35.31713867 17.70361328 C-35.99623291 16.8732959 -36.67532715 16.04297852 -37.375 15.1875 C-37.705 14.8575 -38.035 14.5275 -38.375 14.1875 C-38.74609375 11.94140625 -38.74609375 11.94140625 -38.375 9.1875 C-27.62861379 -3.84877038 -14.8831522 -8.96230019 0 0 Z " fill="#FFCE81" transform="translate(219.375,111.8125)"/>
<path d="M0 0 C7.0170471 3.64346677 10.27430714 8.73148572 13 16 C14.22478457 20.34241801 14.07594337 24.51934104 14 29 C9.545 30.485 9.545 30.485 5 32 C4.82984375 31.32453125 4.6596875 30.6490625 4.484375 29.953125 C2.80164886 22.97819559 2.80164886 22.97819559 -2 18 C-5.167832 17.66551741 -5.167832 17.66551741 -8 18 C-11.6250059 26.60938902 -10.41944009 34.57352265 -7 43 C-8.65 43.99 -10.3 44.98 -12 46 C-18.71260248 38.82445941 -19.52657873 30.74813776 -19.49169922 21.31835938 C-19.2172589 13.52356379 -16.7810155 7.4225414 -11.1875 1.875 C-7.22552999 -0.45557059 -4.48348091 -0.96843188 0 0 Z " fill="#D0CBC5" transform="translate(184,71)"/>
<path d="M0 0 C6.8414679 2.29027681 13.5787142 4.73315502 18.640625 10.09375 C18.640625 10.75375 18.640625 11.41375 18.640625 12.09375 C17.23876953 13.3112793 17.23876953 13.3112793 15.2734375 14.66796875 C14.55679932 15.16780273 13.84016113 15.66763672 13.10180664 16.18261719 C12.3308667 16.71016602 11.55992676 17.23771484 10.765625 17.78125 C9.9914624 18.31782227 9.2172998 18.85439453 8.41967773 19.40722656 C6.87269758 20.47936863 5.32413396 21.54922987 3.77392578 22.61669922 C1.95551337 23.87572819 0.15090216 25.14995415 -1.64453125 26.44140625 C-2.51980469 27.06917969 -3.39507812 27.69695312 -4.296875 28.34375 C-5.04839844 28.88515625 -5.79992187 29.4265625 -6.57421875 29.984375 C-8.359375 31.09375 -8.359375 31.09375 -10.359375 31.09375 C-10.359375 30.43375 -10.359375 29.77375 -10.359375 29.09375 C-11.019375 29.09375 -11.679375 29.09375 -12.359375 29.09375 C-17.72498998 21.85016978 -18.56217901 14.95765702 -17.359375 6.09375 C-14.22043868 -2.11128354 -7.525148 -2.03003992 0 0 Z " fill="#454545" transform="translate(325.359375,301.90625)"/>
<path d="M0 0 C1.53966825 0.05439251 3.0768125 0.18239846 4.609375 0.33984375 C5.58237549 0.43338135 6.55537598 0.52691895 7.55786133 0.62329102 C9.13796997 0.77882446 9.13796997 0.77882446 10.75 0.9375 C20.02579679 1.79661563 29.17195205 2.18441726 38.48535156 2.01342773 C39.70883301 1.99324585 39.70883301 1.99324585 40.95703125 1.97265625 C41.66835205 1.95468994 42.37967285 1.93672363 43.11254883 1.91821289 C45 2 45 2 48 3 C48.33 2.01 48.66 1.02 49 0 C48.76001446 6.11963135 48.76001446 6.11963135 46.66796875 8.54296875 C39.88939091 14.16704428 33.51202613 13.10522354 25.17016602 12.92285156 C23.52059713 12.89105733 21.87078943 12.86982634 20.22094727 12.859375 C17.8376607 12.84409905 15.45689441 12.79666819 13.07421875 12.7421875 C11.97396614 12.74338089 11.97396614 12.74338089 10.85148621 12.74459839 C6.8401276 12.61238363 5.16701984 12.14100571 2.05786133 9.51611328 C1.03921997 8.27063721 1.03921997 8.27063721 0 7 C-0.33 6.67 -0.66 6.34 -1 6 C-1.125 3.5 -1.125 3.5 -1 1 C-0.67 0.67 -0.34 0.34 0 0 Z " fill="#FFCB69" transform="translate(182,120)"/>
<path d="M0 0 C3.21943343 2.6340819 5.48302988 5.13308063 7 9 C7.265625 12.05859375 7.265625 12.05859375 7.25 15.4375 C7.25515625 16.54996094 7.2603125 17.66242188 7.265625 18.80859375 C7.00441051 21.947009 6.33378454 24.16835425 5 27 C-2.23412393 26.83558809 -8.47810202 23.57654905 -14 19 C-15.71276144 15.30984444 -14.53773266 12.47085698 -13.203125 8.8203125 C-10.41061363 2.57149608 -7.35567796 -1.20092701 0 0 Z " fill="#0A0908" transform="translate(239,84)"/>
<path d="M0 0 C14.13432131 5.82191725 24.31314291 27.89807211 30 41 C33.67787622 51.18402806 35.18041897 60.34767858 35.1875 71.125 C35.19974609 72.11371094 35.21199219 73.10242188 35.22460938 74.12109375 C35.22654297 75.07371094 35.22847656 76.02632813 35.23046875 77.0078125 C35.23457764 77.87035645 35.23868652 78.73290039 35.24291992 79.62158203 C35 82 35 82 33 86 C29.7 85.01 26.4 84.02 23 83 C23.680625 82.01 23.680625 82.01 24.375 81 C30.7412926 69.24684444 28.74709995 55.07807671 25.19921875 42.72265625 C23.53803272 37.56594521 21.49282297 32.80342204 19 28 C18.55914062 27.09894531 18.11828125 26.19789063 17.6640625 25.26953125 C13.55450163 17.22069518 8.24164933 10.08860012 1.7265625 3.80859375 C0 2 0 2 0 0 Z " fill="#B7B8BA" transform="translate(301,207)"/>
<path d="M0 0 C0 1.32 0 2.64 0 4 C-1.27230469 4.61875 -1.27230469 4.61875 -2.5703125 5.25 C-8.2699527 8.05597672 -13.88453172 10.87802196 -19.33129883 14.15234375 C-30.99023273 21.12369895 -42.28705112 24.66262148 -56 23 C-64.80906439 20.71343664 -71.23873074 15.89413941 -78 10 C-78.91265625 9.31550781 -79.8253125 8.63101563 -80.765625 7.92578125 C-83 6 -83 6 -83.3125 3.25 C-83.209375 2.5075 -83.10625 1.765 -83 1 C-78.84096395 2.37653052 -76.41954807 4.25680809 -73.3125 7.3125 C-64.78987504 15.23547919 -56.36252224 18.46993892 -44.8046875 18.328125 C-31.39516931 17.17165731 -18.36438849 8.25205789 -7.14453125 1.20703125 C-4.59057172 -0.23044324 -2.88574428 -0.24734951 0 0 Z " fill="#E78F3D" transform="translate(252,130)"/>
<path d="M0 0 C2.69900498 0.98557214 5.37058435 2.011509 8.02734375 3.10546875 C3.6124455 6.73608368 -1.00013772 10.05116384 -5.66015625 13.35546875 C-6.43166016 13.90976562 -7.20316406 14.4640625 -7.99804688 15.03515625 C-8.73603516 15.55851562 -9.47402344 16.081875 -10.234375 16.62109375 C-11.2392395 17.33700684 -11.2392395 17.33700684 -12.2644043 18.06738281 C-13.97265625 19.10546875 -13.97265625 19.10546875 -15.97265625 19.10546875 C-17.54619434 14.38485447 -18.12667461 8.84010941 -16.1484375 4.15234375 C-12.08579433 -2.06999449 -6.65192635 -2.00169663 0 0 Z " fill="#868686" transform="translate(324.97265625,301.89453125)"/>
<path d="M0 0 C3.0907594 3.98545291 4.94726082 7.80737363 4.7265625 12.93359375 C3.14269599 17.43824635 -1.10423776 20.47010949 -5 23 C-5.99 23 -6.98 23 -8 23 C-10.98013893 17.28806706 -11.80345757 12.42766052 -11 6 C-8.59428378 -0.23299204 -6.64331228 -2.12585993 0 0 Z " fill="#0D0C0B" transform="translate(184,89)"/>
<path d="M0 0 C15.01249286 -0.21277549 30.00122825 0.42827066 45 1 C40.18483615 5.97566931 40.18483615 5.97566931 35.62353516 6.06933594 C34.17859906 6.04745547 32.73375757 6.01865636 31.2890625 5.984375 C30.14224503 5.95963104 30.14224503 5.95963104 28.97225952 5.93438721 C27.35318018 5.89686715 25.73416865 5.8563182 24.11523438 5.81298828 C21.64200661 5.75043017 19.16898022 5.70888434 16.6953125 5.66796875 C15.12236302 5.62890394 13.54944419 5.58858043 11.9765625 5.546875 C11.23789948 5.53734802 10.49923645 5.52782104 9.7381897 5.51800537 C5.61782822 5.38131573 2.89981464 5.07238898 0 2 C0 1.34 0 0.68 0 0 Z " fill="#FFCA4D" transform="translate(183,127)"/>
<path d="M0 0 C2.72140371 1.47046398 5.36924082 3.0035822 7.98828125 4.6484375 C7.98828125 5.3084375 7.98828125 5.9684375 7.98828125 6.6484375 C-2.24171875 6.6484375 -12.47171875 6.6484375 -23.01171875 6.6484375 C-20.63350412 1.89200825 -19.21219374 1.30074013 -14.5 -0.578125 C-9.13349436 -2.24620682 -5.18441084 -2.32659683 0 0 Z " fill="#FFD5A5" transform="translate(213.01171875,108.3515625)"/>
<path d="M0 0 C0.8971875 0.5259375 0.8971875 0.5259375 1.8125 1.0625 C1.8125 1.7225 1.8125 2.3825 1.8125 3.0625 C-0.25934146 4.68972731 -2.3315399 6.19874828 -4.5 7.6875 C-5.78027169 8.58287055 -7.0602152 9.47871054 -8.33984375 10.375 C-8.98421387 10.82359375 -9.62858398 11.2721875 -10.29248047 11.734375 C-13.0748188 13.68437765 -15.81841854 15.68399855 -18.5625 17.6875 C-19.45710938 18.33976562 -20.35171875 18.99203125 -21.2734375 19.6640625 C-21.90507812 20.12554687 -22.53671875 20.58703125 -23.1875 21.0625 C-25.7597047 19.77639765 -26.19724907 18.72856019 -27.1875 16.0625 C-26.8125 13.8125 -26.8125 13.8125 -26.1875 12.0625 C-26.1875 13.0525 -26.1875 14.0425 -26.1875 15.0625 C-24.18605767 13.68955937 -22.18599801 12.31471748 -20.1875 10.9375 C-19.59533691 10.52951172 -19.00317383 10.12152344 -18.39306641 9.70117188 C-14.43295227 6.95963742 -10.56111539 4.13346406 -6.7734375 1.15625 C-4.25353149 -0.58161622 -2.8733273 -1.23142599 0 0 Z " fill="#5C5C5C" transform="translate(335.1875,305.9375)"/>
<path d="M0 0 C4.18763017 1.39587672 5.04082064 3.08164127 7 7 C7.04110527 10.15482972 6.56916113 12.86961379 6 16 C2.37 16 -1.26 16 -5 16 C-7.51720311 9.16759156 -7.51720311 9.16759156 -6.08984375 5.9453125 C-4.2701353 3.38817118 -2.83440712 1.41720356 0 0 Z " fill="#3C3C3C" transform="translate(233,84)"/>
<path d="M0 0 C1.10640839 -0.01210762 1.10640839 -0.01210762 2.23516846 -0.02445984 C3.79868216 -0.03829926 5.36222606 -0.04902206 6.92578125 -0.05688477 C9.30527945 -0.07405391 11.68337193 -0.11793262 14.0625 -0.16210938 C15.58332314 -0.17224058 17.10415807 -0.18075535 18.625 -0.1875 C19.33146667 -0.20500809 20.03793335 -0.22251617 20.76580811 -0.24055481 C25.80893398 -0.218658 28.72801602 1.01045383 32.578125 4.23828125 C32.578125 4.89828125 32.578125 5.55828125 32.578125 6.23828125 C30.66966797 6.13 30.66966797 6.13 28.72265625 6.01953125 C15.99481558 5.33539609 3.32282407 5.12206819 -9.421875 5.23828125 C-9.421875 3.91828125 -9.421875 2.59828125 -9.421875 1.23828125 C-6.41499674 -0.26515788 -3.30035207 0.034118 0 0 Z " fill="#FFD092" transform="translate(196.421875,113.76171875)"/>
<path d="M0 0 C1.5 1.375 1.5 1.375 3 3 C3 3.66 3 4.32 3 5 C1.8553125 5.6496875 1.8553125 5.6496875 0.6875 6.3125 C-3.24926547 8.7844225 -4.59637237 11.64939985 -5.9140625 16.05859375 C-7.67147636 24.41113763 -8.62433871 32.47637482 -9 41 C-9.33 41 -9.66 41 -10 41 C-10.38998168 37.33695784 -10.71460803 33.67266716 -11 30 C-11.06832031 29.16339844 -11.13664062 28.32679688 -11.20703125 27.46484375 C-11.60757944 18.34124608 -8.80103651 9.11094799 -3 2 C-2.01 1.34 -1.02 0.68 0 0 Z " fill="#FBA442" transform="translate(302,322)"/>
<path d="M0 0 C3.66664954 -0.02932237 7.3332684 -0.04690637 11 -0.0625 C12.02996094 -0.07087891 13.05992187 -0.07925781 14.12109375 -0.08789062 C19.85025613 -0.10613637 25.33484101 0.13524616 31 1 C26.17243084 4.21837944 21.86563378 4.41073842 16.25 4.8125 C15.07050781 4.92754883 15.07050781 4.92754883 13.8671875 5.04492188 C7.97276778 5.45126476 4.8667559 4.35077445 0 1 C0 0.67 0 0.34 0 0 Z " fill="#FFCB35" transform="translate(189,132)"/>
<path d="M0 0 C0.66 0.33 1.32 0.66 2 1 C-2.79622707 10.9804144 -9.93487682 21.00471664 -20 26 C-19.1875 23.5625 -19.1875 23.5625 -18 21 C-17.01 20.67 -16.02 20.34 -15 20 C-13.92503259 18.12715676 -13.92503259 18.12715676 -13 16 C-12.18794068 14.84936327 -11.34286597 13.72141868 -10.46875 12.6171875 C-9.98792969 12.00746094 -9.50710937 11.39773438 -9.01171875 10.76953125 C-8.51285156 10.14433594 -8.01398438 9.51914062 -7.5 8.875 C-7.00113281 8.24207031 -6.50226563 7.60914063 -5.98828125 6.95703125 C-4.064186 4.52740963 -2.1938523 2.1938523 0 0 Z " fill="#FDA541" transform="translate(84,325)"/>
<path d="M0 0 C0.66 0.33 1.32 0.66 2 1 C2 1.66 2 2.32 2 3 C0.59814453 4.2175293 0.59814453 4.2175293 -1.3671875 5.57421875 C-2.08382568 6.07405273 -2.80046387 6.57388672 -3.53881836 7.08886719 C-4.3097583 7.61641602 -5.08069824 8.14396484 -5.875 8.6875 C-6.6491626 9.22407227 -7.4233252 9.76064453 -8.22094727 10.31347656 C-9.76792742 11.38561863 -11.31649104 12.45547987 -12.86669922 13.52294922 C-14.68511163 14.78197819 -16.48972284 16.05620415 -18.28515625 17.34765625 C-19.16042969 17.97542969 -20.03570312 18.60320312 -20.9375 19.25 C-21.68902344 19.79140625 -22.44054687 20.3328125 -23.21484375 20.890625 C-25 22 -25 22 -27 22 C-25.59617042 18.64592927 -24.07220467 17.02325798 -21.11328125 14.94140625 C-19.9521582 14.11479492 -19.9521582 14.11479492 -18.76757812 13.27148438 C-17.55231445 12.42553711 -17.55231445 12.42553711 -16.3125 11.5625 C-15.52166016 11.00240234 -14.73082031 10.44230469 -13.91601562 9.86523438 C-12.35745966 8.76227611 -10.7964751 7.66274045 -9.23291016 6.56689453 C-6.14123109 4.39737821 -3.07062886 2.19917863 0 0 Z " fill="#393939" transform="translate(342,311)"/>
<path d="M0 0 C0.99 0.33 1.98 0.66 3 1 C-0.80807189 5.21164472 -5.39643778 8.29367666 -10 11.5625 C-11.60434972 12.70937939 -13.20852243 13.85650645 -14.8125 15.00390625 C-15.87404297 15.75909546 -15.87404297 15.75909546 -16.95703125 16.52954102 C-19.04641533 17.99370733 -19.04641533 17.99370733 -21.07421875 19.74975586 C-21.70972656 20.16233643 -22.34523438 20.57491699 -23 21 C-23.99 20.67 -24.98 20.34 -26 20 C-21.7528134 15.4175092 -16.96174822 11.91731435 -11.875 8.3125 C-11.06417969 7.73177734 -10.25335938 7.15105469 -9.41796875 6.55273438 C-6.30348386 4.32626377 -3.18573049 2.12382033 0 0 Z " fill="#515151" transform="translate(337,308)"/>
<path d="M0 0 C0.66 0.66 1.32 1.32 2 2 C-0.84989258 4.08922903 -3.70566465 6.17027731 -6.5625 8.25 C-7.36236328 8.83652344 -8.16222656 9.42304688 -8.98632812 10.02734375 C-13.52782358 13.32687922 -18.06444116 16.32353588 -23 19 C-23.66 18.34 -24.32 17.68 -25 17 C-24.625 14.875 -24.625 14.875 -24 13 C-24 13.99 -24 14.98 -24 16 C-21.99855767 14.62705937 -19.99849801 13.25221748 -18 11.875 C-17.40783691 11.46701172 -16.81567383 11.05902344 -16.20556641 10.63867188 C-12.24545227 7.89713742 -8.37361539 5.07096406 -4.5859375 2.09375 C-3 1 -3 1 0 0 Z " fill="#666666" transform="translate(333,305)"/>
<path d="M0 0 C1 3 1 3 0.16723633 5.10961914 C-0.27338135 5.91004639 -0.71399902 6.71047363 -1.16796875 7.53515625 C-1.64943359 8.42783203 -2.13089844 9.32050781 -2.62695312 10.24023438 C-3.14193359 11.17158203 -3.65691406 12.10292969 -4.1875 13.0625 C-7.93665494 19.90263574 -11.27809168 26.68245615 -14 34 C-14.99 34 -15.98 34 -17 34 C-14.70790705 25.96489347 -10.96700456 19.15892066 -6.8125 11.9375 C-6.15096493 10.77450221 -5.49015216 9.61109326 -4.83007812 8.44726562 C-3.22708344 5.62739906 -1.61695042 2.81187965 0 0 Z " fill="#A2A4A6" transform="translate(132,215)"/>
<path d="M0 0 C2 2 2 2 2.125 5.125 C2.08375 6.07375 2.0425 7.0225 2 8 C-1.63 8 -5.26 8 -9 8 C-7.76132198 1.80660989 -6.6447919 -0.8518964 0 0 Z " fill="#6A6A6A" transform="translate(237,87)"/>
<path d="M0 0 C-0.845625 0.42410156 -1.69125 0.84820312 -2.5625 1.28515625 C-9.43597808 4.83905685 -15.4710522 8.50445974 -21 14 C-21.33 13.01 -21.66 12.02 -22 11 C-7.72613774 -2.8352799 -7.72613774 -2.8352799 0 0 Z " fill="#FCA642" transform="translate(204,106)"/>
<path d="M0 0 C2.8992226 0.46761655 3.86675182 0.86675182 6 3 C6.125 5.625 6.125 5.625 6 8 C3.36 8 0.72 8 -2 8 C-1.125 1.125 -1.125 1.125 0 0 Z " fill="#686868" transform="translate(178,89)"/>
<path d="M0 0 C0.33 0 0.66 0 1 0 C1.125 5.75 1.125 5.75 0 8 C-2.31 8 -4.62 8 -7 8 C-7.33 6.35 -7.66 4.7 -8 3 C-5.36 3 -2.72 3 0 3 C0 2.01 0 1.02 0 0 Z " fill="#313131" transform="translate(184,94)"/>
<path d="M0 0 C3.66786393 1.50349377 5.68910393 3.63728792 8.25 6.625 C8.95640625 7.44226563 9.6628125 8.25953125 10.390625 9.1015625 C10.92171875 9.72804687 11.4528125 10.35453125 12 11 C11.34 11.66 10.68 12.32 10 13 C8.32722165 11.21371169 6.66175557 9.4214925 5 7.625 C4.28457031 6.86316406 4.28457031 6.86316406 3.5546875 6.0859375 C0 2.2265625 0 2.2265625 0 0 Z " fill="#A9AAAD" transform="translate(301,207)"/>
<path d="M0 0 C0.66 0 1.32 0 2 0 C1.67 6.27 1.34 12.54 1 19 C0.67 19 0.34 19 0 19 C-0.1938211 16.02111874 -0.38035102 13.04209754 -0.5625 10.0625 C-0.61857422 9.21236328 -0.67464844 8.36222656 -0.73242188 7.48632812 C-0.80493164 6.27299805 -0.80493164 6.27299805 -0.87890625 5.03515625 C-0.9260376 4.2862915 -0.97316895 3.53742676 -1.02172852 2.76586914 C-1 1 -1 1 0 0 Z " fill="#FEAD4F" transform="translate(292,344)"/>
<path d="M0 0 C0.99 0.33 1.98 0.66 3 1 C3 1.66 3 2.32 3 3 C1.02 3.33 -0.96 3.66 -3 4 C-3.66 7.3 -4.32 10.6 -5 14 C-7 10 -7 10 -6.4375 7.5625 C-4.71401473 4.49020018 -2.58094179 2.37718323 0 0 Z " fill="#282827" transform="translate(233,84)"/>
<path d="M0 0 C1.65 0 3.3 0 5 0 C5.33 1.32 5.66 2.64 6 4 C3.69 4 1.38 4 -1 4 C-0.67 2.68 -0.34 1.36 0 0 Z " fill="#8E8E8E" transform="translate(232,87)"/>
<path d="M0 0 C1.9375 0.3125 1.9375 0.3125 4 1 C4.33 1.99 4.66 2.98 5 4 C3.02 4 1.04 4 -1 4 C-0.67 2.68 -0.34 1.36 0 0 Z " fill="#8A8A8A" transform="translate(178,89)"/>
<path d="M0 0 C1.2077558 3.62326739 0.54311128 4.64146369 -1 8 C-1.99 8 -2.98 8 -4 8 C-2.25 2.25 -2.25 2.25 0 0 Z " fill="#B3B5B8" transform="translate(119,241)"/>
</svg>
