<?xml version="1.0" encoding="UTF-8"?>
<svg version="1.1" xmlns="http://www.w3.org/2000/svg" width="224" height="224">
<path d="M0 0 C73.92 0 147.84 0 224 0 C224 73.92 224 147.84 224 224 C150.08 224 76.16 224 0 224 C0 150.08 0 76.16 0 0 Z " fill="#3178C6" transform="translate(0,0)"/>
<path d="M0 0 C0 6.93 0 13.86 0 21 C-9 18 -9 18 -11.50390625 16.83203125 C-15.29270137 15.56909954 -18.97089489 15.67130978 -22.9375 15.6875 C-24.11602539 15.66333008 -24.11602539 15.66333008 -25.31835938 15.63867188 C-30.27604061 15.63452319 -33.72982397 16.21623639 -38 19 C-40.16479509 22.24719263 -40.25134712 22.87794029 -39.875 26.5625 C-39.81054688 27.34753906 -39.74609375 28.13257813 -39.6796875 28.94140625 C-39.20304494 31.10034011 -39.20304494 31.10034011 -37.421875 32.0390625 C-36.22304687 32.51472656 -36.22304687 32.51472656 -35 33 C-33.83210938 33.58394531 -32.66421875 34.16789062 -31.4609375 34.76953125 C-30.80295166 35.09824219 -30.14496582 35.42695313 -29.46704102 35.765625 C-28.04734934 36.47605071 -26.62859605 37.18835417 -25.21069336 37.90234375 C-22.1714861 39.43036386 -19.13566969 40.93781059 -16.04296875 42.35546875 C-8.30446475 45.92614855 -0.0715985 51.27907528 3.40625 59.41015625 C5.48174725 68.46314753 5.49084097 78.87272807 0.62109375 86.984375 C-2.13012657 90.40516942 -5.25441246 92.75413974 -9 95 C-9.928125 95.5775 -10.85625 96.155 -11.8125 96.75 C-25.37846675 102.06998696 -45.06150573 102.11769104 -59 98 C-60.98 97.01 -62.96 96.02 -65 95 C-65 87.74 -65 80.48 -65 73 C-61.19670256 74.52131898 -57.68242454 76.13165185 -54.0625 78 C-53.0415625 78.495 -53.0415625 78.495 -52 79 C-51.27683594 79.36480469 -50.55367187 79.72960937 -49.80859375 80.10546875 C-45.869093 81.36019152 -42.17206792 81.32927375 -38.0625 81.3125 C-36.88397461 81.33666992 -36.88397461 81.33666992 -35.68164062 81.36132812 C-30.70204635 81.36549515 -27.32774879 80.71557978 -23 78 C-20.48554082 75.48554082 -20.61007019 73.61015724 -20.34375 70.16796875 C-21.41457457 66.63042329 -24.0191935 64.93204535 -27 63 C-31.27675209 60.73228309 -35.7048805 58.80622509 -40.125 56.83789062 C-50.21892896 52.21999085 -58.03090642 46.48285284 -63.875 36.9375 C-66.36281354 30.22794227 -66.29926216 22.2312085 -63.65234375 15.6484375 C-62.20786688 13.00535217 -60.7027585 10.48318948 -59 8 C-58.34 8 -57.68 8 -57 8 C-57 7.34 -57 6.68 -57 6 C-42.11134858 -6.84861986 -17.58987139 -4.44375698 0 0 Z " fill="#FAFCFD" transform="translate(198,104)"/>
<path d="M0 0 C26.07 0 52.14 0 79 0 C79 5.94 79 11.88 79 18 C69.76 18 60.52 18 51 18 C51 45.06 51 72.12 51 100 C43.41 100 35.82 100 28 100 C28 72.94 28 45.88 28 18 C18.76 18 9.52 18 0 18 C0 12.06 0 6.12 0 0 Z " fill="#FCFDFE" transform="translate(45,101)"/>
<path d="M0 0 C2.02054804 1.64169528 4.02043058 3.30911778 6 5 C6 5.33 6 5.66 6 6 C4.02 6 2.04 6 0 6 C0 4.02 0 2.04 0 0 Z " fill="#E3ECF6" transform="translate(0,218)"/>
<path d="M0 0 C0.33 0 0.66 0 1 0 C1 1.98 1 3.96 1 6 C-0.98 6 -2.96 6 -5 6 C-3.35830472 3.97945196 -1.69088222 1.97956942 0 0 Z " fill="#E5EDF7" transform="translate(223,218)"/>
<path d="M0 0 C1.98 0 3.96 0 6 0 C6 1.98 6 3.96 6 6 C3.97945196 4.35830472 1.97956942 2.69088222 0 1 C0 0.67 0 0.34 0 0 Z " fill="#E5EDF7" transform="translate(218,0)"/>
</svg>
