<?xml version="1.0" encoding="UTF-8"?>
<svg version="1.1" xmlns="http://www.w3.org/2000/svg" width="224" height="224">
<path d="M0 0 C73.92 0 147.84 0 224 0 C224 73.92 224 147.84 224 224 C150.08 224 76.16 224 0 224 C0 150.08 0 76.16 0 0 Z " fill="#1B76FF" transform="translate(0,0)"/>
<path d="M0 0 C5.1650396 4.27088814 9.8811952 9.09881376 11.91796875 15.5859375 C12.15405026 18.29143157 12.01031858 20.86161748 11.91796875 23.5859375 C6.96796875 23.5859375 2.01796875 23.5859375 -3.08203125 23.5859375 C-3.66984375 21.513125 -3.66984375 21.513125 -4.26953125 19.3984375 C-5.98484925 14.27664291 -8.32024245 11.01984613 -13.21875 8.4765625 C-17.03803265 7.28857281 -20.54314845 7.2561639 -24.51953125 7.2734375 C-25.62651367 7.24926758 -25.62651367 7.24926758 -26.75585938 7.22460938 C-31.59797787 7.22030527 -34.86702016 7.96527211 -39.08203125 10.5859375 C-41.49070225 13.54203373 -41.34889765 16.75776805 -41.4453125 20.48828125 C-40.93512009 23.43423098 -39.88169851 25.20186216 -38.08203125 27.5859375 C-35.61570088 29.11967097 -35.61570088 29.11967097 -32.70703125 30.1484375 C-31.64226562 30.55835938 -30.5775 30.96828125 -29.48046875 31.390625 C-22.75673014 33.75552617 -16.00263869 36.00070178 -9.01953125 37.4609375 C0.48573915 39.79697853 8.31947447 44.54149912 13.91796875 52.5859375 C16.68420506 58.11841013 15.80024761 68.39510513 14.1640625 74.3125 C13.16796875 76.3359375 13.16796875 76.3359375 10.91796875 79.5859375 C10.34046875 80.4728125 9.76296875 81.3596875 9.16796875 82.2734375 C2.96149464 88.65231367 -4.3776087 91.56752465 -13.19140625 91.88671875 C-15.07151875 91.90609965 -16.95185126 91.9094748 -18.83203125 91.8984375 C-19.81123535 91.89352295 -20.79043945 91.8886084 -21.79931641 91.88354492 C-34.26179184 91.6811309 -43.57012496 88.81293648 -52.83203125 80.3359375 C-58.82214635 74.01759692 -60.54249868 67.08357543 -61.08203125 58.5859375 C-56.13203125 58.5859375 -51.18203125 58.5859375 -46.08203125 58.5859375 C-45.52515625 60.2978125 -44.96828125 62.0096875 -44.39453125 63.7734375 C-41.92991818 70.53376702 -38.50701755 74.29107273 -32.08203125 77.5859375 C-25.08384223 79.92959331 -13.98071145 79.98410466 -7.26953125 76.9609375 C-3.70309698 74.30359432 -2.38564146 72.82267069 -1.08203125 68.5859375 C-0.52419044 64.60136026 -0.902167 61.29155878 -1.89453125 57.3984375 C-6.63571711 51.30262711 -14.42496522 49.66184865 -21.68652344 48.12207031 C-43.86095134 43.15926521 -43.86095134 43.15926521 -51.08203125 35.5859375 C-51.58863281 35.05613281 -52.09523438 34.52632812 -52.6171875 33.98046875 C-56.87879434 29.17280644 -57.2575032 25.552426 -57.33203125 19.2734375 C-57.3578125 17.97792969 -57.38359375 16.68242188 -57.41015625 15.34765625 C-56.75338744 7.81827102 -52.63281713 3.27909122 -47.08203125 -1.4140625 C-33.69239343 -9.67575392 -12.94434124 -8.80748992 0 0 Z " fill="#FAFBFF" transform="translate(172.08203125,69.4140625)"/>
<path d="M0 0 C25.08 0 50.16 0 76 0 C76 4.29 76 8.58 76 13 C66.1 13 56.2 13 46 13 C46 40.06 46 67.12 46 95 C41.05 95 36.1 95 31 95 C31 67.94 31 40.88 31 13 C20.77 13 10.54 13 0 13 C0 8.71 0 4.42 0 0 Z " fill="#F6F9FF" transform="translate(33,65)"/>
</svg>
